<?xml version="1.0" encoding="utf-8"?>
<svg width="306px" height="245px" viewBox="0 0 306 245" version="1.1" xmlns:xlink="http://www.w3.org/1999/xlink" xmlns="http://www.w3.org/2000/svg">
  <desc>Created with Lunacy</desc>
  <g id="Group">
    <g id="A">
      <path d="M7.89579 0L298.104 0C298.233 0 298.362 0.00317027 298.491 0.00951082C298.621 0.0158514 298.75 0.0253546 298.878 0.0380204C299.006 0.0506862 299.135 0.0664994 299.263 0.08546C299.391 0.104421 299.518 0.126506 299.644 0.151716C299.771 0.176925 299.897 0.205229 300.023 0.236627C300.148 0.268025 300.273 0.302479 300.396 0.33999C300.52 0.377501 300.643 0.418023 300.764 0.461556C300.886 0.505089 301.007 0.55158 301.126 0.601031C301.245 0.650482 301.363 0.702831 301.48 0.75808C301.597 0.813329 301.712 0.87141 301.827 0.932325C301.94 0.99324 302.053 1.05691 302.163 1.12335C302.274 1.18978 302.384 1.25889 302.491 1.33068C302.598 1.40247 302.704 1.47685 302.808 1.55383C302.912 1.63081 303.014 1.71029 303.114 1.79226C303.213 1.87424 303.311 1.95861 303.407 2.04539C303.502 2.13217 303.596 2.22125 303.687 2.31262C303.779 2.40399 303.868 2.49755 303.955 2.5933C304.042 2.68905 304.126 2.78687 304.207 2.88675C304.29 2.98664 304.369 3.08848 304.446 3.19227C304.523 3.29606 304.598 3.40168 304.669 3.50912C304.741 3.61656 304.81 3.7257 304.877 3.83654C304.943 3.94738 305.007 4.05978 305.068 4.17374C305.129 4.2877 305.187 4.40309 305.242 4.51991C305.297 4.63672 305.35 4.75482 305.399 4.8742C305.448 4.99358 305.495 5.11411 305.538 5.23578C305.582 5.35744 305.623 5.4801 305.66 5.60376C305.698 5.72741 305.732 5.85192 305.763 5.97727C305.795 6.10261 305.823 6.22866 305.848 6.35539C305.874 6.48213 305.896 6.60941 305.914 6.73723C305.933 6.86505 305.949 6.99326 305.962 7.12186C305.975 7.25046 305.984 7.3793 305.99 7.50836C305.997 7.63743 306 7.76657 306 7.89579C306 7.89579 306 236.904 306 236.904C306 237.033 305.997 237.162 305.99 237.291C305.984 237.421 305.975 237.55 305.962 237.678C305.949 237.806 305.933 237.935 305.914 238.063C305.896 238.191 305.874 238.318 305.848 238.444C305.823 238.571 305.795 238.697 305.763 238.823C305.732 238.948 305.698 239.073 305.66 239.196C305.623 239.32 305.582 239.443 305.538 239.564C305.495 239.686 305.448 239.807 305.399 239.926C305.35 240.045 305.297 240.163 305.242 240.28C305.187 240.397 305.129 240.512 305.068 240.627C305.007 240.74 304.943 240.853 304.877 240.963C304.81 241.074 304.741 241.184 304.669 241.291C304.598 241.398 304.523 241.504 304.446 241.608C304.369 241.712 304.29 241.814 304.207 241.914C304.126 242.013 304.042 242.111 303.955 242.207C303.868 242.302 303.779 242.396 303.687 242.487C303.596 242.579 303.502 242.668 303.407 242.755C303.311 242.842 303.213 242.926 303.114 243.007C303.014 243.09 302.912 243.169 302.808 243.246C302.704 243.323 302.598 243.398 302.491 243.469C302.384 243.541 302.274 243.61 302.163 243.677C302.053 243.743 301.94 243.807 301.827 243.867C301.712 243.928 301.597 243.987 301.48 244.042C301.363 244.097 301.245 244.149 301.126 244.199C301.007 244.248 300.886 244.295 300.764 244.338C300.643 244.382 300.52 244.423 300.396 244.46C300.273 244.498 300.148 244.532 300.023 244.563C299.897 244.595 299.771 244.623 299.644 244.648C299.518 244.674 299.391 244.696 299.263 244.714C299.135 244.733 299.006 244.749 298.878 244.761C298.75 244.775 298.621 244.784 298.491 244.79C298.362 244.797 298.233 244.8 298.104 244.8C298.104 244.8 7.89579 244.8 7.89579 244.8C7.76657 244.8 7.63743 244.797 7.50836 244.79C7.3793 244.784 7.25046 244.775 7.12186 244.761C6.99326 244.749 6.86505 244.733 6.73723 244.714C6.60941 244.696 6.48213 244.674 6.35539 244.648C6.22866 244.623 6.10261 244.595 5.97727 244.563C5.85192 244.532 5.72742 244.498 5.60376 244.46C5.4801 244.423 5.35744 244.382 5.23578 244.338C5.11411 244.295 4.99358 244.248 4.8742 244.199C4.75482 244.149 4.63672 244.097 4.51991 244.042C4.40309 243.987 4.2877 243.928 4.17374 243.867C4.05978 243.807 3.94738 243.743 3.83654 243.677C3.7257 243.61 3.61656 243.541 3.50912 243.469C3.40168 243.398 3.29606 243.323 3.19227 243.246C3.08848 243.169 2.98664 243.09 2.88675 243.007C2.78687 242.926 2.68905 242.842 2.5933 242.755C2.49755 242.668 2.40399 242.579 2.31262 242.487C2.22125 242.396 2.13217 242.302 2.04539 242.207C1.95861 242.111 1.87424 242.013 1.79226 241.914C1.71029 241.814 1.63081 241.712 1.55383 241.608C1.47685 241.504 1.40247 241.398 1.33068 241.291C1.25889 241.184 1.18978 241.074 1.12335 240.963C1.05691 240.853 0.99324 240.74 0.932325 240.627C0.87141 240.512 0.813329 240.397 0.75808 240.28C0.702831 240.163 0.650482 240.045 0.601031 239.926C0.55158 239.807 0.505089 239.686 0.461556 239.564C0.418023 239.443 0.377501 239.32 0.33999 239.196C0.302479 239.073 0.268025 238.948 0.236627 238.823C0.205229 238.697 0.176925 238.571 0.151716 238.444C0.126506 238.318 0.104421 238.191 0.08546 238.063C0.0664994 237.935 0.0506862 237.806 0.0380204 237.678C0.0253546 237.55 0.0158514 237.421 0.00951082 237.291C0.00317027 237.162 0 237.033 0 236.904C0 236.904 0 7.89579 0 7.89579C0 7.76657 0.00317027 7.63743 0.00951082 7.50836C0.0158514 7.3793 0.0253546 7.25046 0.0380204 7.12186C0.0506862 6.99326 0.0664994 6.86505 0.08546 6.73723C0.104421 6.60941 0.126506 6.48213 0.151716 6.35539C0.176925 6.22866 0.205229 6.10261 0.236627 5.97727C0.268025 5.85192 0.302479 5.72741 0.33999 5.60376C0.377501 5.4801 0.418023 5.35744 0.461556 5.23578C0.505089 5.11411 0.55158 4.99358 0.601031 4.8742C0.650482 4.75482 0.702831 4.63672 0.75808 4.51991C0.813329 4.40309 0.87141 4.2877 0.932325 4.17374C0.99324 4.05978 1.05691 3.94738 1.12335 3.83654C1.18978 3.7257 1.25889 3.61656 1.33068 3.50912C1.40247 3.40168 1.47685 3.29606 1.55383 3.19227C1.63081 3.08848 1.71029 2.98664 1.79226 2.88675C1.87424 2.78687 1.95861 2.68905 2.04539 2.5933C2.13217 2.49755 2.22125 2.40399 2.31262 2.31262C2.40399 2.22125 2.49755 2.13217 2.5933 2.04539C2.68905 1.95861 2.78687 1.87424 2.88675 1.79226C2.98664 1.71029 3.08848 1.63081 3.19227 1.55383C3.29606 1.47685 3.40168 1.40247 3.50912 1.33068C3.61656 1.25889 3.7257 1.18978 3.83654 1.12335C3.94738 1.05691 4.05978 0.99324 4.17374 0.932325C4.2877 0.87141 4.40309 0.813329 4.51991 0.75808C4.63672 0.702831 4.75482 0.650482 4.8742 0.601031C4.99358 0.55158 5.11411 0.505089 5.23578 0.461556C5.35744 0.418023 5.4801 0.377501 5.60376 0.33999C5.72742 0.302479 5.85192 0.268025 5.97727 0.236627C6.10261 0.205229 6.22866 0.176925 6.35539 0.151716C6.48213 0.126506 6.60941 0.104421 6.73723 0.08546C6.86505 0.0664994 6.99326 0.0506862 7.12186 0.0380204C7.25046 0.0253546 7.3793 0.0158514 7.50836 0.00951082C7.63743 0.00317027 7.76657 0 7.89579 0C7.89579 0 7.89579 0 7.89579 0L7.89579 0Z" id="Rectangle" fill="#FFFFFF" stroke="none" />
    </g>
    <g id="A" transform="translate(11.00003 12.79999)">
      <path d="M173 148.5L111 148.5L99.2 181.1L79.6 181.1L131.8 42.7L152.4 42.7L204.4 181.1L184.8 181.1L173 148.5ZM167.8 134.3L142 63.1L116.2 134.3L167.8 134.3Z" />
    </g>
  </g>
</svg>