<?xml version="1.0" encoding="utf-8"?>
<svg width="254px" height="254px" viewBox="0 0 254 254" version="1.1" xmlns:xlink="http://www.w3.org/1999/xlink" xmlns="http://www.w3.org/2000/svg">
  <desc>Created with Lunacy</desc>
  <g id="bootstrap-4">
    <path d="M0 221.249C0 239.338 14.6635 254 32.7511 254L221.248 254C239.338 254 254 239.336 254 221.249L254 32.7521C254 14.6616 239.336 0 221.249 0L32.7521 0C14.6616 0 0 14.6635 0 32.7511L0 221.248L0 221.249Z" id="Shape" fill="#FFFFFF" stroke="none" />
    <path d="M0 3.7849e-06L0 153.789L74.5252 153.789C81.4179 153.789 88.131 152.928 94.6646 151.204C101.198 149.481 107.013 146.825 112.111 143.235C117.208 139.645 121.265 135.014 124.28 129.343C127.297 123.67 128.804 116.957 128.804 109.203C128.804 99.5819 126.47 91.3616 121.804 84.5413C117.137 77.72 110.064 72.9456 100.587 70.2171C107.48 66.9151 112.686 62.6785 116.204 57.5092C119.721 52.3399 121.48 45.8788 121.48 38.1238C121.48 30.9444 120.296 24.9138 117.926 20.0313C115.557 15.1497 112.218 11.2365 107.91 8.29271C103.603 5.34889 98.4339 3.23056 92.4024 1.93874C86.3719 0.645915 79.6945 3.7849e-06 72.3712 3.7849e-06L0 3.7849e-06ZM33.8167 26.2781L33.8167 62.2478L68.0631 62.2479C74.0946 62.2479 79.0486 60.8122 82.925 57.9398C86.8025 55.0684 88.7412 50.4011 88.7412 43.939C88.7412 40.3503 88.0943 37.4065 86.8025 35.1085C85.5097 32.8116 83.7863 31.0168 81.6332 29.7239C79.4792 28.4311 77.0017 27.5342 74.2017 27.0321C71.4018 26.5291 68.4947 26.2781 65.4784 26.2781L33.8167 26.2781ZM33.8167 85.2944L33.8167 127.511L70.0018 127.511C73.3048 127.511 76.4629 127.188 79.4792 126.543C82.4944 125.896 85.1515 124.819 87.4484 123.311C89.7463 121.804 91.5769 119.757 92.9412 117.172C94.3054 114.588 94.9881 111.286 94.9881 107.264C94.9881 99.3666 92.7616 93.731 88.3107 90.3566C83.8587 86.9811 77.9711 85.2944 70.6477 85.2944L33.8167 85.2944Z" transform="translate(71.5119 50.10547)" id="Shape" fill="#000000" fill-rule="evenodd" stroke="none" />
  </g>
</svg>