<?xml version="1.0" encoding="utf-8"?>
<svg width="200px" height="225px" viewBox="0 0 200 225" version="1.1" xmlns:xlink="http://www.w3.org/1999/xlink" xmlns="http://www.w3.org/2000/svg">
  <desc>Created with Lunacy</desc>
  <g id="C-Sharp-01">
    <path d="M200 66.0593C200 62.3008 199.199 58.912 197.535 56.0778C195.933 53.2435 193.531 50.9022 190.327 49.0537C163.709 33.7118 137.03 18.3698 110.413 3.02787C103.204 -1.10028 96.3032 -0.977056 89.1559 3.21272C78.5582 9.43576 25.4467 39.8732 9.67344 49.0537C3.14233 52.8122 0 58.604 0 66.1209C0 96.9897 0 127.92 0 158.789C0 162.486 0.800988 165.751 2.34135 168.585C3.94332 171.481 6.40789 173.946 9.67345 175.856C25.5083 185.036 78.5582 215.412 89.1559 221.697C96.3032 225.887 103.266 226.072 110.413 221.882C137.03 206.478 163.709 191.198 190.327 175.856C193.654 173.946 196.057 171.543 197.659 168.585C199.199 165.751 200 162.486 200 158.789C200 158.727 200 96.928 200 66.0593" id="XMLID_3_" fill="#FFFFFF" stroke="none" />
    <path d="M98.0283 0L0 56.4387C1.60197 59.3346 4.06654 61.7991 7.3321 63.7092C23.167 72.8897 76.2169 103.266 86.8145 109.55C93.9618 113.74 100.924 113.925 108.071 109.735C134.689 94.3314 161.368 79.0511 187.985 63.7091C191.312 61.7991 193.715 59.3961 195.317 56.4387L98.0283 0" transform="translate(2.218079 109.0573)" id="XMLID_4_" fill="#EAEAEA" stroke="none" />
    <path d="M0 16.6975C5.73013 26.679 16.451 33.395 28.7123 33.395C41.0967 33.395 51.8792 26.6174 57.5477 16.5126L29.0203 0L0 16.6975" transform="translate(71.22614 109.0573)" id="XMLID_5_" fill="#FFFFFF" stroke="none" />
    <path d="M99.7535 9.98151C99.7535 6.22304 98.9526 2.83425 97.289 0L0 56.0074L97.4122 112.446C98.9526 109.612 99.7535 106.346 99.7535 102.649C99.7535 102.649 99.7535 40.8503 99.7535 9.98151" transform="translate(100.2465 53.04993)" id="XMLID_6_" fill="#EAEAEA" stroke="none" />
    <path d="M95.3173 82.6248C89.6488 92.6679 78.8663 99.5071 66.4818 99.5071C54.159 99.5071 43.4381 92.7911 37.7696 82.8096C34.9969 77.9421 33.395 72.3968 33.395 66.4202C33.395 48.1208 48.1824 33.3333 66.4818 33.3333C78.6815 33.3333 89.3407 39.9877 95.0709 49.846L123.968 33.2101C112.446 13.3703 91.0043 0 66.4202 0C29.6981 0 0 29.7597 0 66.4202C0 78.435 3.20394 89.772 8.81085 99.5071C20.2711 119.409 41.8361 132.84 66.4818 132.84C91.1892 132.84 112.754 119.347 124.214 99.3222L95.3173 82.6248" transform="translate(33.45654 42.94513)" id="XMLID_9_" fill="#000000" stroke="none" />
    <g id="XMLID_32_" transform="translate(153.4196 93.65372)">
      <path d="M0 0L6.59274 0L6.59274 31.8546L0 31.8546L0 0Z" transform="translate(5.298838 0)" id="XMLID_2_" fill="#000000" stroke="none" />
      <path d="M0 0L6.59274 0L6.59274 31.8546L0 31.8546L0 0Z" transform="translate(19.90147 0)" id="XMLID_30_" fill="#000000" stroke="none" />
      <path d="M0 0L31.8546 0L31.8546 6.59273L0 6.59273L0 0Z" transform="translate(0 5.360435)" id="XMLID_31_" fill="#000000" stroke="none" />
      <path d="M0 0L31.8546 0L31.8546 6.59273L0 6.59273L0 0Z" transform="translate(0 19.90143)" id="XMLID_23_" fill="#000000" stroke="none" />
    </g>
  </g>
</svg>