<?xml version="1.0" encoding="utf-8"?>
<svg width="273px" height="385px" viewBox="0 0 273 385" version="1.1" xmlns:xlink="http://www.w3.org/1999/xlink" xmlns="http://www.w3.org/2000/svg">
  <desc>Created with Lunacy</desc>
  <g id="CSS-3-01">
    <g id="CSS-3-01">
      <g id="CSS-3-01">
        <g id="XMLID_1_">
          <path d="M24.8112 278.483L0 0L272.707 0L247.897 278.376L136.14 309.39L24.8112 278.483L24.8112 278.483L24.8112 278.483Z" transform="translate(0 75.60974)" id="XMLID_11_" fill="#FFFFFF" stroke="none" />
          <path d="M0 262.976L90.2611 237.952L111.543 0L0 0L0 262.976L0 262.976L0 262.976Z" transform="translate(136.3542 98.38898)" id="XMLID_10_" fill="#535353" stroke="none" />
          <path d="M3.31528 32.1902L0 0L183.944 0L181.806 37.3237L104.057 71.6528L178.597 71.6528L170.577 177.527L95.3948 197.74L17.432 178.812L12.6195 125.125L47.0557 125.125L48.9806 153.465L94.1111 161.915L135.819 149.081L137.745 103.736L9.62499 103.736L7.27223 70.0487L91.9723 32.9389L3.31528 32.1902L3.31528 32.1902L3.31528 32.1902Z" transform="translate(44.38196 130.4722)" id="XMLID_35_" fill="#000000" stroke="none" />
          <g id="XMLID_2_" transform="translate(44.38196 130.4722)">
            <path d="M0 37.1097L2.35277 70.7973L84.7 70.7973L84.7 0L0 37.1097L0 37.1097L0 37.1097Z" transform="translate(7.272224 32.93892)" id="XMLID_39_" fill="#000000" stroke="none" />
            <path d="M36.3611 28.3403L34.4362 0L0 0L4.81251 53.6862L79.3529 71.7597L79.3529 36.3611L36.3611 28.3403L36.3611 28.3403L36.3611 28.3403Z" transform="translate(12.61945 125.1251)" id="XMLID_40_" fill="#000000" stroke="none" />
            <path d="M0 0L3.31528 32.1902L91.9724 32.9389L91.9724 0L0 0L0 0L0 0Z" id="XMLID_41_" fill="#000000" stroke="none" />
          </g>
          <g id="XMLID_36_" transform="translate(54.00696 0)">
            <path d="M52.4027 12.8334L52.4027 0L1.06945 0L1.06945 29.9445L36.3611 29.9445L36.3611 39.5694L0 39.5694L0 51.3333L51.3333 51.3333L51.3333 20.3195L14.9722 20.3195L14.9722 12.8334L52.4027 12.8334L52.4027 12.8334L52.4027 12.8334Z" transform="translate(55.61115 0)" id="XMLID_34_" fill="#FFFFFF" stroke="none" />
            <path d="M14.9722 30.2652L14.9722 39.5694L51.3333 39.5694L51.3333 51.3333L0 51.3333L0 20.6403L0 0L50.2639 0L50.2639 12.8334L14.9722 12.8334L14.9722 30.2652L14.9722 30.2652L14.9722 30.2652Z" id="XMLID_38_" fill="#FFFFFF" stroke="none" />
            <path d="M52.4027 12.8334L52.4027 0L1.06945 0L1.06945 29.9445L36.3611 29.9445L36.3611 39.5694L0 39.5694L0 51.3333L51.3333 51.3333L51.3333 20.3195L14.9722 20.3195L14.9722 12.8334L52.4027 12.8334L52.4027 12.8334L52.4027 12.8334Z" transform="translate(112.2916 0)" id="XMLID_37_" fill="#FFFFFF" stroke="none" />
          </g>
        </g>
      </g>
    </g>
  </g>
</svg>