<?xml version="1.0" encoding="utf-8"?>
<svg width="265px" height="374px" viewBox="0 0 265 374" version="1.1" xmlns:xlink="http://www.w3.org/1999/xlink" xmlns="http://www.w3.org/2000/svg">
  <desc>Created with Lunacy</desc>
  <g id="CSS-3-01">
    <g id="XMLID_1_">
      <path d="M24.0543 269.988L0 0L264.389 0L240.335 269.885L131.987 299.952L24.0543 269.988Z" transform="translate(0 73.30328)" id="XMLID_11_" fill="#444343" stroke="none" />
      <path d="M0 254.954L87.5077 230.693L108.14 0L0 0L0 254.954Z" transform="translate(132.1947 95.38759)" id="XMLID_10_" fill="#2A2A2A" stroke="none" />
      <path d="M3.21415 31.2083L0 0L178.333 0L176.26 36.1851L100.883 69.467L173.149 69.467L165.373 172.112L92.4845 191.708L16.9002 173.357L12.2345 121.308L45.6202 121.308L47.4864 148.784L91.2403 156.975L131.676 144.533L133.543 100.572L9.33139 100.572L7.05039 67.9118L89.1667 31.9341L3.21415 31.2083Z" transform="translate(43.0281 126.4922)" id="XMLID_35_" fill="#686868" stroke="none" />
      <g id="XMLID_2_" transform="translate(43.0281 126.4922)">
        <path d="M0 35.9777L2.281 68.6376L82.1163 68.6376L82.1163 0L0 35.9777Z" transform="translate(7.050388 31.93411)" id="XMLID_39_" fill="#686868" stroke="none" />
        <path d="M35.2519 27.4758L33.3857 0L0 0L4.6657 52.0485L76.9322 69.5707L76.9322 35.2519L35.2519 27.4758Z" transform="translate(12.2345 121.3081)" id="XMLID_40_" fill="#686868" stroke="none" />
        <path d="M0 0L3.21415 31.2083L89.1667 31.9341L89.1667 0L0 0Z" id="XMLID_41_" fill="#686868" stroke="none" />
      </g>
      <g id="XMLID_36_" transform="translate(52.35949 0)">
        <path d="M50.8042 12.4419L50.8042 0L1.03682 0L1.03682 29.031L35.2519 29.031L35.2519 38.3624L0 38.3624L0 49.7674L49.7674 49.7674L49.7674 19.6996L14.5155 19.6996L14.5155 12.4419L50.8042 12.4419Z" transform="translate(53.91472 0)" id="XMLID_34_" fill="#686868" stroke="none" />
        <path d="M14.5155 29.342L14.5155 38.3624L49.7674 38.3624L49.7674 49.7674L0 49.7674L0 20.0107L0 0L48.7306 0L48.7306 12.4419L14.5155 12.4419L14.5155 29.342Z" id="XMLID_38_" fill="#686868" stroke="none" />
        <path d="M50.8042 12.4419L50.8042 0L1.03682 0L1.03682 29.031L35.2519 29.031L35.2519 38.3624L0 38.3624L0 49.7674L49.7674 49.7674L49.7674 19.6996L14.5155 19.6996L14.5155 12.4419L50.8042 12.4419Z" transform="translate(108.8662 0)" id="XMLID_37_" fill="#686868" stroke="none" />
      </g>
    </g>
  </g>
</svg>