<?xml version="1.0" encoding="utf-8"?>
<svg width="337px" height="56px" viewBox="0 0 337 56" version="1.1" xmlns:xlink="http://www.w3.org/1999/xlink" xmlns="http://www.w3.org/2000/svg">
  <desc>Created with Lunacy</desc>
  <g id="dotpeek">
    <path d="M0 0L52.187 0L52.187 52.1869L0 52.1869L0 0Z" transform="translate(0 2.279785)" id="Shape" fill="#FFFFFF" stroke="none" />
    <g id="Group" transform="translate(4.942337 8.820496)">
      <path d="M13.1908 0L18.5285 0C21.6412 0 23.5256 1.84654 23.5256 4.51331L23.5256 4.54275C23.5256 7.56284 21.1743 9.13177 18.2467 9.13177L16.0637 9.13177L16.0637 13.0478L13.1908 13.0478L13.1908 0ZM0 0.0420627L5.07694 0.0420627C9.16962 0.0420627 11.9962 2.85184 11.9962 6.51548L11.9962 6.55334C11.9962 10.217 9.16962 13.0646 5.07694 13.0646L0 13.0646L0 0.0420627ZM20.6148 4.60586C20.6148 5.74155 19.7778 6.5828 18.3393 6.5828L16.0637 6.5828L16.0637 2.59106L18.2846 2.59106C19.7189 2.59106 20.6148 3.28089 20.6148 4.568L20.6148 4.60586ZM2.86446 10.4826L2.86446 2.63374L5.07695 2.63374C6.13332 2.58002 7.16303 2.97621 7.91097 3.72415C8.6589 4.47208 9.05509 5.50179 9.00137 6.55817L9.00137 6.59603C9.00137 8.90105 7.41982 10.4826 5.07694 10.4826L2.86446 10.4826Z" id="Shape" fill="#000000" fill-rule="evenodd" stroke="none" />
    </g>
    <path d="M0 0L19.5717 0L19.5717 3.25985L0 3.25985L0 0Z" transform="translate(4.891876 44.68719)" id="Shape" fill="#000000" stroke="none" />
    <g id="Group" transform="translate(64.1958 0)">
      <path d="M0 34.5081L0 34.3777C0 21.0313 8.72376 13.7208 18.1962 13.7208C24.2364 13.7208 27.9631 16.4801 30.6467 19.6852L30.6467 0L41.9826 0L41.9826 54.4163L30.6467 54.4163L30.6467 48.6789C27.8874 52.4057 24.085 55.165 18.1962 55.165C8.87518 55.165 0 47.8377 0 34.5081ZM43.3202 34.6553L43.3202 34.5081C43.3202 23.025 52.5739 13.7039 65.0202 13.7039C77.3992 13.7039 86.5689 22.8778 86.5689 34.3608L86.5689 34.5081C86.5689 45.9911 77.3151 55.3122 64.8688 55.3122C52.4898 55.3122 43.3202 46.1552 43.3202 34.6553ZM30.7982 34.3777L30.7982 34.5081C30.7982 41.1455 26.3942 45.5621 21.1028 45.5621C15.8113 45.5621 11.3358 41.1624 11.3358 34.5249L11.3358 34.3777C11.3358 27.6477 15.8492 23.3405 21.1238 23.3405C26.3984 23.3405 30.7982 27.7402 30.7982 34.3777ZM75.3844 34.5081L75.3844 34.6553C75.3844 40.5483 71.5063 45.5453 65.0202 45.5411C58.7529 45.5411 54.5046 40.3926 54.5046 34.5039L54.5046 34.3567C54.5046 28.4679 58.3828 23.4709 64.8688 23.4709C71.1361 23.4709 75.3844 28.6193 75.3844 34.5081Z" transform="translate(0 0.01681519)" id="Shape" fill="#FFFFFF" fill-rule="evenodd" stroke="none" />
      <path d="M27.4416 0L48.763 0C61.2135 0 68.7469 7.38197 68.7469 18.0448L68.7469 18.192C68.7469 30.2724 59.3502 36.5355 47.6442 36.5355L38.9246 36.5355L38.9246 52.1954L27.4416 52.1954L27.4416 0ZM4.75306 21.9356L4.75306 40.8637C4.75304 50.1091 9.46826 52.8684 16.417 52.8684C20.2194 52.8684 22.9787 51.9724 25.3637 50.5549L25.3637 41.4568C23.6466 42.3911 21.7199 42.8731 19.7652 42.8575C17.2288 42.8575 16.1099 41.5872 16.1099 38.9793L16.1099 21.9019L25.5067 21.9019L25.5067 12.2276L16.1099 12.2276L16.1099 2.01059L4.75306 2.01059L4.75306 12.2612L0 12.2612L0 21.9356L4.75306 21.9356ZM57.1167 18.4192C57.1167 22.8946 53.7601 26.3227 48.0185 26.3227L48.0185 26.3311L38.9204 26.3311L38.9204 10.3726L47.7956 10.3726C53.5371 10.3726 57.1167 13.1319 57.1167 18.2762L57.1167 18.4192Z" transform="translate(84.99991 2.237732)" id="Shape" fill="#FFFFFF" fill-rule="evenodd" stroke="none" />
      <path d="M92.3146 0L80.9788 0L80.9788 54.4331L92.3104 54.4331L92.3104 42.277L96.3358 38.0287L106.553 54.4331L119.676 54.4331L103.941 30.1883L119.159 14.4821L105.59 14.4821L92.3146 29.0231L92.3146 0ZM0 34.5249L0 34.6721C-2.56729e-05 46.9039 8.87518 55.329 20.8798 55.3122C28.1104 55.3122 33.4817 52.4814 37.2085 47.8545L30.7014 42.1298C27.5888 45.0363 24.8127 46.2309 21.027 46.2309C15.9585 46.2309 12.379 43.5473 11.2601 38.4031L39.0845 38.4031C39.156 37.3599 39.2317 36.3168 39.2317 35.4208C39.2317 24.085 33.1158 13.7208 19.7694 13.7208C8.12648 13.7208 0 23.1176 0 34.5249ZM40.338 34.5249L40.338 34.6721C40.338 46.9039 49.2131 55.329 61.2094 55.329C68.4525 55.329 73.8281 52.4814 77.5464 47.8545L71.0394 42.1298C67.9268 45.0363 65.1506 46.2309 61.365 46.2309C56.2965 46.2309 52.717 43.5473 51.5981 38.4031L79.4225 38.4031C79.494 37.3599 79.5697 36.3168 79.5697 35.4208C79.5697 24.085 73.4538 13.7208 60.1074 13.7208C48.4645 13.7208 40.338 23.1176 40.338 34.5249ZM28.1819 31.3071C27.5089 26.2386 24.5267 22.8063 19.7694 22.8063C15.071 22.8063 12.0131 26.1713 11.1213 31.3071L28.1819 31.3071ZM68.5198 31.3071C67.8469 26.2386 64.8646 22.8063 60.1073 22.8063C55.409 22.8063 52.351 26.1713 51.4593 31.3071L68.5198 31.3071Z" transform="translate(152.6279 0)" id="Shape" fill="#FFFFFF" fill-rule="evenodd" stroke="none" />
    </g>
  </g>
</svg>