<?xml version="1.0" encoding="utf-8"?>
<svg width="337px" height="54px" viewBox="0 0 337 54" version="1.1" xmlns:xlink="http://www.w3.org/1999/xlink" xmlns="http://www.w3.org/2000/svg">
  <desc>Created with Lunacy</desc>
  <g id="dottrace">
    <path d="M0 33.4696L0 33.3265C0 20.388 8.45887 13.3045 17.637 13.3045C23.4922 13.3045 27.1054 15.9797 29.7091 19.0882L29.7091 0L40.7002 0L40.7002 52.7723L29.7091 52.7723L29.7091 47.2031C27.0339 50.8163 23.3492 53.5126 17.637 53.5126C8.60189 53.4958 0 46.4081 0 33.4696ZM42.5762 33.6126L42.5762 33.4695C42.5762 22.3355 51.5398 13.3003 63.6077 13.3003C75.6083 13.3003 84.5004 22.1924 84.5004 33.3223L84.5004 33.4653C84.5004 44.5994 75.5368 53.6346 63.4689 53.6346C51.4641 53.6388 42.5762 44.7466 42.5762 33.6126ZM29.8648 33.3265L29.8648 33.4696L29.8563 33.4696C29.8563 39.9052 25.6038 44.1662 20.4721 44.1662C15.3404 44.1662 11.0037 39.9052 11.0037 33.4696L11.0037 33.3265C11.0037 26.8194 15.3362 22.6299 20.4679 22.6299C25.5996 22.6299 29.8648 26.8909 29.8648 33.3265ZM73.6608 33.4695L73.6608 33.6126L73.6776 33.6126C73.6776 39.3247 69.8919 44.1704 63.6119 44.1662C57.5422 44.1662 53.42 39.1817 53.42 33.4695L53.42 33.3265C53.42 27.6144 57.1595 22.7729 63.4689 22.7729C69.5386 22.7729 73.6608 27.7574 73.6608 33.4695Z" transform="translate(62.18597 0)" id="Shape" fill="#FFFFFF" fill-rule="evenodd" stroke="none" />
    <path d="M4.62693 37.6759L4.62693 19.3153L0 19.3153L0 9.91846L4.62693 9.91846L4.62693 0L15.6138 0L15.6138 9.90164L24.7204 9.90164L24.7204 19.2985L15.6138 19.2985L15.6138 35.8545C15.6138 38.3783 16.699 39.615 19.1555 39.615C21.0502 39.6237 22.916 39.1503 24.5774 38.2395L24.5774 47.0727C22.2639 48.4482 19.5887 49.3147 15.904 49.3147C9.18235 49.3147 4.62693 46.6395 4.62693 37.6759L4.62693 37.6759Z" transform="translate(145.7442 4.105347)" id="Shape" fill="#FFFFFF" stroke="none" />
    <path d="M15.3993 10.2634L0 10.2634L0 0L41.9284 0L41.9284 10.2634L26.5291 10.2634L26.5291 50.6018L15.3993 50.6018L15.3993 10.2634L15.3993 10.2634Z" transform="translate(167.5749 2.170441)" id="Shape" fill="#FFFFFF" stroke="none" />
    <path d="M58.8377 20.1692L58.8377 20.3122C58.8377 31.3748 67.368 40.3384 78.9859 40.3342C86.7213 40.3342 91.058 37.373 94.8184 33.2508L88.3827 26.7437C85.7075 29.2759 83.1796 30.8659 79.4906 30.8659C73.4924 30.8659 69.6605 26.0959 69.6605 20.1692L69.6605 20.0262C69.6605 14.314 73.5639 9.47259 79.0574 9.47259C82.9734 9.47259 85.4341 11.1341 87.8906 13.7378L94.6207 6.50715C91.0033 2.45648 86.4521 0 79.1499 0C67.2966 0 58.8377 9.11085 58.8377 20.1692ZM0 0.74178L10.9869 0.74178L10.9869 8.54868C13.2288 3.19826 16.842 -0.284557 23.3492 0.0182962L23.3492 11.5141L22.7729 11.5141C15.4708 11.5141 10.9953 15.9223 10.9953 25.1762L10.9953 39.4776L0 39.4776L0 0.74178ZM21.469 28.1948L21.469 28.3379C21.4689 36.0017 27.4671 40.1954 34.7693 40.1828C40.1197 40.1828 43.8044 38.21 46.4796 35.2656L46.4796 39.4719L57.1258 39.4719L57.1258 16.9935C57.1258 11.7818 55.8092 7.52086 52.9195 4.63113C50.1728 1.88442 45.8319 0.294434 39.8337 0.294434C33.255 0.294434 29.0613 1.52267 24.7961 3.40289L27.5429 11.7903C31.0888 10.4821 34.0332 9.68711 38.2395 9.68711C43.7329 9.68711 46.5511 12.2151 46.5511 16.7705L46.5511 17.4225C43.5125 16.3421 40.3076 15.8039 37.0828 15.8325C27.9046 15.8325 21.469 19.736 21.469 28.1948ZM46.7068 25.8145L46.7068 23.8628C44.5013 22.8889 42.1142 22.3943 39.7033 22.4116C35.0049 22.4116 32.132 24.2918 32.132 27.762L32.132 27.905C32.132 30.8494 34.5884 32.6035 38.1301 32.6035C43.2282 32.6035 46.6942 29.7853 46.6942 25.8103L46.7068 25.8145Z" transform="translate(205.5242 13.30032)" id="Shape" fill="#FFFFFF" fill-rule="evenodd" stroke="none" />
    <path d="M0 20.1692L0 20.3122C0 32.1698 8.60187 40.3385 20.2575 40.3132C27.2568 40.3132 32.4768 37.5623 36.0901 33.0826L29.7806 27.5176C26.7437 30.3359 24.0685 31.4926 20.3837 31.4926C15.4708 31.4926 12.0006 28.9099 10.9153 23.9212L37.8777 23.9212C37.9492 22.9117 38.0208 21.898 38.0208 21.0315C38.0208 10.0489 32.0941 0 19.1555 0C7.8784 0 0 9.11085 0 20.1692ZM19.1723 8.82062C23.7993 8.82062 26.689 12.1436 27.341 17.0608L10.785 17.0608C11.6557 12.0721 14.6169 8.82062 19.1723 8.82062Z" transform="translate(298.4792 13.30032)" id="Shape" fill="#FFFFFF" fill-rule="evenodd" stroke="none" />
    <g id="Group" transform="translate(0 2.174652)">
      <path d="M0 0L50.5934 0L50.5934 50.5934L0 50.5934L0 0Z" id="Shape" fill="#FFFFFF" stroke="none" />
      <path d="M4.9382 0L0 0L0 12.6904L4.9382 12.6904C8.91315 12.6904 11.6683 9.91846 11.6683 6.34731L11.6683 6.30945C11.6683 2.7383 8.92577 0 4.9382 0ZM12.9049 2.57426L16.7663 2.57426L16.7663 12.6904L19.5551 12.6904L19.5551 2.57426L23.4165 2.57426L23.4165 0L12.9049 0L12.9049 2.57426ZM2.79298 2.52849L2.79298 10.1756L4.9382 10.1756C7.22222 10.1756 8.76593 8.63605 8.76593 6.38988L8.76593 6.35202C8.81721 5.32236 8.43028 4.3191 7.70089 3.59051C6.97151 2.86192 5.96782 2.47609 4.9382 2.52849L2.79299 2.52849L2.79298 2.52849ZM0.00840799 34.7861L18.9788 34.7861L18.9788 37.9493L0.00840759 37.9493L0.00840799 34.7861Z" transform="translate(4.736298 6.683807)" id="Shape" fill="#000000" fill-rule="evenodd" stroke="none" />
    </g>
  </g>
</svg>