<?xml version="1.0" encoding="utf-8"?>
<svg width="303px" height="242px" viewBox="0 0 303 242" version="1.1" xmlns:xlink="http://www.w3.org/1999/xlink" xmlns="http://www.w3.org/2000/svg">
  <desc>Created with Lunacy</desc>
  <g id="Group">
    <g id="E">
      <path d="M7.79902 0L294.451 0C294.578 0 294.706 0.00313142 294.833 0.00939426C294.961 0.0156571 295.089 0.0250438 295.215 0.0375545C295.342 0.050065 295.469 0.0656844 295.596 0.0844127C295.722 0.103141 295.847 0.124956 295.972 0.149857C296.097 0.174757 296.222 0.202714 296.346 0.233727C296.47 0.26474 296.593 0.298772 296.715 0.335823C296.837 0.372874 296.958 0.4129 297.079 0.455899C297.199 0.498899 297.318 0.544821 297.435 0.593666C297.553 0.64251 297.67 0.694218 297.785 0.74879C297.901 0.803362 298.015 0.860731 298.128 0.920899C298.24 0.981068 298.351 1.04396 298.46 1.10958C298.57 1.1752 298.678 1.24346 298.784 1.31437C298.89 1.38528 298.994 1.45876 299.097 1.53479C299.2 1.61082 299.3 1.68933 299.399 1.7703C299.497 1.85127 299.594 1.93461 299.689 2.02033C299.783 2.10604 299.875 2.19403 299.966 2.28428C300.056 2.37453 300.144 2.46694 300.23 2.56152C300.316 2.65609 300.399 2.75271 300.479 2.85138C300.561 2.95004 300.639 3.05063 300.715 3.15315C300.791 3.25567 300.865 3.35999 300.936 3.46612C301.007 3.57224 301.075 3.68004 301.14 3.78952C301.206 3.899 301.269 4.01003 301.33 4.12259C301.389 4.23516 301.447 4.34913 301.501 4.46452C301.556 4.5799 301.607 4.69655 301.656 4.81446C301.705 4.93238 301.751 5.05144 301.794 5.17161C301.837 5.29179 301.878 5.41294 301.915 5.53508C301.952 5.65723 301.985 5.7802 302.016 5.90402C302.047 6.02783 302.075 6.15232 302.1 6.27751C302.125 6.40269 302.147 6.52841 302.165 6.65467C302.184 6.78092 302.2 6.90756 302.213 7.03459C302.225 7.16161 302.234 7.28886 302.24 7.41635C302.247 7.54383 302.25 7.67139 302.25 7.79903C302.25 7.79903 302.25 234.001 302.25 234.001C302.25 234.128 302.247 234.256 302.24 234.383C302.234 234.511 302.225 234.639 302.213 234.765C302.2 234.892 302.184 235.019 302.165 235.146C302.147 235.272 302.125 235.397 302.1 235.522C302.075 235.647 302.047 235.772 302.016 235.896C301.985 236.02 301.952 236.143 301.915 236.265C301.878 236.387 301.837 236.508 301.794 236.629C301.751 236.749 301.705 236.868 301.656 236.985C301.607 237.103 301.556 237.22 301.501 237.335C301.447 237.451 301.389 237.565 301.33 237.678C301.269 237.79 301.206 237.901 301.14 238.01C301.075 238.12 301.007 238.228 300.936 238.334C300.865 238.44 300.791 238.544 300.715 238.647C300.639 238.75 300.561 238.85 300.479 238.949C300.399 239.047 300.316 239.144 300.23 239.239C300.144 239.333 300.056 239.425 299.966 239.516C299.875 239.606 299.783 239.694 299.689 239.78C299.594 239.866 299.497 239.949 299.399 240.029C299.3 240.111 299.2 240.189 299.097 240.265C298.994 240.341 298.89 240.415 298.784 240.486C298.678 240.557 298.57 240.625 298.46 240.69C298.351 240.756 298.24 240.819 298.128 240.879C298.015 240.939 297.901 240.997 297.785 241.051C297.67 241.106 297.553 241.157 297.435 241.206C297.318 241.255 297.199 241.301 297.079 241.344C296.958 241.387 296.837 241.428 296.715 241.465C296.593 241.502 296.47 241.535 296.346 241.566C296.222 241.597 296.097 241.625 295.972 241.65C295.847 241.675 295.722 241.697 295.596 241.715C295.469 241.734 295.342 241.75 295.215 241.762C295.089 241.775 294.961 241.784 294.833 241.79C294.706 241.797 294.578 241.8 294.451 241.8C294.451 241.8 7.79902 241.8 7.79902 241.8C7.67139 241.8 7.54383 241.797 7.41635 241.79C7.28886 241.784 7.16161 241.775 7.03459 241.762C6.90756 241.75 6.78092 241.734 6.65467 241.715C6.52841 241.697 6.40269 241.675 6.27751 241.65C6.15233 241.625 6.02783 241.597 5.90402 241.566C5.7802 241.535 5.65723 241.502 5.53508 241.465C5.41294 241.428 5.29179 241.387 5.17161 241.344C5.05144 241.301 4.93238 241.255 4.81446 241.206C4.69655 241.157 4.5799 241.106 4.46452 241.051C4.34913 240.997 4.23516 240.939 4.12259 240.879C4.01003 240.819 3.899 240.756 3.78952 240.69C3.68004 240.625 3.57224 240.557 3.46612 240.486C3.35999 240.415 3.25567 240.341 3.15315 240.265C3.05063 240.189 2.95004 240.111 2.85138 240.029C2.75271 239.949 2.6561 239.866 2.56152 239.78C2.46694 239.694 2.37453 239.606 2.28428 239.516C2.19403 239.425 2.10604 239.333 2.02033 239.239C1.93461 239.144 1.85127 239.047 1.7703 238.949C1.68933 238.85 1.61082 238.75 1.53479 238.647C1.45876 238.544 1.38528 238.44 1.31437 238.334C1.24346 238.228 1.1752 238.12 1.10958 238.01C1.04396 237.901 0.981068 237.79 0.920899 237.678C0.860731 237.565 0.803362 237.451 0.74879 237.335C0.694218 237.22 0.64251 237.103 0.593666 236.985C0.544821 236.868 0.498899 236.749 0.455899 236.629C0.4129 236.508 0.372874 236.387 0.335823 236.265C0.298772 236.143 0.26474 236.02 0.233727 235.896C0.202714 235.772 0.174757 235.647 0.149857 235.522C0.124956 235.397 0.103141 235.272 0.0844127 235.146C0.0656844 235.019 0.050065 234.892 0.0375545 234.765C0.0250438 234.639 0.0156571 234.511 0.00939426 234.383C0.00313142 234.256 0 234.128 0 234.001C0 234.001 0 7.79903 0 7.79903C0 7.67139 0.00313142 7.54383 0.00939426 7.41635C0.0156571 7.28886 0.0250438 7.16161 0.0375545 7.03459C0.050065 6.90756 0.0656844 6.78092 0.0844127 6.65467C0.103141 6.52841 0.124956 6.40269 0.149857 6.27751C0.174757 6.15232 0.202714 6.02783 0.233727 5.90402C0.26474 5.7802 0.298772 5.65723 0.335823 5.53508C0.372874 5.41294 0.4129 5.29179 0.455899 5.17161C0.498899 5.05144 0.544821 4.93238 0.593666 4.81446C0.64251 4.69655 0.694218 4.5799 0.74879 4.46452C0.803362 4.34913 0.860731 4.23516 0.920899 4.12259C0.981068 4.01003 1.04396 3.899 1.10958 3.78952C1.1752 3.68004 1.24346 3.57224 1.31437 3.46612C1.38528 3.35999 1.45876 3.25567 1.53479 3.15315C1.61082 3.05063 1.68933 2.95004 1.7703 2.85138C1.85127 2.75271 1.93461 2.65609 2.02033 2.56152C2.10604 2.46694 2.19403 2.37453 2.28428 2.28428C2.37453 2.19403 2.46694 2.10604 2.56152 2.02033C2.6561 1.93461 2.75271 1.85127 2.85138 1.7703C2.95004 1.68933 3.05063 1.61082 3.15315 1.53479C3.25567 1.45876 3.35999 1.38528 3.46612 1.31437C3.57224 1.24346 3.68004 1.1752 3.78952 1.10958C3.899 1.04396 4.01003 0.981068 4.12259 0.920899C4.23516 0.860731 4.34913 0.803362 4.46452 0.74879C4.5799 0.694218 4.69655 0.64251 4.81446 0.593666C4.93238 0.544821 5.05144 0.498899 5.17161 0.455899C5.29179 0.4129 5.41294 0.372874 5.53508 0.335823C5.65723 0.298772 5.7802 0.26474 5.90402 0.233727C6.02783 0.202714 6.15233 0.174757 6.27751 0.149857C6.40269 0.124956 6.52841 0.103141 6.65467 0.0844127C6.78092 0.0656844 6.90756 0.050065 7.03459 0.0375545C7.16161 0.0250438 7.28886 0.0156571 7.41635 0.00939426C7.54383 0.00313142 7.67139 0 7.79902 0C7.79902 0 7.79902 0 7.79902 0L7.79902 0Z" id="Rectangle" fill="#FFFFFF" stroke="none" />
    </g>
    <g id="E" transform="translate(11 11.80002)">
      <path d="M122.7 53.4L122.7 101.6L176.3 101.6L176.3 115.6L122.7 115.6L122.7 164.8L182.3 164.8L182.3 179.6L104.5 179.6L104.5 38.6L182.3 38.6L182.3 53.4L122.7 53.4Z" />
    </g>
  </g>
</svg>