<?xml version="1.0" encoding="utf-8"?>
<svg width="337px" height="337px" viewBox="0 0 337 337" version="1.1" xmlns:xlink="http://www.w3.org/1999/xlink" xmlns="http://www.w3.org/2000/svg">
  <desc>Created with Lunacy</desc>
  <g id="git-icon">
    <g id="git-icon">
      <path d="M330.155 153.257L183.235 6.34586C174.779 -2.11529 161.056 -2.11529 152.59 6.34586L122.081 36.8544L160.783 75.5558C169.776 72.5168 180.09 74.5555 187.259 81.7245C194.462 88.9396 196.486 99.3409 193.374 108.363L230.671 145.662C239.695 142.554 250.107 144.565 257.314 151.784C267.387 161.853 267.387 178.172 257.314 188.247C247.239 198.323 230.92 198.323 220.839 188.247C213.263 180.662 211.391 169.536 215.226 160.202L180.443 125.418L180.439 216.953C182.961 218.2 185.264 219.847 187.259 221.83C197.331 231.899 197.331 248.219 187.259 258.302C177.183 268.373 160.857 268.373 150.796 258.302C140.723 248.219 140.723 231.9 150.796 221.831C153.21 219.416 156.078 217.504 159.236 216.204L159.236 123.816C156.074 122.525 153.203 120.612 150.796 118.189C143.164 110.568 141.329 99.3698 145.239 89.999L107.089 51.8444L6.34881 152.578C-2.11627 161.047 -2.11627 174.771 6.34881 183.234L153.271 330.148C161.729 338.61 175.45 338.61 183.919 330.148L330.153 183.916C338.616 175.451 338.616 161.718 330.153 153.257" id="Shape" fill="#FFFFFF" stroke="none" />
    </g>
  </g>
</svg>