<?xml version="1.0" encoding="utf-8"?>
<svg width="239px" height="337px" viewBox="0 0 239 337" version="1.1" xmlns:xlink="http://www.w3.org/1999/xlink" xmlns="http://www.w3.org/2000/svg">
  <desc>Created with Lunacy</desc>
  <g id="HTML-5-01">
    <g id="HTML-5-01">
      <g id="HTML-5-01">
        <g id="XMLID_1_">
          <path d="M21.6855 243.402L0 0L238.354 0L216.669 243.307L118.99 270.415L21.6855 243.402L21.6855 243.402L21.6855 243.402Z" transform="translate(0 66.08475)" id="XMLID_11_" fill="#FFFFFF" stroke="none" />
          <path d="M0 229.848L78.8903 207.976L97.4917 0L0 0L0 229.848L0 229.848L0 229.848Z" transform="translate(119.1771 85.99432)" id="XMLID_10_" fill="#515151" stroke="none" />
          <path d="M74.8712 60.383L35.3325 60.383L32.6217 29.8176L74.8712 29.8176L74.8712 0L74.7777 0L0 0L0.747779 7.94512L8.0386 90.2006L74.8712 90.2006L74.8712 60.383L74.8712 60.383L74.8712 60.383Z" transform="translate(44.30579 115.9054)" id="XMLID_9_" fill="#000000" stroke="none" />
          <path d="M65.4305 32.7152L65.3371 32.8087L32.061 23.742L29.9111 0L13.7404 0L0 0L4.11276 46.8296L65.3371 63.8415L65.4305 63.748L65.4305 32.7152L65.4305 32.7152L65.4305 32.7152Z" transform="translate(53.74649 221.0616)" id="XMLID_8_" fill="#000000" stroke="none" />
          <path d="M0 0L15.1424 0L15.1424 14.9555L28.9764 14.9555L28.9764 0L44.1188 0L44.1188 45.334L28.9764 45.334L28.9764 30.098L15.1424 30.098L15.1424 45.334L0 45.334L0 0L0 0L0 0L0 0L0 0Z" transform="translate(22.15289 0)" id="XMLID_7_" fill="#FFFFFF" stroke="none" />
          <path d="M13.3665 15.049L0 15.049L0 0L41.8755 0L41.8755 15.049L28.509 15.049L28.509 45.334L13.3665 45.334L13.3665 15.049L13.3665 15.049L13.3665 15.049L13.3665 15.049L13.3665 15.049Z" transform="translate(72.90825 0)" id="XMLID_6_" fill="#FFFFFF" stroke="none" />
          <path d="M0.0934775 0L15.8903 0L25.6114 15.9837L35.3325 0L51.1293 0L51.1293 45.334L36.0802 45.334L36.0802 22.9007L25.6114 39.0713L25.331 39.0713L14.8621 22.9007L14.8621 45.4274L0 45.4274L0 0L0.0934775 0L0.0934775 0L0.0934775 0Z" transform="translate(121.4204 0)" id="XMLID_5_" fill="#FFFFFF" stroke="none" />
          <path d="M0 0L15.1425 0L15.1425 30.3785L36.4541 30.3785L36.4541 45.334L0 45.334L0 0L0 0L0 0L0 0Z" transform="translate(180.1209 0)" id="XMLID_4_" fill="#FFFFFF" stroke="none" />
          <path d="M0 0L0 29.8176L36.7346 29.8176L33.2761 68.5151L0 77.488L0 108.615L61.1307 91.6025L61.5981 86.555L68.6085 8.0386L69.3563 0L61.3177 0L0 0L0 0L0 0Z" transform="translate(119.0836 176.2884)" id="XMLID_3_" fill="#000000" stroke="none" />
          <path d="M0 0L0 18.5075L0 29.7241L0 29.8176L71.9735 29.8176L71.9735 29.8176L72.067 29.8176L72.7213 23.0876L74.0299 7.94512L74.7777 0L0 0L0 0L0 0Z" transform="translate(119.0836 115.9054)" id="XMLID_2_" fill="#000000" stroke="none" />
        </g>
      </g>
    </g>
  </g>
</svg>