<?xml version="1.0" encoding="utf-8"?>
<svg width="319px" height="450px" viewBox="0 0 319 450" version="1.1" xmlns:xlink="http://www.w3.org/1999/xlink" xmlns="http://www.w3.org/2000/svg">
  <desc>Created with Lunacy</desc>
  <g id="HTML-5-01">
    <g id="XMLID_1_">
      <path d="M28.9962 325.458L0 0L318.708 0L289.712 325.332L159.104 361.578L28.9962 325.458Z" transform="translate(0 88.3634)" id="XMLID_11_" fill="#292929" stroke="none" />
      <path d="M0 307.335L105.486 278.089L130.358 0L0 0L0 307.335Z" transform="translate(159.3544 114.985)" id="XMLID_10_" fill="#323232" stroke="none" />
      <path d="M100.112 80.7394L47.2438 80.7394L43.6193 39.8698L100.112 39.8698L100.112 0L99.9869 0L0 0L0.999873 10.6236L10.7486 120.609L100.112 120.609L100.112 80.7394Z" transform="translate(59.24228 154.9798)" id="XMLID_9_" fill="#686868" stroke="none" />
      <path d="M87.4886 43.7443L87.3636 43.8693L42.8694 31.7459L39.9948 0L18.3726 0L0 0L5.49927 62.6169L87.3636 85.3639L87.4886 85.2389L87.4886 43.7443Z" transform="translate(71.86564 295.5864)" id="XMLID_8_" fill="#686868" stroke="none" />
      <path d="M0 0L20.2473 0L20.2473 19.9974L38.7449 19.9974L38.7449 0L58.9923 0L58.9923 60.6171L38.7449 60.6171L38.7449 40.2447L20.2473 40.2447L20.2473 60.6171L0 60.6171L0 0L0 0L0 0Z" transform="translate(29.62114 0)" id="XMLID_7_" fill="#686868" stroke="none" />
      <path d="M17.8727 20.1224L0 20.1224L0 0L55.9927 0L55.9927 20.1224L38.12 20.1224L38.12 60.6171L17.8727 60.6171L17.8727 20.1224L17.8727 20.1224L17.8727 20.1224Z" transform="translate(97.48728 0)" id="XMLID_6_" fill="#686868" stroke="none" />
      <path d="M0.124991 0L21.2472 0L34.2455 21.3722L47.2438 0L68.3661 0L68.3661 60.6171L48.2437 60.6171L48.2437 30.621L34.2455 52.2432L33.8706 52.2432L19.8724 30.621L19.8724 60.742L0 60.742L0 0L0.124991 0Z" transform="translate(162.3539 0)" id="XMLID_5_" fill="#686868" stroke="none" />
      <path d="M0 0L20.2474 0L20.2474 40.6197L48.7436 40.6197L48.7436 60.6171L0 60.6171L0 0L0 0Z" transform="translate(240.8438 0)" id="XMLID_4_" fill="#686868" stroke="none" />
      <path d="M0 0L0 39.8698L49.1186 39.8698L44.4942 91.613L0 103.611L0 145.231L81.7393 122.484L82.3642 115.735L91.738 10.7486L92.7379 0L81.9893 0L0 0Z" transform="translate(159.2294 235.7192)" id="XMLID_3_" fill="#686868" stroke="none" />
      <path d="M0 0L0 24.7468L0 39.7448L0 39.8698L96.2374 39.8698L96.2374 39.8698L96.3624 39.8698L97.2373 30.871L98.9871 10.6236L99.9869 0L0 0Z" transform="translate(159.2294 154.9798)" id="XMLID_2_" fill="#686868" stroke="none" />
    </g>
  </g>
</svg>