<?xml version="1.0" encoding="utf-8"?>
<svg width="1280px" height="1280px" viewBox="0 0 1280 1280" version="1.1" xmlns:xlink="http://www.w3.org/1999/xlink" xmlns="http://www.w3.org/2000/svg">
  <desc>Created with Lunacy</desc>
  <defs>
    <rect width="1280" height="1280" id="artboard_1" />
    <clipPath id="clip_1">
      <use xlink:href="#artboard_1" clip-rule="evenodd" />
    </clipPath>
  </defs>
  <g id="HD" clip-path="url(#clip_1)">
    <use xlink:href="#artboard_1" stroke="none" fill="#000000" />
    <g id="icons8_info" transform="translate(956 -80)">
      <path d="M218.5 0C97.8957 0 0 97.8957 0 218.5C0 339.104 97.8957 437 218.5 437C339.104 437 437 339.104 437 218.5C437 97.8957 339.104 0 218.5 0ZM423.758 218.5C423.758 105.06 331.94 13.2424 218.5 13.2424C105.06 13.2424 13.2424 105.06 13.2424 218.5C13.2424 331.94 105.06 423.758 218.5 423.758C331.94 423.758 423.758 331.94 423.758 218.5ZM218.5 33.1061C214.853 33.1061 211.879 36.0804 211.879 39.7273C211.879 43.3741 214.853 46.3485 218.5 46.3485C222.147 46.3485 225.121 43.3741 225.121 39.7273C225.121 36.0804 222.147 33.1061 218.5 33.1061ZM246.997 41.8759C247.643 38.6946 250.437 36.4445 253.67 36.5221C254.058 36.5479 254.42 36.5997 254.808 36.6514C258.377 37.3756 260.705 40.8672 260.006 44.4623C259.282 48.0316 255.791 50.3593 252.221 49.661C248.626 48.9368 246.298 45.4452 246.997 41.8759ZM183.793 36.546C183.353 36.546 182.914 36.5719 182.474 36.6495C178.879 37.3736 176.551 40.8653 177.275 44.4604C177.611 46.1675 178.62 47.6934 180.094 48.6763C181.543 49.6333 183.327 49.9953 185.06 49.6591C188.655 48.9349 190.983 45.4691 190.259 41.874C189.638 38.7962 186.948 36.5719 183.793 36.546ZM287.57 46.7118C284.828 46.6601 282.345 48.2637 281.285 50.7983C279.888 54.1865 281.492 58.0403 284.88 59.4628C288.268 60.8595 292.122 59.2559 293.519 55.8677C294.941 52.4795 293.337 48.6258 289.949 47.2032C289.199 46.8929 288.372 46.7377 287.57 46.7118ZM148.074 47.202C148.901 46.8658 149.781 46.7106 150.66 46.7106C153.324 46.7365 155.704 48.34 156.738 50.7971C158.135 54.1852 156.531 58.0389 153.143 59.4615C149.755 60.8581 145.901 59.2545 144.505 55.8664C143.082 52.4782 144.686 48.6245 148.074 47.202ZM116.606 64.3499C117.718 63.5999 119.037 63.2119 120.382 63.2119C122.555 63.2378 124.598 64.3499 125.814 66.1862C127.831 69.2123 127.029 73.3246 123.977 75.342C120.926 77.3852 116.813 76.5576 114.796 73.5315C112.753 70.4796 113.58 66.3673 116.606 64.3499ZM319.045 63.2123C316.795 63.1865 314.674 64.2986 313.432 66.1867C311.389 69.2128 312.217 73.3252 315.243 75.3426C318.295 77.3858 322.407 76.5582 324.424 73.5321C325.407 72.0837 325.769 70.2732 325.433 68.5662C325.097 66.8333 324.088 65.3073 322.614 64.3504C321.554 63.6262 320.338 63.2382 319.045 63.2123ZM89.3605 87.4207C90.602 86.1534 92.3349 85.455 94.1196 85.455C95.8525 85.4809 97.4819 86.1792 98.6976 87.4207C101.284 89.9812 101.284 94.1971 98.6976 96.7576C96.137 99.344 91.9211 99.344 89.3605 96.7576C86.7741 94.1971 86.7741 89.9812 89.3605 87.4207ZM346.941 85.455C345.157 85.455 343.424 86.1534 342.182 87.4207C339.596 89.9812 339.596 94.1971 342.182 96.7576C344.743 99.344 348.959 99.344 351.519 96.7576C354.105 94.1971 354.105 89.9812 351.519 87.4207C350.303 86.1792 348.674 85.4809 346.941 85.455ZM192.015 132.424C192.015 117.863 203.939 105.939 218.5 105.939C233.061 105.939 244.985 117.863 244.985 132.424C244.985 146.986 233.061 158.909 218.5 158.909C203.939 158.909 192.015 146.986 192.015 132.424ZM65.4602 115.485C66.7017 113.623 68.8226 112.511 71.0727 112.562C72.3659 112.588 73.5815 112.976 74.642 113.674C77.6939 115.692 78.4957 119.804 76.4783 122.856C74.435 125.882 70.3485 126.71 67.2966 124.667C64.2446 122.649 63.4428 118.537 65.4602 115.485ZM368.342 112.562C366.997 112.536 365.704 112.924 364.591 113.674C361.565 115.691 360.738 119.804 362.781 122.83C364.798 125.882 368.911 126.71 371.937 124.666C374.989 122.623 375.816 118.536 373.773 115.484C372.558 113.674 370.514 112.562 368.342 112.562ZM218.5 119.182C225.897 119.182 231.742 125.027 231.742 132.424C231.742 139.821 225.897 145.667 218.5 145.667C211.103 145.667 205.258 139.821 205.258 132.424C205.258 125.027 211.103 119.182 218.5 119.182ZM53.9914 143.469C51.2499 143.418 48.767 145.021 47.7324 147.556C46.3357 150.944 47.9393 154.798 51.3016 156.22C54.6898 157.617 58.5694 156.014 59.966 152.625C61.3626 149.237 59.7591 145.383 56.3709 143.987C55.6209 143.65 54.8191 143.495 53.9914 143.469ZM381.638 143.962C382.465 143.626 383.345 143.445 384.224 143.471C386.888 143.471 389.268 145.1 390.302 147.531C391.699 150.919 390.095 154.799 386.707 156.196C383.319 157.592 379.465 155.989 378.043 152.601C376.646 149.238 378.25 145.359 381.638 143.962ZM392.663 177.124C393.103 177.047 393.543 176.995 393.982 177.021C397.138 177.021 399.854 179.245 400.474 182.323C401.173 185.918 398.845 189.41 395.25 190.134C391.681 190.832 388.189 188.504 387.465 184.909C386.766 181.34 389.094 177.848 392.663 177.124ZM43.4747 177.016C40.2417 176.938 37.4484 179.163 36.8018 182.318C36.4656 184.051 36.8018 185.861 37.7846 187.31C38.7675 188.784 40.2934 189.793 42.0263 190.129C43.7334 190.465 45.518 190.103 46.9922 189.146C48.4406 188.163 49.4493 186.637 49.7856 184.904C50.5097 181.335 48.182 177.844 44.6127 177.119C44.2248 177.068 43.8627 177.016 43.4747 177.016ZM198.636 331.061L198.636 185.394L238.364 185.394L238.364 331.061L198.636 331.061ZM225.121 198.636L225.121 317.818L211.879 317.818L211.879 198.636L225.121 198.636ZM33.1061 218.5C33.1061 214.853 36.0804 211.879 39.7273 211.879C43.3741 211.879 46.3485 214.853 46.3485 218.5C46.3485 222.147 43.3741 225.121 39.7273 225.121C36.0804 225.121 33.1061 222.147 33.1061 218.5ZM397.273 211.879C393.626 211.879 390.652 214.853 390.652 218.5C390.652 222.147 393.626 225.121 397.273 225.121C400.92 225.121 403.894 222.147 403.894 218.5C403.894 214.853 400.92 211.879 397.273 211.879ZM394.138 246.746C390.905 246.668 388.111 248.918 387.465 252.099C386.766 255.669 389.094 259.16 392.663 259.884C396.258 260.583 399.75 258.255 400.474 254.686C401.173 251.091 398.845 247.599 395.25 246.875C394.888 246.823 394.526 246.771 394.138 246.746ZM42.006 246.873C42.4457 246.795 42.8854 246.744 43.3251 246.744C46.4805 246.769 49.1703 248.994 49.7911 252.097C50.5153 255.667 48.1875 259.158 44.5924 259.883C40.9973 260.581 37.5315 258.253 36.8073 254.684C36.0831 251.089 38.4109 247.597 42.006 246.873ZM378.043 284.377C379.103 281.842 381.586 280.213 384.328 280.265C385.129 280.291 385.957 280.472 386.707 280.782C390.095 282.179 391.699 286.058 390.302 289.446C388.88 292.809 385.026 294.412 381.638 293.015C378.25 291.619 376.646 287.739 378.043 284.377ZM53.8653 280.289C52.9859 280.289 52.1065 280.445 51.2789 280.781C49.6753 281.453 48.3821 282.746 47.7097 284.376C47.0372 286.005 47.0372 287.816 47.6838 289.445C49.1063 292.833 52.96 294.437 56.3482 293.014C57.9776 292.368 59.2709 291.075 59.9433 289.445C60.6158 287.816 60.6158 286.005 59.9433 284.376C58.9346 281.919 56.5293 280.315 53.8653 280.289ZM362.781 314.121C364.022 312.259 366.143 311.147 368.393 311.199C369.661 311.199 370.902 311.587 371.937 312.311C374.989 314.328 375.816 318.441 373.773 321.467C372.816 322.941 371.29 323.95 369.557 324.286C367.85 324.648 366.04 324.286 364.591 323.303C361.565 321.26 360.738 317.173 362.781 314.121ZM71.0402 311.198C69.6953 311.172 68.402 311.56 67.2899 312.31C64.2638 314.354 63.4361 318.44 65.4535 321.492C67.4968 324.518 71.6092 325.346 74.6612 323.303C77.6873 321.285 78.5149 317.173 76.4717 314.121C75.2561 312.31 73.2128 311.224 71.0402 311.198ZM89.3605 340.243C90.602 338.976 92.3349 338.277 94.1196 338.303C95.8525 338.303 97.4819 339.002 98.6976 340.243C101.284 342.804 101.284 347.02 98.6976 349.58C96.137 352.166 91.9211 352.166 89.3605 349.58C86.7741 347.02 86.7741 342.804 89.3605 340.243ZM346.941 338.303C345.157 338.277 343.424 338.976 342.182 340.243C339.596 342.804 339.596 347.02 342.182 349.58C344.743 352.166 348.959 352.166 351.519 349.58C354.105 347.02 354.105 342.804 351.519 340.243C350.303 339.002 348.674 338.303 346.941 338.303ZM114.82 363.444C116.062 361.582 118.183 360.47 120.433 360.522C121.7 360.522 122.942 360.935 124.002 361.634C127.028 363.677 127.856 367.764 125.813 370.815C123.795 373.842 119.683 374.669 116.657 372.652C113.605 370.609 112.777 366.496 114.82 363.444ZM318.018 360.521C316.673 360.495 315.38 360.883 314.268 361.607C312.794 362.59 311.785 364.116 311.449 365.849C311.113 367.556 311.475 369.367 312.457 370.815C314.475 373.841 318.587 374.669 321.639 372.651C324.665 370.608 325.493 366.496 323.45 363.444C322.26 361.633 320.217 360.521 318.018 360.521ZM144.49 381.135C145.525 378.6 148.008 376.971 150.749 377.022C151.577 377.048 152.379 377.229 153.129 377.54C156.517 378.936 158.12 382.816 156.724 386.204C155.327 389.567 151.448 391.17 148.059 389.773C144.697 388.377 143.093 384.497 144.49 381.135ZM287.444 377.021C286.565 377.021 285.685 377.202 284.884 377.538C283.254 378.211 281.961 379.504 281.288 381.108C280.616 382.737 280.616 384.574 281.263 386.203C282.685 389.565 286.539 391.169 289.927 389.772C291.557 389.1 292.85 387.807 293.522 386.203C294.195 384.574 294.195 382.737 293.522 381.134C292.513 378.651 290.108 377.047 287.444 377.021ZM177.275 392.542C177.896 389.386 180.715 387.136 183.948 387.214C184.31 387.214 184.698 387.265 185.06 387.343C188.655 388.067 190.983 391.533 190.259 395.128C189.535 398.723 186.069 401.051 182.474 400.327C178.879 399.603 176.551 396.137 177.275 392.542ZM253.514 387.244C253.075 387.218 252.635 387.27 252.221 387.348C248.626 388.072 246.298 391.538 246.997 395.133C247.359 396.866 248.368 398.366 249.816 399.349C251.29 400.331 253.075 400.693 254.808 400.357C256.515 399.995 258.041 398.986 259.023 397.538C259.98 396.064 260.342 394.279 260.006 392.546C259.385 389.468 256.67 387.244 253.514 387.244ZM211.879 397.273C211.879 393.626 214.853 390.652 218.5 390.652C222.147 390.652 225.121 393.626 225.121 397.273C225.121 400.92 222.147 403.894 218.5 403.894C214.853 403.894 211.879 400.92 211.879 397.273Z" id="Shape" fill="#FFFFFF" fill-rule="evenodd" stroke="none" />
    </g>
  </g>
</svg>