<?xml version="1.0" encoding="utf-8"?>
<svg width="321px" height="321px" viewBox="0 0 321 321" version="1.1" xmlns:xlink="http://www.w3.org/1999/xlink" xmlns="http://www.w3.org/2000/svg">
  <desc>Created with Lunacy</desc>
  <g id="javascript">
    <path d="M0 0L321 0L321 321L0 321L0 0L0 0Z" id="Shape" fill="#686868" stroke="none" />
    <path d="M0.00126278 122.606L24.5653 107.739C29.305 116.142 33.616 123.251 43.9569 123.251C53.8691 123.251 60.1198 119.374 60.1198 104.292L60.1198 1.7254L90.285 1.7254L90.285 104.719C90.285 135.962 71.9705 150.184 45.2497 150.184C21.1183 150.184 7.11091 137.686 0 122.603M106.67 119.373L131.231 105.153C137.698 115.712 146.101 123.468 160.968 123.468C173.468 123.468 181.438 117.219 181.438 108.6C181.438 98.2573 173.25 94.5934 159.459 88.5621L151.92 85.3271C130.155 76.0645 115.719 64.4282 115.719 39.8642C115.719 17.2387 132.957 0 159.892 0C179.069 0 192.86 6.68082 202.77 24.1339L179.282 39.2184C174.11 29.9533 168.51 26.2907 159.891 26.2907C151.056 26.2907 145.453 31.8931 145.453 39.2184C145.453 48.2679 151.056 51.933 163.983 57.5355L171.524 60.7668C197.167 71.7573 211.603 82.9609 211.603 108.169C211.603 135.322 190.272 150.188 161.613 150.188C133.602 150.188 115.502 136.829 106.669 119.374" transform="translate(84.40167 145.645)" id="Shape" fill="#000000" stroke="none" />
  </g>
</svg>