<?xml version="1.0" encoding="utf-8"?>
<svg width="337px" height="337px" viewBox="0 0 337 337" version="1.1" xmlns:xlink="http://www.w3.org/1999/xlink" xmlns="http://www.w3.org/2000/svg">
  <desc>Created with Lunacy</desc>
  <g id="javascript">
    <g id="javascript">
      <path d="M0 0L336.5 0L336.5 336.5L0 336.5L0 0L0 0L0 0Z" id="Shape" fill="#FFFFFF" stroke="none" />
      <path d="M0.00132376 128.526L25.7515 112.941C30.72 121.75 35.2392 129.202 46.0794 129.202C56.4703 129.202 63.0228 125.138 63.0228 109.328L63.0228 1.80872L94.6446 1.80872L94.6446 109.776C94.6446 142.527 75.4457 157.436 47.4347 157.436C22.138 157.436 7.45427 144.334 0 128.523M111.821 125.137L137.568 110.23C144.347 121.299 153.156 129.43 168.741 129.43C181.844 129.43 190.199 122.879 190.199 113.844C190.199 103.002 181.616 99.161 167.159 92.8385L159.256 89.4473C136.44 79.7374 121.307 67.5392 121.307 41.7891C121.307 18.0711 139.377 0 167.613 0C187.716 0 202.173 7.00341 212.561 25.2992L187.939 41.1121C182.517 31.3996 176.647 27.5602 167.612 27.5602C158.35 27.5602 152.476 33.4331 152.476 41.1121C152.476 50.5986 158.35 54.4407 171.901 60.3137L179.806 63.701C206.688 75.2222 221.821 86.9668 221.821 113.392C221.821 141.856 199.46 157.44 169.417 157.44C140.053 157.44 121.079 143.436 111.82 125.138" transform="translate(88.47714 152.6777)" id="Shape" fill="#000000" stroke="none" />
    </g>
  </g>
</svg>