<?xml version="1.0" encoding="utf-8"?>
<svg width="326px" height="188px" viewBox="0 0 326 188" version="1.1" xmlns:xlink="http://www.w3.org/1999/xlink" xmlns="http://www.w3.org/2000/svg">
  <desc>Created with Lunacy</desc>
  <g id="Group">
    <path d="M7.999 0L318.001 0Q318.197 0 318.393 0.00963514Q318.59 0.0192703 318.785 0.0385174Q318.98 0.0577644 319.175 0.0865771Q319.369 0.11539 319.561 0.153699Q319.754 0.192007 319.945 0.23972Q320.135 0.287433 320.323 0.344434Q320.511 0.401436 320.696 0.467589Q320.881 0.533742 321.062 0.608888Q321.243 0.684033 321.421 0.76799Q321.598 0.851946 321.772 0.944512Q321.945 1.03708 322.113 1.13803Q322.282 1.23898 322.445 1.34807Q322.608 1.45717 322.766 1.57414Q322.924 1.69112 323.076 1.81569Q323.227 1.94026 323.373 2.07213Q323.518 2.204 323.657 2.34285Q323.796 2.4817 323.928 2.6272Q324.06 2.7727 324.184 2.92449Q324.309 3.07628 324.426 3.234Q324.543 3.39172 324.652 3.55499Q324.761 3.71826 324.862 3.88669Q324.963 4.05512 325.055 4.2283Q325.148 4.40148 325.232 4.57899Q325.316 4.7565 325.391 4.93791Q325.466 5.11933 325.532 5.30422Q325.599 5.4891 325.656 5.67701Q325.713 5.86492 325.76 6.0554Q325.808 6.24588 325.846 6.43847Q325.885 6.63106 325.913 6.8253Q325.942 7.01954 325.961 7.21496Q325.981 7.41038 325.99 7.60651Q326 7.80264 326 7.999L326 180.001Q326 180.197 325.99 180.393Q325.981 180.59 325.961 180.785Q325.942 180.98 325.913 181.175Q325.885 181.369 325.846 181.562Q325.808 181.754 325.76 181.945Q325.713 182.135 325.656 182.323Q325.599 182.511 325.532 182.696Q325.466 182.881 325.391 183.062Q325.316 183.243 325.232 183.421Q325.148 183.599 325.055 183.772Q324.963 183.945 324.862 184.113Q324.761 184.282 324.652 184.445Q324.543 184.608 324.426 184.766Q324.309 184.924 324.184 185.075Q324.06 185.227 323.928 185.373Q323.796 185.518 323.657 185.657Q323.518 185.796 323.373 185.928Q323.227 186.06 323.075 186.184Q322.924 186.309 322.766 186.426Q322.608 186.543 322.445 186.652Q322.282 186.761 322.113 186.862Q321.945 186.963 321.772 187.055Q321.598 187.148 321.421 187.232Q321.243 187.316 321.062 187.391Q320.881 187.466 320.696 187.532Q320.511 187.599 320.323 187.656Q320.135 187.713 319.945 187.76Q319.754 187.808 319.561 187.846Q319.369 187.885 319.175 187.913Q318.98 187.942 318.785 187.961Q318.59 187.981 318.393 187.99Q318.197 188 318.001 188L7.999 188Q7.80264 188 7.60651 187.99Q7.41038 187.981 7.21496 187.961Q7.01954 187.942 6.8253 187.913Q6.63106 187.885 6.43847 187.846Q6.24588 187.808 6.0554 187.76Q5.86492 187.713 5.67701 187.656Q5.4891 187.599 5.30422 187.532Q5.11933 187.466 4.93791 187.391Q4.7565 187.316 4.57899 187.232Q4.40148 187.148 4.2283 187.055Q4.05512 186.963 3.88669 186.862Q3.71826 186.761 3.55499 186.652Q3.39172 186.543 3.234 186.426Q3.07628 186.309 2.92449 186.184Q2.7727 186.06 2.6272 185.928Q2.4817 185.796 2.34285 185.657Q2.204 185.518 2.07213 185.373Q1.94026 185.227 1.81569 185.075Q1.69112 184.924 1.57414 184.766Q1.45717 184.608 1.34807 184.445Q1.23898 184.282 1.13803 184.113Q1.03708 183.945 0.944512 183.772Q0.851946 183.599 0.76799 183.421Q0.684033 183.243 0.608888 183.062Q0.533742 182.881 0.467589 182.696Q0.401436 182.511 0.344434 182.323Q0.287433 182.135 0.23972 181.945Q0.192007 181.754 0.153699 181.562Q0.11539 181.369 0.0865771 181.175Q0.0577644 180.98 0.0385174 180.785Q0.0192703 180.59 0.00963514 180.393Q0 180.197 0 180.001L0 7.999Q0 7.80264 0.00963514 7.60651Q0.0192703 7.41038 0.0385174 7.21496Q0.0577644 7.01954 0.0865771 6.8253Q0.11539 6.63106 0.153699 6.43847Q0.192007 6.24588 0.23972 6.0554Q0.287433 5.86492 0.344434 5.67701Q0.401436 5.4891 0.467589 5.30422Q0.533742 5.11933 0.608888 4.93791Q0.684033 4.7565 0.76799 4.57899Q0.851946 4.40148 0.944512 4.2283Q1.03708 4.05512 1.13803 3.88669Q1.23898 3.71826 1.34807 3.55499Q1.45717 3.39172 1.57414 3.234Q1.69112 3.07628 1.81569 2.92449Q1.94026 2.7727 2.07213 2.6272Q2.204 2.4817 2.34285 2.34285Q2.4817 2.204 2.6272 2.07213Q2.7727 1.94026 2.92449 1.81569Q3.07628 1.69112 3.234 1.57414Q3.39172 1.45717 3.55499 1.34807Q3.71826 1.23898 3.88669 1.13803Q4.05512 1.03708 4.2283 0.944512Q4.40148 0.851946 4.57899 0.76799Q4.7565 0.684033 4.93791 0.608888Q5.11933 0.533742 5.30422 0.467589Q5.4891 0.401436 5.67701 0.344434Q5.86492 0.287433 6.0554 0.23972Q6.24588 0.192007 6.43847 0.153699Q6.63106 0.11539 6.8253 0.0865771Q7.01954 0.0577644 7.21496 0.0385174Q7.41038 0.0192703 7.60651 0.00963514Q7.80264 0 7.999 0L7.999 0Z" id="Rectangle" fill="#FFFFFF" stroke="none" />
    <g id="JQuery-01" transform="translate(42.99997 66.14627)">
      <g id="XMLID_1_">
        <path d="M25.5079 0L35.6712 0.0664308C35.6712 0.0664308 16.7395 25.7072 15.2117 27.8328C14.6803 28.4971 13.9496 29.2278 13.5511 30.1578C12.5547 32.4163 11.5583 37.3983 11.5583 37.3983L2.25851 37.4647C2.25851 37.4647 3.7199 32.2834 3.65347 29.4935C3.58704 27.1021 2.39137 24.6443 1.66067 22.253C0.929971 19.7952 0 15.0125 0 15.0125L9.56545 15.0125L10.894 20.3266L25.5079 0" transform="translate(204.3288 3.852716)" id="XMLID_4_" fill="#000000" stroke="none" />
        <path d="M31.0213 0.831622C32.8812 1.96088 34.0769 8.205 34.0769 8.205C34.0769 8.205 24.2458 8.33785 18.8652 8.33785L14.2153 8.33785L8.56905 32.7829L0 32.7829C0 32.7829 5.31414 6.21219 6.57625 1.42946C6.97481 -0.098359 9.36618 0.167354 13.4182 0.167354L19.8616 0.167354C24.0465 0.100923 28.9621 -0.430493 31.0213 0.831622" transform="translate(179.5517 8.569022)" id="XMLID_5_" fill="#000000" stroke="none" />
        <path d="M30.7372 20.0054C30.7372 20.0054 32.7965 10.7057 31.7336 6.78649C31.4679 5.79009 31.2022 4.46155 30.7372 3.7973C28.9437 1.27308 25.2903 0.409532 22.8325 0.143829C16.3226 -0.520439 10.9421 1.20666 7.95287 3.46517C7.0229 4.12944 6.2922 4.66085 5.62793 5.45797C5.36223 5.79011 5.0965 6.05581 4.89723 6.38794C4.69796 6.65366 4.49867 6.85294 4.2994 7.11864C4.03369 7.58363 3.70156 8.38075 3.36942 9.04502C3.10372 9.57643 2.838 10.2407 2.63873 10.7721C0.845194 15.2227 -1.01475 23.5261 0.645922 27.9102C0.911625 28.5745 1.44305 29.3716 1.64232 29.6373C1.8416 29.9695 2.04089 30.3016 2.30659 30.5673C3.23656 31.5637 4.5651 32.228 5.96006 32.5601C13.1341 34.2872 27.4159 33.5565 27.4159 33.5565L29.143 25.7846C29.143 25.7846 19.0461 26.2495 14.197 25.6517C13.4663 25.5188 11.4735 25.4524 10.4106 24.5224C9.48068 23.7253 8.41784 21.8654 9.21497 20.6697C9.67673 20.0027 11.0896 20.0094 12.5658 20.0164C13.0009 20.0184 13.4415 20.0205 13.8648 20.0054C19.8433 19.8061 30.7372 20.0054 30.7372 20.0054ZM22.0538 9.57463C23.2495 11.3682 22.9838 12.9624 22.9838 12.9624L10.1635 12.896C10.1635 12.896 10.0306 7.31612 17.4704 7.58182C20.1275 7.64825 21.0574 8.04681 22.0538 9.57463Z" transform="translate(147.6004 8.170478)" id="XMLID_8_" fill="#000000" fill-rule="evenodd" stroke="none" />
        <path d="M24.5348 0.0664309L32.8381 0C32.8381 0 28.1883 21.9873 25.8633 32.7484L16.2979 32.7484C9.58877 32.7484 3.67679 33.5455 1.08615 28.7628C-1.37164 24.1129 0.953294 16.4738 2.08255 11.2926C2.87967 7.63908 4.47392 0.0664309 4.47392 0.0664309L13.1094 0C13.1094 0 10.6516 11.6911 9.6552 17.5367C9.32306 19.6623 8.52593 21.5887 9.32306 23.183C10.0538 24.6444 11.1166 24.7772 14.3051 24.8436C15.3015 24.8436 18.6228 24.8436 18.6228 24.8436L24.5348 0.0664309" transform="translate(115.8483 8.43616)" id="XMLID_9_" fill="#000000" stroke="none" />
        <path d="M35.8045 30.286C38.0702 24.4651 40.5354 18.1318 39.7525 12.3162C39.2875 8.59632 36.8297 4.61071 34.2391 3.0165C34.1062 2.95007 33.6413 2.55152 33.5084 2.48509C31.582 1.35583 28.46 0.35943 26.2679 0.160148C15.0417 -0.969116 8.33265 4.01289 4.4799 10.722C2.95208 13.3791 1.95568 16.2354 1.15856 19.2911C0.295006 22.6788 -0.302831 26.7973 0.162155 30.5172C0.494288 32.7093 1.68997 35.8978 3.48349 37.7577C7.40906 41.8617 14.6898 41.8117 22.7507 41.7563C23.6924 41.7499 24.6447 41.7433 25.6036 41.7433C28.3935 41.7433 35.1026 41.6769 37.1619 41.6104C37.8261 41.544 39.7525 33.9049 39.5532 33.6392C39.4586 33.5446 38.9143 33.5548 38.0913 33.5703C37.1816 33.5874 35.9313 33.611 34.5712 33.5064C34.96 32.4556 35.3787 31.3798 35.8045 30.286ZM29.2894 22.937C29.0845 23.62 28.8803 24.3011 28.6944 24.9729C27.8973 27.8957 27.0338 30.8849 26.0374 33.6084C24.9249 33.5974 23.827 33.6138 22.7603 33.6297C17.3946 33.7097 12.8201 33.778 11.1578 30.2871C10.0285 27.9621 10.5599 24.7736 11.1578 21.718C12.0213 17.666 12.8184 14.6768 15.1434 12.1525C16.9369 10.1597 21.5203 7.76837 26.3695 9.49548C28.0302 10.0269 30.488 12.7504 30.6872 15.7396C30.7915 17.9292 30.0366 20.446 29.2894 22.937Z" transform="translate(72.27235 0)" id="XMLID_12_" fill="#000000" fill-rule="evenodd" stroke="none" />
        <path d="M10.9604 0.0295259C10.429 2.55375 9.83117 5.4101 9.23332 7.93431L0 7.93431C0.730699 5.14439 1.26211 2.42088 1.9928 0.0295259C4.98201 -0.0369049 7.77193 0.0295259 10.9604 0.0295259" transform="translate(60.31553 8.569022)" id="XMLID_13_" fill="#000000" stroke="none" />
        <path d="M14.6139 0L23.5151 0C22.3194 6.4434 20.0609 16.8724 18.2009 24.1129C17.0717 28.6299 16.341 31.9513 13.2189 34.3426C12.9532 34.5419 12.7539 34.4755 12.5547 34.6748C11.9568 35.2062 9.36617 35.8704 7.90478 36.0033C5.57984 36.269 2.92277 36.0033 0 36.0033C0.730698 33.2134 1.59424 29.892 2.25851 27.4343C9.29975 28.2978 9.49902 21.6551 10.8276 15.2117C11.7575 11.4918 14.1489 1.46139 14.6139 0" transform="translate(45.43594 18.73232)" id="XMLID_14_" fill="#000000" stroke="none" />
        <path d="M41.6966 24.9765L41.4974 25.4415C38.2424 31.752 32.4633 35.6712 24.2264 35.8705C20.3736 35.9369 16.7202 34.9405 14.3288 33.8777C9.1475 31.5527 4.82976 27.235 2.4384 22.6515C-0.949366 16.0753 -1.54721 6.90839 5.49403 0C5.62688 0 4.63048 1.46139 4.76334 1.46139L4.56405 2.12566C-0.550806 18.0681 15.1923 31.752 30.4705 30.2242C34.124 29.8256 38.7739 27.8328 41.6966 24.9765" transform="translate(0 10.62827)" id="XMLID_15_" fill="#000000" stroke="none" />
        <path d="M19.9369 22.7844C23.7897 22.7844 27.7753 20.9909 30.1666 18.4667C28.1074 23.7144 22.0626 27.1686 13.9585 26.0393C7.18296 25.1093 0.739562 18.3338 0.0752947 11.4918C-0.389691 6.50983 1.3374 3.58705 4.19375 0C3.19735 1.85995 2.86522 3.32134 2.73236 4.25131C1.73597 15.0125 11.3678 22.718 19.9369 22.7844" transform="translate(10.09687 6.177653)" id="XMLID_16_" fill="#000000" stroke="none" />
        <path d="M18.7752 11.4918C18.1773 12.8868 14.7231 15.4774 13.1953 15.7431C7.15048 17.0053 3.29773 14.1489 1.30492 10.894C0.97279 10.429 0.441374 9.10047 0.374948 8.76833C-0.422171 6.11126 -0.0236116 2.05922 2.30133 0C1.57063 1.9928 1.50421 4.25131 1.83634 5.77913C2.03562 6.7091 2.76632 8.23692 3.43058 9.23332C4.69269 11.0268 5.48981 11.4918 7.08406 12.4218C7.81475 12.8868 8.54544 13.2189 8.87758 13.2854C10.4054 13.8832 13.5939 15.0125 18.7752 11.4918" transform="translate(21.45585 4.118419)" id="XMLID_17_" fill="#000000" stroke="none" />
      </g>
    </g>
  </g>
</svg>