<?xml version="1.0" encoding="utf-8"?>
<svg width="322px" height="74px" viewBox="0 0 322 74" version="1.1" xmlns:xlink="http://www.w3.org/1999/xlink" xmlns="http://www.w3.org/2000/svg">
  <desc>Created with Lunacy</desc>
  <g id="JQuery-01">
    <g id="XMLID_1_">
      <path d="M34.1168 0L47.7102 0.0888513C47.7102 0.0888513 22.3891 34.3833 20.3457 37.2264C19.6349 38.1149 18.6576 39.0922 18.1245 40.336C16.7919 43.3568 15.4592 50.0202 15.4592 50.0202L3.02075 50.1091C3.02075 50.1091 4.97537 43.1791 4.88652 39.4476C4.79767 36.2491 3.19846 32.9618 2.22115 29.7634C1.24384 26.4761 0 20.0792 0 20.0792L12.7938 20.0792L14.5707 27.1868L34.1168 0" transform="translate(273.2898 5.153002)" id="XMLID_4_" fill="#686868" stroke="none" />
      <path d="M41.491 1.11229C43.9787 2.62267 45.5779 10.9742 45.5779 10.9742C45.5779 10.9742 32.4287 11.1519 25.2322 11.1519L19.013 11.1519L11.4611 43.8471L0 43.8471C0 43.8471 7.10767 8.3088 8.79573 1.9119C9.32881 -0.131555 12.5273 0.223836 17.9468 0.223836L26.5649 0.223836C32.1622 0.134985 38.7368 -0.575784 41.491 1.11229" transform="translate(240.1503 11.46106)" id="XMLID_5_" fill="#686868" stroke="none" />
      <path d="M41.1111 26.7572C41.1111 26.7572 43.8653 14.3188 42.4438 9.07692C42.0883 7.74424 41.733 5.96732 41.1111 5.07889C38.7122 1.70274 33.8257 0.547745 30.5384 0.192367C21.8315 -0.696091 14.635 1.61391 10.637 4.63466C9.39312 5.52312 8.41581 6.23389 7.52736 7.30003C7.17198 7.74426 6.81657 8.09964 6.55005 8.54387C6.28352 8.89926 6.01697 9.1658 5.75044 9.52118C5.39506 10.1431 4.95083 11.2092 4.5066 12.0977C4.15123 12.8085 3.79582 13.6969 3.52929 14.4077C1.13045 20.3604 -1.35722 31.4661 0.86392 37.3299C1.2193 38.2184 1.93008 39.2845 2.19661 39.6399C2.46313 40.0842 2.72969 40.5284 3.08507 40.8838C4.3289 42.2164 6.10582 43.1049 7.97159 43.5491C17.5669 45.8591 36.6688 44.8818 36.6688 44.8818L38.9788 34.4869C38.9788 34.4869 25.4742 35.1088 18.9885 34.3092C18.0112 34.1314 15.3458 34.0426 13.9242 32.7988C12.6804 31.7326 11.2589 29.2449 12.325 27.6457C12.9426 26.7536 14.8323 26.7626 16.8068 26.7719C17.3887 26.7747 17.978 26.7775 18.5442 26.7572C26.5404 26.4907 41.1111 26.7572 41.1111 26.7572ZM29.497 12.8061C31.0962 15.2049 30.7408 17.3372 30.7408 17.3372L13.5936 17.2484C13.5936 17.2484 13.4159 9.78531 23.3667 10.1407C26.9205 10.2295 28.1643 10.7626 29.497 12.8061Z" transform="translate(197.4155 10.92801)" id="XMLID_8_" fill="#686868" fill-rule="evenodd" stroke="none" />
      <path d="M32.8153 0.0888513L43.921 0C43.921 0 37.7018 29.408 34.5922 43.801L21.7984 43.801C12.825 43.801 4.9177 44.8672 1.45272 38.4702C-1.83457 32.251 1.27503 22.0338 2.78541 15.1038C3.85155 10.2173 5.98386 0.0888513 5.98386 0.0888513L17.5338 0C17.5338 0 14.2465 15.6369 12.9138 23.4553C12.4696 26.2984 11.4034 28.8749 12.4696 31.0072C13.4469 32.9618 14.8684 33.1395 19.133 33.2284C20.4657 33.2284 24.908 33.2284 24.908 33.2284L32.8153 0.0888513" transform="translate(154.9471 11.28336)" id="XMLID_9_" fill="#686868" stroke="none" />
      <path d="M47.8885 40.5075C50.9189 32.7221 54.2161 24.2512 53.169 16.4729C52.5471 11.4976 49.2598 6.16682 45.7948 4.03457C45.6171 3.94572 44.9952 3.41265 44.8175 3.3238C42.241 1.81342 38.0652 0.480733 35.1333 0.214193C20.1183 -1.2962 11.1449 5.36724 5.99186 14.3407C3.9484 17.8945 2.61572 21.7149 1.54957 25.8018C0.394571 30.3329 -0.405036 35.8414 0.216882 40.8167C0.661111 43.7486 2.26034 48.0132 4.65917 50.5009C9.90963 55.99 19.6476 55.9231 30.429 55.8491C31.6885 55.8404 32.9623 55.8317 34.2448 55.8317C37.9764 55.8317 46.9498 55.7428 49.704 55.654C50.5925 55.5651 53.169 45.3478 52.9025 44.9925C52.7759 44.8659 52.0479 44.8796 50.9471 44.9003C49.7304 44.9232 48.0582 44.9547 46.239 44.8148C46.759 43.4093 47.3191 41.9705 47.8885 40.5075ZM39.1746 30.6782C38.9006 31.5918 38.6273 32.5027 38.3788 33.4013C37.3127 37.3105 36.1577 41.3085 34.825 44.9512C33.337 44.9365 31.8686 44.9584 30.442 44.9797C23.2652 45.0868 17.1469 45.1781 14.9235 40.5089C13.4131 37.3993 14.1239 33.1347 14.9235 29.0478C16.0785 23.6282 17.1447 19.6302 20.2543 16.254C22.6531 13.5887 28.7835 10.3902 35.2692 12.7002C37.4903 13.4109 40.7776 17.0536 41.0442 21.0517C41.1836 23.9802 40.1739 27.3466 39.1746 30.6782Z" transform="translate(96.66428 0)" id="XMLID_12_" fill="#686868" fill-rule="evenodd" stroke="none" />
      <path d="M14.6596 0.039491C13.9488 3.41564 13.1492 7.23601 12.3496 10.6121L0 10.6121C0.97731 6.88062 1.68807 3.23793 2.66538 0.039491C6.66344 -0.0493603 10.395 0.039491 14.6596 0.039491" transform="translate(80.67202 11.46106)" id="XMLID_13_" fill="#686868" stroke="none" />
      <path d="M19.5461 0L31.4514 0C29.8522 8.61804 26.8314 22.5668 24.3437 32.251C22.8334 38.2925 21.8561 42.7348 17.6803 45.9333C17.3249 46.1998 17.0584 46.111 16.7919 46.3775C15.9922 47.0883 12.5273 47.9767 10.5726 48.1544C7.46304 48.5098 3.90921 48.1544 0 48.1544C0.977309 44.4229 2.13229 39.9806 3.02075 36.6933C12.4384 37.8483 12.7049 28.9637 14.4819 20.3457C15.7257 15.3703 18.9241 1.95461 19.5461 0" transform="translate(60.77056 25.05448)" id="XMLID_14_" fill="#686868" stroke="none" />
      <path d="M55.7693 33.406L55.5027 34.0279C51.1493 42.4683 43.4197 47.7102 32.4028 47.9767C27.2497 48.0656 22.3632 46.7329 19.1648 45.3114C12.2348 42.2018 6.45981 36.4268 3.26136 30.2964C-1.26978 21.5007 -2.06939 9.23997 7.34827 0C7.52596 0 6.19327 1.95461 6.37096 1.95461L6.10442 2.84306C-0.736704 24.1661 20.3198 42.4683 40.7543 40.4249C45.6408 39.8917 51.86 37.2264 55.7693 33.406" transform="translate(0 14.2153)" id="XMLID_15_" fill="#686868" stroke="none" />
      <path d="M26.6656 30.4741C31.8187 30.4741 37.1494 28.0753 40.3479 24.6991C37.5937 31.718 29.5087 36.338 18.6695 34.8276C9.60722 33.5837 0.989165 24.5214 0.100707 15.3703C-0.521212 8.70689 1.78878 4.79768 5.60915 0C4.27646 2.48769 3.83223 4.44229 3.65454 5.68613C2.32186 20.0792 15.2045 30.3853 26.6656 30.4741" transform="translate(13.50456 8.262606)" id="XMLID_16_" fill="#686868" stroke="none" />
      <path d="M25.1118 15.3703C24.3122 17.2361 19.6922 20.7011 17.6487 21.0565C9.56377 22.7445 4.41071 18.9242 1.74534 14.5707C1.30111 13.9488 0.590338 12.1719 0.501493 11.7276C-0.564654 8.17381 -0.0315806 2.75421 3.07802 0C2.10072 2.66538 2.01188 5.68613 2.45611 7.72959C2.72265 8.97342 3.69995 11.0169 4.58841 12.3496C6.27648 14.7484 7.34263 15.3703 9.47493 16.6142C10.4522 17.2361 11.4295 17.6803 11.8738 17.7692C13.9172 18.5688 18.1818 20.0792 25.1118 15.3703" transform="translate(28.6972 5.50838)" id="XMLID_17_" fill="#686868" stroke="none" />
    </g>
  </g>
</svg>