<?xml version="1.0" encoding="utf-8"?>
<svg width="337px" height="303px" viewBox="0 0 337 303" version="1.1" xmlns:xlink="http://www.w3.org/1999/xlink" xmlns="http://www.w3.org/2000/svg">
  <desc>Created with Lunacy</desc>
  <g id="Matlab_Logo">
    <g id="surface1330204">
      <path d="M140.596 299.301C141.458 301.477 143.546 302.85 145.81 302.85C146.117 302.85 146.438 302.821 146.76 302.777C173.735 298.162 197.118 270.778 212.599 252.653C214.819 250.053 216.864 247.672 218.704 245.584L219.639 244.547C235.237 226.977 247.549 213.117 264.987 213.117C274.904 213.117 285.668 219.28 298.886 232.498C316.689 250.345 327.556 256.917 328.008 257.195C330.155 258.48 332.872 258.188 334.683 256.508C336.523 254.814 337.02 252.127 335.924 249.907C335.705 249.469 314.104 205.332 292.737 141.932C283.857 115.57 262.139 54.1555 254.004 35.6071C245.154 15.4229 237.194 0 222.224 0C209.167 0 200.594 14.4882 194.328 25.0769C193.583 26.3329 192.882 27.5305 192.211 28.6113C186.456 37.9585 167.849 66.6866 158.093 75.8294L156.516 77.3191C149.33 84.0667 149.33 84.0667 139.954 87.5865C138.084 88.2729 135.893 89.0908 133.279 90.0985C115.943 96.773 99.9358 119.075 95.8172 125.151L3.46949 163.051C1.58543 163.825 0.27098 165.563 0.0372989 167.593C-0.196382 169.608 0.679921 171.609 2.33029 172.792L72.4345 223.267C74.3332 224.655 76.8745 224.699 78.8169 223.384C78.8899 223.34 86.0172 218.725 93.2321 218.725C108.67 218.725 129.438 271.143 140.596 299.301ZM149.205 290.713C130.292 243.247 113.905 207.509 93.1948 207.509C86.272 207.509 79.8312 210.137 76.0339 212.08L17.0441 169.608L101.637 134.892C102.703 134.454 103.608 133.695 104.222 132.716C108.822 125.545 123.719 105.784 137.273 100.585C139.858 99.5772 142.019 98.7739 143.86 98.0875C155.033 93.8959 155.588 93.5453 164.161 85.498L165.738 84.0082C178.62 71.9299 201.491 34.8622 201.725 34.4825C202.411 33.3579 203.156 32.1165 203.93 30.802C208.268 23.4703 215.527 11.2167 222.187 11.2167C229.606 11.2167 235.477 21.3672 243.7 40.1055C251.367 57.6023 272.91 118.286 282.067 145.495C294.759 183.147 307.568 214.139 316.009 233.403C313.205 230.862 310.124 227.926 306.779 224.582C296.234 214.022 281.95 201.9 264.95 201.9C242.473 201.9 227.985 218.199 211.218 237.084L210.283 238.135C208.399 240.268 206.311 242.707 204.033 245.365C190.523 261.182 170.558 284.565 149.205 290.713Z" id="Shape" fill="#FFFFFF" fill-rule="evenodd" stroke="none" />
      <path d="M4.79045 223.808L0 213.657C0.350521 213.497 34.7308 196.861 61.4726 155.398C86.8854 116.008 99.4458 85.2497 106.179 68.7313C107.902 64.5251 109.217 61.3266 110.21 59.2527C112.678 54.1409 115.073 47.9922 117.585 41.4783C125.501 21.0897 133.68 0 148.913 0L148.913 11.2167C141.362 11.2167 133.665 31.0503 128.057 45.5385C125.443 52.2569 122.974 58.6247 120.316 64.1308C119.382 66.0732 118.169 69.0527 116.563 72.9814C109.684 89.8356 96.8899 121.207 70.9075 161.488C42.3254 205.785 6.30938 223.077 4.79045 223.808L4.79045 223.808Z" transform="translate(73.27353 0)" id="Shape" fill="#FFFFFF" stroke="none" />
      <path d="M39.2584 38.4113L0 8.9675L6.71832 0L45.9767 29.4438L39.2584 38.4113Z" transform="translate(96.14502 125.2091)" id="Shape" fill="#FFFFFF" stroke="none" />
      <path d="M68.819 207.202C86.3158 187.514 102.863 168.907 129.547 168.265C129.547 168.265 110.619 84.8261 94.4946 16.124C91.2231 2.16155 89.9087 0 88.5504 0C87.6303 0 86.5203 2.04471 85.6586 6.76214C80.9996 31.9558 58.9606 125.749 41.2154 171.054C34.4387 188.361 22.3165 198.541 11.7717 203.302C6.952 205.478 0 207.508 0 207.508C7.28792 220.288 14.2253 236.003 21.3526 253.514C36.425 245.029 51.1469 227.766 61.5018 215.658C63.8241 212.927 65.971 210.43 67.8989 208.239L68.819 207.202Z" transform="translate(134.0013 22.43335)" id="Shape" fill="#FFFFFF" stroke="none" />
    </g>
  </g>
</svg>