<?xml version="1.0" encoding="utf-8"?>
<svg width="337px" height="273px" viewBox="0 0 337 273" version="1.1" xmlns:xlink="http://www.w3.org/1999/xlink" xmlns="http://www.w3.org/2000/svg">
  <desc>Created with Lunacy</desc>
  <g id="microsoft-sql-server">
    <g id="Group" transform="matrix(0.569 0 0 0.569 121.8154 0)">
      <path d="M188.175 0L188.174 0.000296328L122.846 21.3323L66.0103 46.4168L50.1097 50.6146C46.0601 54.4665 41.8141 58.3678 37.2217 62.3181C32.185 66.6632 27.494 70.6141 23.8887 73.4776C19.8892 76.6382 13.9636 82.5636 10.9517 86.3157C6.45792 91.9449 2.90271 97.9197 1.37185 102.513C-1.34424 110.809 -0.0103402 119.203 5.22375 126.956C11.9393 136.831 25.3214 146.905 40.9249 153.768C48.8755 157.275 62.2572 161.768 72.3303 164.286C89.0695 168.533 121.463 173.126 139.289 173.817C142.893 173.965 147.732 173.965 147.929 173.817C148.325 173.57 151.09 168.287 154.3 161.719C165.263 139.35 173.163 118.364 177.459 100.439C180.027 89.576 182.051 75.1075 183.384 57.9734C183.73 53.1834 183.878 37.135 183.581 31.7028C183.137 22.8147 182.347 15.6057 181.113 8.54427C180.915 7.50707 180.865 6.56868 180.965 6.51949C181.162 6.37147 181.754 6.17405 189.803 3.85259L188.174 0.00159829L188.174 0.000458639L188.175 0.000458639L188.175 0ZM174.673 33.4803C174.278 23.9 172.698 8.74078 172.106 8.74078C171.563 8.74078 155.267 13.9749 148.404 16.2961C144.354 17.6792 144.305 17.7284 144.799 18.0738C146.281 19.2588 155.662 25.4809 160.601 28.5921C166.278 32.1473 174.229 36.8378 174.624 36.8378C174.722 36.8378 174.772 35.5046 174.673 33.4803ZM138.628 19.7033C139.072 19.7033 140.207 20.3445 142.923 22.0239C153.095 28.3937 166.922 36.0973 172.848 38.6654C173.563 38.9748 174.029 39.1175 174.078 39.3488C174.145 39.6642 173.439 40.1442 171.538 41.4358C171.274 41.6153 170.986 41.8106 170.675 42.0232C161.688 48.146 150.478 54.17 136.75 60.2439C134.331 61.3303 132.307 62.1694 132.258 62.1694C132.159 62.1694 132.455 60.9357 132.849 59.454C136.158 47.1575 138.035 34.7142 138.134 24.7395C138.183 19.8012 138.183 19.8012 138.628 19.6539C138.528 19.7033 138.578 19.7033 138.628 19.7033ZM131.457 36.6922C131.852 33.6803 132.049 22.6187 131.754 22.3229C131.556 22.1257 105.533 32.1988 104.743 32.7419C104.595 32.8904 106.372 37.2353 107.508 39.4575C109.73 43.8026 112.742 48.2468 116.594 52.6912C118.816 55.2588 125.581 61.8755 125.779 61.6289C125.877 61.5305 126.372 59.9987 126.915 58.173C129.186 50.6172 130.568 43.9019 131.457 36.6922ZM99.6777 35.0105C99.7269 35.0105 99.7761 35.0105 99.8262 35.0597C99.9245 35.1585 100.271 35.9489 100.567 36.8374C102.147 41.1336 105.701 47.4541 108.764 51.5034C112.122 55.9478 116.517 60.6877 120.17 63.7987C121.356 64.7863 122.441 65.7242 122.589 65.8727C122.636 65.9193 122.678 65.9574 122.684 66.0005C122.714 66.2226 121.785 66.5758 115.622 68.9201L114.935 69.1812C105.604 72.7365 95.431 76.2916 83.7771 80.0443C81.0111 80.9362 78.2474 81.8358 75.4863 82.7431C75.0411 82.8916 75.1896 82.6443 76.4734 80.6202C82.2505 71.5834 91.0398 53.8563 95.9781 41.3138C96.8177 39.141 97.657 36.9687 97.8055 36.4748C98.0031 35.783 98.2495 35.5364 98.8912 35.1905C99.2368 35.0926 99.5829 34.9933 99.7307 34.9933L99.6777 35.0105ZM85.214 49.3336C87.683 44.4943 90.2015 39.2113 90.0537 39.112C89.8561 38.9146 69.4125 48.4945 63.092 51.704C61.6108 52.445 61.6595 52.3956 61.0183 55.4569C60.1785 59.6045 60.03 66.3196 60.771 70.1715C61.5115 74.0726 62.8946 78.3196 64.5735 81.6282C65.3634 83.1586 65.4627 83.2579 65.7093 82.912C65.8577 82.7146 66.9931 80.9364 68.1781 79.0109C75.1899 67.8514 80.4239 58.6662 85.214 49.3336ZM174.759 42.566L174.759 44.6398C174.759 55.6515 173.574 70.7615 171.845 81.7736C171.548 83.6991 171.301 85.2787 171.252 85.3288C171.252 85.3288 169.82 84.9342 168.141 84.4396C160.735 82.1186 152.686 78.7114 145.427 74.7124C140.636 72.0951 133.674 67.7985 133.872 67.6009C133.921 67.5519 135.995 66.4655 138.414 65.1815C148.094 60.1451 157.376 54.7133 165.425 49.331C168.438 47.3062 172.98 44.0477 173.968 43.1585L174.759 42.566ZM52.2233 59.3542C52.5196 57.5765 52.569 57.1815 52.3716 57.1815C52.3224 57.1815 52.2732 57.1815 52.2727 57.2309C51.6802 57.429 43.9277 61.7245 38.8911 64.5879C31.8793 68.5882 27.7805 71.699 22.6448 77.0316C14.9419 85.0315 9.41113 94.5125 8.27555 101.771C8.12755 102.611 8.17718 102.66 8.52216 102.561C8.72073 102.512 11.3867 101.771 14.448 100.932C24.7197 98.1178 57.4082 88.5377 57.7541 88.241C57.8042 88.192 57.0136 86.5131 56.026 84.4884C52.4709 77.1806 51.285 71.8472 51.6809 64.6375C51.7791 63.0087 52.0257 60.6385 52.2233 59.3542ZM129.325 70.9611C129.375 70.9119 130.56 71.5543 131.991 72.3934C142.559 78.5166 157.274 84.1954 169.815 87.1085L170.952 87.3558L169.371 88.2437C162.804 91.8981 141.225 100.885 119.153 109.132C115.943 110.316 112.783 111.502 112.19 111.749C111.597 111.995 111.054 112.144 111.054 112.094C111.054 112.044 111.943 110.316 113.078 108.193C119.251 96.6386 125.473 82.5656 128.633 72.7883C129.029 71.8501 129.275 71.011 129.325 70.9611ZM120.634 75.7979C121.129 74.6129 121.524 73.5769 121.474 73.5266C121.425 73.5266 119.844 74.1689 117.918 74.9593C104.338 80.7859 90.6606 85.5263 74.5626 89.9206L70.0695 91.1552L70.9587 92.2416C77.0319 99.8955 86.3148 107.796 96.7839 114.216C98.5614 115.302 100.043 116.191 100.092 116.191C100.142 116.191 101.673 113.574 103.5 110.315C110.709 97.575 116.339 86.2169 120.634 75.7979ZM170.263 90.5624C170.313 91.6982 167.794 101.871 165.72 109.227C163.992 115.4 162.51 120.24 159.795 128.782C158.61 132.535 157.573 135.645 157.523 135.645C157.474 135.645 157.178 135.596 156.881 135.498C142.216 132.831 129.081 129.127 116.736 124.19C113.279 122.807 108.341 120.585 108.045 120.338C107.947 120.238 110.91 118.856 114.662 117.227C137.13 107.4 160.437 96.2403 168.436 91.4512C169.374 90.8584 170.115 90.5624 170.263 90.5624ZM43.0278 115.845C51.8178 103.55 58.0891 94.5127 57.9902 94.4144C57.9411 94.4144 55.6196 94.9568 52.7553 95.6492C49.8911 96.3405 41.9416 98.2169 35.0779 99.7965C22.7322 102.661 9.54775 105.772 8.80724 105.97C8.31402 106.117 8.31402 107.303 8.85733 109.673C9.99313 114.759 12.8566 120.339 17.1035 125.622C19.1281 128.19 23.6704 132.831 26.2877 135.004L28.5098 136.881L30.5847 133.671C31.7205 131.893 33.7448 128.93 35.0783 127.054C36.4113 125.177 39.9665 120.141 43.0278 115.845ZM63.9466 96.834L65.5262 98.6115C72.6378 106.562 79.8964 112.439 88.6859 117.573C90.2664 118.463 91.4512 119.252 91.3519 119.302C91.0072 119.549 60.8355 130.263 46.8613 135.103C39.0104 137.868 32.5412 140.09 32.4925 140.09C32.4433 140.09 31.9986 139.794 31.504 139.448L30.6157 138.806L32.0476 136.732C36.6889 130.017 42.5166 122.659 55.207 107.352L63.9466 96.834ZM108.24 126.761C105.573 125.772 103.401 124.982 103.352 125.031C103.352 125.081 101.969 127.105 100.34 129.575C94.4635 138.562 87.4016 148.043 80.2915 156.536C78.8592 158.215 77.6742 159.746 77.6742 159.844C77.6742 160.041 79.3044 160.487 79.7976 160.387C79.995 160.338 83.353 159.4 87.2541 158.264C108.388 152.19 134.312 144.537 142.806 141.871C148.139 140.192 155.397 137.772 155.743 137.574C155.941 137.426 155.349 137.327 154.262 137.229C147.102 136.636 134.955 134.562 126.56 132.439C119.745 130.71 114.66 129.18 108.24 126.761ZM94.6827 125.282C94.7319 125.331 91.2263 130.96 85.104 140.638C82.4863 144.736 79.5727 149.378 78.5355 151.008C77.548 152.588 76.0667 155.057 75.2276 156.439L73.7953 158.958L73.0548 158.76C71.2767 158.267 58.7839 153.871 55.4753 152.538C51.3766 150.909 47.1301 148.934 43.9695 147.255C40.0197 145.131 35.0821 141.971 35.4767 141.873C35.5753 141.824 42.3405 139.996 50.4876 137.774C72.1162 131.897 84.115 128.491 91.9671 126.022C93.3994 125.577 94.6335 125.231 94.6827 125.282ZM156.187 139.695L156.138 139.695C155.792 139.744 154.508 140.287 152.978 140.979C143.251 145.521 133.621 149.225 123.893 152.188C116.19 154.558 108.586 156.483 92.7837 160.038L85.4272 161.719L86.6122 161.965C91.7966 163.15 112.438 166.755 124.732 168.631C131.795 169.668 143.398 171.298 144.238 171.347C144.584 171.397 144.83 171.001 145.471 169.421C148.386 162.41 156.385 140.189 156.187 139.695Z" transform="translate(0 152.2867)" id="Shape" fill="#FFFFFF" fill-rule="evenodd" stroke="none" />
      <path d="M41.3799 10.7674C52.6874 6.17568 70.2177 -0.144798 71.3041 0.00252947L71.3041 0.00230362L71.3053 0.00230362L71.3053 0.00344327C71.8477 0.0526254 71.946 0.250049 72.7856 3.60782C74.3167 9.13861 77.0822 16.841 79.9953 23.5074C83.7479 32.0995 90.1672 44.8395 95.9942 55.1107L97.1291 57.135L102.76 58.0242C102.907 58.0242 103.006 58.0734 103.154 58.0734L102.709 61.7769L59.8482 54.4192L22.3688 47.7034L6.61718 42.6667L0 36.3954C0 35.8029 0.0992746 35.2104 0.296698 34.7165C0.839102 33.3835 4.24697 29.9768 6.96238 28.0502C14.2709 22.9158 26.1212 16.99 41.3799 10.7674ZM70.5155 2.51938L70.5662 2.51938C70.6147 2.56811 70.8124 3.95166 71.0103 5.58022C71.8489 12.4943 73.3809 19.1596 75.8001 26.3692C75.891 26.6396 75.9774 26.8957 76.0592 27.1384C76.9849 29.8833 77.3269 30.8973 77.0322 31.1408C76.8595 31.2835 76.4685 31.1618 75.8483 30.9689C75.7404 30.9354 75.6256 30.8997 75.5038 30.8628C70.4672 29.4806 47.9009 25.5795 31.5563 23.3082C28.939 22.9623 26.7168 22.6168 26.7168 22.5677C26.5194 22.3702 38.5182 16.0985 43.8019 13.6301C50.5669 10.5185 69.1335 2.76599 70.5155 2.51938ZM24.8381 25.2824L22.9114 24.6411L25.48 26.9615C28.0973 29.431 34.9119 35.9489 43.6028 44.3923L48.5402 49.2317L50.5153 49.5284C51.6017 49.6767 52.6382 49.8743 52.8359 49.8743C53.0328 49.8743 54.4656 49.0837 56.0452 48.0966C61.3783 44.788 69.0819 40.4919 76.093 36.9859C77.8711 36.1468 79.2529 35.406 79.2037 35.3568C79.1552 35.3568 77.7719 35.2084 76.1429 35.0601C61.6244 33.8751 35.3058 28.8383 24.8381 25.2824ZM20.937 26.1716L27.8994 34.8627C31.7012 39.6525 35.5529 44.3433 36.3931 45.3798C36.4913 45.5013 36.5874 45.62 36.6806 45.7351C37.3836 46.6033 37.9178 47.263 37.8744 47.3065C37.6767 47.4545 27.8015 45.5283 22.5665 44.3438C17.1842 43.1089 14.9622 42.5164 11.6538 41.4799L8.93774 40.5907L8.93774 39.8989C8.98693 36.5903 13.1847 31.6527 20.2951 26.6165L20.937 26.1716ZM81.1299 39.8196C80.5374 38.4864 80.2912 38.0421 80.0934 38.0421C80.0442 37.993 79.9449 38.0421 79.8957 38.1407C79.6987 38.2892 78.6618 39.1779 77.5259 40.1163C72.8839 44.0174 67.65 47.6719 62.4649 50.5353C61.823 50.8812 61.3291 51.2271 61.3291 51.2763C61.3291 51.3751 66.7121 52.2629 83.4513 54.9795C88.404 55.7875 89.4839 55.9958 89.5522 55.8174C89.5798 55.745 89.441 55.609 89.3267 55.4235C88.044 53.498 82.8088 43.5228 81.1299 39.8196Z" transform="translate(48.14557 0)" id="Shape" fill="#FFFFFF" fill-rule="evenodd" stroke="none" />
      <path d="M25.9742 4.29687C24.9375 1.72901 26.0232 3.05176e-05 26.0232 3.05176e-05L26.0232 9.67033e-06C27.1096 4.19734 32.2455 5.57998 35.8007 6.9633C40.2449 8.49396 45.923 9.82696 48.8857 10.4695C54.6137 11.7037 63.2559 13.1847 69.0328 14.1728C85.1301 16.938 99.7465 19.3581 122.363 22.8632C133.028 24.4927 146.163 26.7638 152.138 27.9495C183.839 34.2208 208.875 42.6647 228.232 53.4783C242.306 61.3793 253.811 70.9091 263.291 82.6615C266.55 86.7106 269.267 90.5124 273.217 96.6357L273.908 97.7221L269.414 98.4139C226.158 105.03 150.162 125.375 103.944 142.757C71.8475 154.805 45.6761 166.508 22.4188 179.249C12.3457 184.779 8.04952 187.297 4.88939 189.668L6.10352e-05 191.297C33.4298 163.842 55.1078 139.103 65.3788 116.684C71.1557 104.191 73.4772 93.4266 73.1809 81.1805C72.687 62.1198 67.4031 48.2934 55.2562 34.27C52.5896 31.208 30.6158 9.77756 30.6158 9.77756C28.4929 7.80197 26.6168 5.87648 25.9742 4.29687ZM38.7639 12.3507C38.7992 12.3154 39.2237 12.4608 39.8498 12.6752C40.0876 12.7566 40.3545 12.848 40.6402 12.9432C42.5165 13.5845 44.9359 14.3254 47.8006 15.116C49.9681 15.7122 52.1411 16.2883 54.3192 16.8443C57.2819 17.5846 59.7505 18.2761 59.7997 18.2761C60.1461 18.622 65.1335 34.5704 66.8124 40.6937C67.4534 43.0152 67.9482 44.9898 67.8988 44.9898C67.848 45.0399 67.3056 44.1999 66.664 43.0644C60.8863 32.892 51.7512 22.5718 41.1837 14.2757C39.8018 13.2891 38.7645 12.4001 38.7645 12.3509L38.7639 12.3507ZM63.0132 19.073C63.0152 19.0738 63.0181 19.0726 63.0221 19.0706C63.1007 19.3239 63.5089 20.2637 63.9964 21.2825C67.3541 28.4421 71.0583 38.6144 72.8348 45.4782C73.0828 46.5159 73.3782 47.355 73.3782 47.355C73.3782 47.355 74.6132 46.17 76.0451 44.7377C79.6007 41.1825 84.5381 37.2323 90.0197 33.5782C92.1918 32.0966 98.7598 28.1959 100.389 27.3568C101.13 26.9613 101.723 26.6163 101.723 26.517C101.723 26.4189 100.438 26.122 98.8087 25.8754C89.1801 24.2457 74.1191 21.3815 65.7244 19.5052C64.3919 19.2092 63.3055 19.061 63.0584 19.061C63.0409 19.061 63.0295 19.067 63.0221 19.0706C63.0131 19.0417 63.0084 19.0217 63.0084 19.0116C63.0084 19.057 63.0084 19.071 63.0132 19.073ZM105.821 27.2102C106.117 27.3086 106.611 28.9877 107.598 32.6909C109.426 39.8514 110.265 47.8507 109.969 55.307C109.87 57.381 109.771 59.3065 109.672 59.554L109.524 60.0472L106.957 59.2081C101.673 57.5292 93.0812 55.0103 85.724 52.9368C81.526 51.801 78.1197 50.764 78.1197 50.6654C78.1197 50.3687 84.243 44.2459 86.8598 41.9253C91.8461 37.5299 105.376 27.0617 105.821 27.2102ZM138.911 32.842C129.677 31.0641 109.382 27.559 109.233 27.7063C109.184 27.7564 109.48 28.4969 109.826 29.2871C113.283 37.2864 115.159 46.7675 115.159 56.1493C115.159 57.8778 115.209 59.3094 115.258 59.3094C115.307 59.3094 117.431 57.927 119.949 56.2481C129.577 49.8281 139.256 44.5453 152.292 38.6686C155.601 37.1874 156.638 36.5949 156.342 36.4965C155.749 36.2492 145.775 34.175 138.911 32.842ZM161.724 38.0768C161.872 38.2248 161.23 42.225 160.637 44.5947C158.86 51.9524 154.07 62.866 148.195 73.1363C147.157 74.9634 146.219 76.4449 146.119 76.494C146.022 76.5432 144.688 75.8022 143.157 74.9135C137.429 71.5557 130.911 68.3956 123.8 65.4324C121.826 64.5933 120.097 63.9016 120.048 63.8036C119.701 63.507 135.602 52.9891 143.997 47.9525C150.663 43.9036 161.526 37.8789 161.724 38.0768ZM179.606 42.5162C174.915 41.1336 165.928 38.6643 165.484 38.6643C165.335 38.6643 165.188 39.4046 165.138 40.343C164.299 50.3182 160.892 62.0212 155.608 73.2301C154.966 74.6132 154.472 75.7488 154.572 75.7488C154.669 75.7488 155.953 75.2549 157.385 74.6624C174.915 67.552 193.087 61.9219 214.32 57.0337L216.837 56.4417L213.233 54.8115C204.542 50.8613 191.21 45.9731 179.606 42.5162ZM76.0056 59.216C76.1534 59.0675 83.0174 60.6975 86.7208 61.7335C92.3499 63.3143 104.299 67.3135 104.299 67.6102C104.299 67.6594 102.967 68.7952 101.387 70.1783C94.9183 75.5606 88.6959 81.2385 81.2392 88.4482C79.017 90.5722 77.1412 92.3003 77.0428 92.3003C76.9435 92.3003 76.895 92.0034 76.9435 91.6085C78.0791 83.3125 77.8329 72.6469 76.2526 61.8328C76.2186 61.516 76.1846 61.2096 76.153 60.9248C76.0466 59.9666 75.9675 59.2539 76.0056 59.216ZM214.999 67.5055C217.073 64.5925 220.331 59.457 220.233 59.3589C220.134 59.2596 213.764 61.0867 207.789 62.9628C196.381 66.469 181.174 71.9005 170.014 76.4437C163.643 79.0109 155.249 82.6164 155.249 82.7642C155.249 82.8134 155.694 83.2085 156.237 83.6033C156.781 83.9984 158.409 85.3316 159.891 86.5665C167.742 93.0844 174.359 100.343 179.89 108.639C180.582 109.725 181.223 110.614 181.272 110.614C181.322 110.614 182.951 108.54 184.927 106.071C186.852 103.603 192.68 96.2445 197.863 89.7271C207.69 77.3824 212.037 71.7521 214.999 67.5055ZM224.039 60.3447C224.236 60.2957 225.421 60.8882 226.853 61.7268C238.853 68.5906 250.604 77.43 259.888 86.516C262.505 89.0841 268.974 95.7996 268.875 95.8488C268.875 95.8488 266.603 96.0462 263.937 96.2434C243.149 97.8242 216.534 102.218 190.955 108.39C189.227 108.785 187.696 109.131 187.597 109.131C187.499 109.131 189.424 107.206 191.844 104.885C206.855 90.4169 213.719 81.2817 221.817 64.986C222.952 62.5671 223.94 60.4931 224.039 60.3447ZM126.103 77.1806C121.264 74.7616 114.845 71.7484 114.153 71.601C114.005 71.601 113.807 72.0942 113.61 72.8348C111.585 82.2666 108.03 91.9451 103.586 100.043C102.253 102.462 102.203 102.661 102.401 102.661C102.45 102.661 104.425 101.475 106.795 100.043C115.092 95.0057 123.041 90.6114 132.326 85.9698C135.238 84.5376 137.608 83.3029 137.559 83.2538C137.214 82.958 130.547 79.4018 126.103 77.1806ZM107.647 72.7877C107.796 72.9361 106.117 79.0093 105.08 82.3179C103.055 88.5892 99.6483 96.4403 96.3404 102.366C95.5493 103.748 94.3646 105.773 93.7227 106.908L92.4885 108.883L89.7232 106.218C86.5139 103.106 83.8962 101.181 80.5391 99.452C79.2049 98.7614 78.1684 98.1682 78.1684 98.0701C78.1684 97.675 86.6123 90.0213 93.081 84.4907C97.7223 80.4908 107.5 72.6397 107.647 72.7877ZM149.457 90.5127L147.037 88.933L145.308 91.5988C136.716 104.487 125.162 117.721 112.125 129.72C111.807 130.013 111.509 130.288 111.231 130.544C107.941 133.578 107.399 134.077 107.453 134.154C107.464 134.169 107.498 134.167 107.538 134.165C107.552 134.165 107.567 134.164 107.582 134.164C107.73 134.164 109.656 133.473 111.927 132.634C132.321 125.128 149.802 119.548 172.418 113.277L176.417 112.142L175.825 111.499C174.738 110.314 169.306 105.425 166.492 103.104C161.504 98.9073 154.986 94.118 149.457 90.5127ZM136.679 91.5022C136.778 91.6005 130.013 101.131 125.963 106.513C121.124 112.933 112.532 123.697 106.607 130.708C104.138 133.622 102.015 136.042 101.916 136.091C101.768 136.141 101.718 135.4 101.718 134.264C101.718 128.289 100.188 121.919 97.521 116.488C96.3852 114.216 96.1875 113.673 96.4353 113.426C97.3732 112.587 111.742 104.389 120.828 99.5013C126.951 96.2423 136.53 91.4033 136.679 91.5022ZM76.9321 108.092C75.6481 107.4 74.5122 106.808 74.3638 106.808C74.2654 106.808 73.7713 107.895 73.3764 109.327C72.29 112.635 70.7596 116.438 69.2292 119.647C67.5002 123.252 65.8714 126.066 62.612 131.054C62.1188 131.794 62.2659 131.696 66.6124 128.239C70.7596 124.93 77.87 119.548 82.5612 116.19C84.2401 114.956 85.5235 113.919 85.4251 113.82C82.9069 111.746 80.0922 109.82 76.9321 108.092ZM90.8098 119.848C91.054 119.799 91.3485 120.236 92.6546 122.172L92.6857 122.218C95.5004 126.415 97.6731 132.045 98.2171 136.588L98.3148 137.576L91.5508 140.193C79.452 144.883 68.293 149.525 60.7369 152.981C58.6142 153.969 54.9106 155.747 52.4914 156.932C50.0716 158.166 48.0964 159.105 48.0964 159.055C48.0964 159.006 49.6269 157.87 51.5032 156.487C66.2686 145.773 79.0574 134.02 88.6368 122.268C89.674 121.033 90.6126 119.897 90.7106 119.848L90.8098 119.848ZM73.9623 132.191C77.8139 128.291 83.4431 121.921 83.2455 121.723C83.0478 121.526 66.3086 132.883 59.0497 138.117C56.3334 140.044 55.9875 140.39 54.1112 142.809C51.2965 146.463 48.8279 149.425 45.5685 152.931C40.4328 158.511 39.9886 159.005 40.3344 158.808C40.4829 158.709 41.8159 157.87 43.2971 156.932C55.0004 149.525 64.432 141.92 73.9623 132.191Z" transform="translate(22.76349 34.02286)" id="Shape" fill="#FFFFFF" fill-rule="evenodd" stroke="none" />
    </g>
    <path d="M95.4252 20.151L97.5731 20.151L97.5731 8.5224L100.718 8.5224L100.718 6.71486L97.5729 6.71486L97.5729 4.6409C97.5729 2.75503 98.3034 1.80686 99.8147 1.80686C100.323 1.80686 100.842 1.93506 101.227 2.15252L101.227 0.212225C100.842 0.0394013 100.323 0 99.676 0C98.5158 0 97.5679 0.345884 96.7923 1.07637C95.8886 1.93551 95.4099 3.05151 95.4099 4.56303L95.4099 6.76542L93.1378 6.76542L93.1378 8.5725L95.4099 8.5725L95.4099 20.1573L95.4252 20.151ZM26.8267 3.27304C27.222 3.27304 27.5576 3.13938 27.8142 2.87819C28.0761 2.6211 28.2491 2.28546 28.2491 1.89063C28.2491 1.50534 28.1205 1.15946 27.8195 0.903066C27.5528 0.641197 27.2119 0.507538 26.8219 0.507538C26.4371 0.507538 26.0914 0.641197 25.8341 0.903066C25.5731 1.15946 25.3999 1.50536 25.3999 1.89063C25.3999 2.32032 25.5333 2.62112 25.8341 2.87819C26.131 3.13937 26.4368 3.27304 26.8219 3.27304L26.8267 3.27304ZM212.455 6.15697L213.057 6.15697L213.057 1.33252L214.651 1.33252L214.651 0.730011L210.859 0.730011L210.859 1.33252L212.455 1.33252L212.455 6.15697ZM216.075 1.46802C216.108 1.68601 216.108 2.06791 216.108 2.53255L216.074 2.53777L216.074 6.1622L215.467 6.1622L215.467 0.730456L216.336 0.730456L218.014 4.52293C218.138 4.81873 218.227 4.99133 218.261 5.16461L218.311 5.16461C218.394 4.86791 218.528 4.60673 218.568 4.47307L220.246 0.730011L221.022 0.730011L221.022 6.15218L220.38 6.15218L220.38 2.49793C220.38 2.23561 220.38 1.89087 220.419 1.46118C220.336 1.68297 220.296 1.85102 220.246 1.97922L218.39 6.15697L218.094 6.15697L216.242 2.01907C216.203 1.89201 216.115 1.72066 216.075 1.46803L216.075 1.46802ZM4.00832 7.53435C4.00832 5.85547 3.95914 4.60649 3.91952 3.87053L3.95914 3.87053C4.13174 4.73901 4.34419 5.38638 4.51702 5.81584L10.9361 20.1557L12.0127 20.1557L18.4318 5.68763C18.605 5.29302 18.7779 4.70007 18.9901 3.87531L19.0393 3.87531C18.9111 5.30759 18.8667 6.55179 18.8667 7.54414L18.8667 20.2003L21.0636 20.2003L21.0636 1.38669L18.3083 1.38669L12.4078 14.4721C12.1903 14.9904 11.889 15.7662 11.504 16.7932L11.4147 16.7932C11.2865 16.2845 10.9853 15.5091 10.5558 14.561L4.788 1.34186L1.86014 1.34186L1.86014 20.1553L3.97349 20.1553L3.97349 7.54369L4.00832 7.53435ZM107.78 20.4522C105.41 20.4522 104.249 19.1142 104.249 16.4869L104.244 16.4822L104.244 8.51717L101.923 8.51717L101.923 6.70963L104.244 6.70963L104.244 3.44089C104.931 3.22411 105.657 3.00666 106.397 2.75003L106.397 6.70987L109.804 6.70987L109.804 8.51741L106.397 8.51741L106.397 16.0969C106.397 16.9956 106.57 17.648 106.876 18.0326C107.178 18.4227 107.691 18.5962 108.422 18.5962C108.94 18.5962 109.409 18.4577 109.804 18.1613L109.804 20.008C109.286 20.3142 108.639 20.4522 107.78 20.4522ZM115.226 11.371C116.303 11.371 117.201 11.0258 117.942 10.2851C118.672 9.55389 119.058 8.69475 119.058 7.61838C119.058 6.54177 118.672 5.64302 117.942 4.9517C117.201 4.26061 116.347 3.91449 115.275 3.91449C114.189 3.91449 113.29 4.26061 112.559 4.9911C111.819 5.72227 111.483 6.62103 111.483 7.658C111.483 8.7444 111.829 9.6427 112.559 10.3247C113.251 11.0156 114.15 11.3614 115.226 11.3614L115.226 11.371ZM115.275 4.30978C114.278 4.30978 113.498 4.60648 112.856 5.24816C112.214 5.8903 111.918 6.67019 111.918 7.61837C111.918 8.56631 112.263 9.38628 112.905 10.028C113.547 10.6797 114.322 10.9759 115.275 10.9759C116.214 10.9759 116.994 10.6694 117.646 10.028C118.288 9.38628 118.634 8.56632 118.634 7.61837C118.634 6.67019 118.288 5.89006 117.646 5.24816C116.994 4.60648 116.214 4.30978 115.275 4.30978ZM114.451 7.96427L114.885 7.96427C115.192 7.96427 115.493 8.26028 115.749 8.82341L116.268 9.98837L117.083 9.98837L116.441 8.69431C116.179 8.17627 115.923 7.87501 115.621 7.79054C116.001 7.70173 116.303 7.57353 116.52 7.31646C116.737 7.09467 116.816 6.79319 116.816 6.45231C116.816 6.05747 116.693 5.76145 116.431 5.54399C116.135 5.29715 115.661 5.16394 115.048 5.16394L113.676 5.16394L113.676 9.98838L114.367 9.98838L114.367 7.96384L114.451 7.96427ZM115.053 5.72226L114.441 5.72226L114.441 7.36176L115.182 7.36176C115.823 7.36176 116.169 7.09967 116.169 6.54178C116.169 6.23596 116.125 6.0677 115.962 5.93927C115.794 5.81107 115.488 5.72226 115.053 5.72226ZM85.4306 6.36895C83.4056 6.36895 81.7764 6.97168 80.5666 8.13686C79.2828 9.42136 78.5914 11.2335 78.5914 13.5593C78.5914 15.5838 79.1498 17.2629 80.3099 18.5121C81.5197 19.8055 83.1096 20.4524 85.1344 20.4524C87.2081 20.4524 88.7886 19.8009 89.9982 18.5067C91.208 17.2231 91.8103 15.4948 91.8103 13.3416C91.8103 11.1442 91.2474 9.46554 90.1312 8.21611C88.9665 6.96668 87.4153 6.36417 85.4402 6.36417L85.4306 6.36895ZM63.9453 18.5117C62.7357 19.8051 61.1062 20.457 59.0814 20.457L59.0814 20.452C57.0617 20.452 55.4666 19.805 54.262 18.5117C53.0964 17.2625 52.5433 15.5834 52.5433 13.5588C52.5433 11.233 53.2248 9.42091 54.5184 8.13642C55.728 6.97124 57.3575 6.3685 59.3822 6.3685C61.407 6.3685 62.9579 6.97171 64.0737 8.22022C65.1997 9.47011 65.7523 11.1492 65.7523 13.3459C65.7523 15.4993 65.1498 17.2272 63.9453 18.5117ZM41.2952 17.4795L41.2952 19.5439C40.258 20.1459 39.0582 20.4522 37.5922 20.4927C35.6963 20.4927 34.1502 19.8408 32.9406 18.5572C31.7798 17.3078 31.2219 15.6731 31.2219 13.7278C31.2219 11.5402 31.8638 9.72786 33.1084 8.39486C34.3626 7.06117 36.0411 6.36963 38.1943 6.36963C39.3599 6.36963 40.3919 6.58709 41.2954 7.06117L41.2954 9.25856C40.3022 8.56701 39.2262 8.22089 38.1055 8.22089C36.7326 8.22089 35.6114 8.69497 34.7472 9.64293C33.8487 10.6305 33.4142 11.9248 33.4142 13.5543C33.4142 15.1095 33.8487 16.3594 34.6632 17.2581C35.483 18.1665 36.6044 18.6403 37.9866 18.6403C39.142 18.6403 40.258 18.2548 41.2952 17.4795ZM76.4339 16.5311C76.4339 17.6575 75.9989 18.5563 75.1794 19.2868L75.1687 19.2918C74.3093 20.0672 73.0604 20.4572 71.4653 20.541C70.2211 20.541 69.0951 20.2846 68.1567 19.721L68.1567 17.4009C69.1944 18.2598 70.3543 18.6847 71.6481 18.6847C73.3273 18.6847 74.1862 18.0374 74.1862 16.7836C74.1862 16.2745 74.0133 15.8452 73.6283 15.4991C73.2384 15.1537 72.5077 14.7245 71.4309 14.2501C70.3056 13.7815 69.4952 13.2578 69.0211 12.7441C68.4584 12.142 68.1624 11.3221 68.1624 10.3345C68.1624 9.21895 68.5916 8.271 69.4954 7.53961C70.355 6.80458 71.5204 6.42407 72.9028 6.42407C73.9794 6.42407 74.9226 6.63152 75.7915 7.06553L75.7915 9.21873C74.8832 8.57159 73.8908 8.26577 72.7304 8.26577C71.9897 8.26577 71.4366 8.43359 71.0021 8.7788C70.5772 9.12446 70.3598 9.55413 70.3598 10.112C70.3598 10.7198 70.5722 11.149 70.9177 11.4944C71.2635 11.7957 71.9052 12.1814 72.9427 12.6154C74.1131 13.0895 74.9223 13.559 75.4461 14.0771C76.0877 14.724 76.4339 15.5435 76.4339 16.5311ZM46.7217 13.2972C46.7217 11.7515 47.0674 10.5025 47.7093 9.64269C48.312 8.8678 49.0425 8.47773 49.9066 8.47773C50.6376 8.47773 51.1558 8.61094 51.5359 8.9122L51.5359 6.67019C51.2399 6.54199 50.8102 6.49759 50.2523 6.49759C49.477 6.49759 48.7861 6.75854 48.1786 7.23832C47.5367 7.74634 47.0232 8.52213 46.7219 9.5097L46.6727 9.5097L46.6727 6.75899L44.5248 6.75899L44.5248 20.1903L46.6775 20.1903L46.6775 13.2972L46.7217 13.2972ZM27.7751 7.56943L25.8785 7.56943L25.8785 19.2868L27.7751 19.2868L27.7751 7.56943ZM88.5315 17.2229C89.2623 16.3587 89.6079 15.0697 89.6079 13.4306L89.6029 13.4306C89.6029 11.7071 89.2176 10.4181 88.5261 9.47011C87.7512 8.6105 86.6794 8.17627 85.3464 8.17627C84.0084 8.17627 82.9313 8.61096 82.117 9.47011C81.2529 10.3693 80.823 11.7023 80.823 13.4306C80.823 15.0697 81.213 16.3143 82.0275 17.2229C82.8475 18.1262 83.9186 18.6053 85.3017 18.6053C86.724 18.6053 87.8006 18.1266 88.5315 17.2229ZM56.0302 9.51452C56.85 8.65037 57.9268 8.22046 59.2596 8.22046C60.6427 8.22046 61.6794 8.65037 62.4497 9.51452C63.2248 10.4183 63.6104 11.7073 63.6104 13.4304C63.6104 15.0694 63.2645 16.3585 62.5335 17.2226C61.8031 18.1264 60.7265 18.6051 59.304 18.6051C57.9216 18.6051 56.85 18.126 56.0302 17.2226C55.2157 16.3141 54.8254 15.0694 54.8254 13.4304C54.7416 11.8009 55.1713 10.4679 56.0302 9.51452ZM62.916 25.2283C62.3978 25.2283 61.8793 25.2777 61.3656 25.2777C50.8967 25.8356 43.836 30.4428 39.7076 39.44C36.1768 47.5771 36.5623 58.2136 39.7473 66.4006C43.4509 74.4002 49.4355 78.6221 59.4248 80.2168C61.5384 80.5629 62.9557 81.7233 67.0492 86.5028L72.0861 92.4039L81.2212 92.4039L75.1469 86.2804C71.7891 82.9228 69.0733 79.9993 69.0733 79.7424C69.0733 79.4858 70.3578 78.9229 71.9125 78.449C77.0382 76.8979 81.2948 72.9381 84.2723 66.8692C86.6821 61.9958 87.028 60.4893 87.3734 54.4259C88.2772 36.3778 78.7615 25.0942 62.9156 25.2231L62.916 25.2283ZM6.68886 38.8402C6.2988 42.5436 9.48875 45.6844 16.6782 50.04L16.6786 50.0343C27.4776 56.4882 30.3274 60.6216 29.5026 68.5023C28.5547 76.8967 18.5253 82.0666 7.50428 79.8692C3.06057 79.0108 0.0976429 77.7661 0.0976429 77.7661C0.0976429 77.7661 -0.080652 72.5074 0.265236 70.3098C0.354041 70.3098 2.03316 71.1346 4.01785 72.1222C13.6615 76.9862 23.0089 74.2802 23.0089 66.5274C23.0089 62.7747 19.997 59.3327 13.1828 55.3679C1.04513 48.3062 -2.3131 41.976 1.4796 33.5815C4.0618 27.8929 9.57255 25.0983 18.0954 25.2267C23.6508 25.3157 27.5273 26.9946 27.5273 26.9946L27.4774 33.8878C20.4658 30.0113 7.80463 28.594 6.68886 38.8402ZM152.649 50.1238C145.46 45.7784 142.28 42.6276 142.665 38.924C143.781 28.6726 156.442 30.0951 163.454 33.9715L163.503 27.0784C163.503 27.0784 159.627 25.3993 154.071 25.32C145.549 25.1918 140.038 27.9867 137.451 33.6751C133.663 42.0693 137.065 48.4 149.163 55.4615C155.968 59.422 158.98 62.8192 158.98 66.5718C158.98 74.3245 149.637 77.075 139.994 72.1663C138.018 71.1787 136.34 70.3638 136.241 70.3638C135.895 72.5609 136.073 77.8203 136.073 77.8203C136.073 77.8203 139.001 79.0203 143.431 79.9236C154.462 82.126 164.496 76.9607 165.439 68.5663C166.259 60.7247 163.415 56.5918 152.65 50.1329L152.65 50.1238L152.649 50.1238ZM99.8197 49.9021L99.8197 25.8737L93.134 25.8737L93.134 79.0953L121.251 79.0953L121.251 72.8097L99.8199 72.8097L99.8199 49.9021L99.8197 49.9021ZM54.7243 73.4609C58.9366 75.0063 65.3899 74.5767 69.834 72.4241L69.8388 72.4196C76.683 69.101 80.2582 61.0918 79.6063 50.4158C78.7816 37.6268 72.4611 30.822 61.3508 30.822C53.8601 30.822 48.7342 34.2289 44.8579 41.6358C42.4481 46.2879 42.1471 56.6178 44.2554 62.2174C46.152 67.3381 50.3689 71.8612 54.7243 73.4609ZM335.345 41.2455C334.614 40.5547 333.75 40.2088 332.678 40.2088C331.592 40.2088 330.693 40.5547 329.962 41.2952C329.232 42.0211 328.885 42.9244 328.885 43.9619C328.885 45.0385 329.232 45.9372 329.957 46.6281C330.688 47.3194 331.586 47.6655 332.673 47.6655C333.744 47.6655 334.648 47.3194 335.389 46.5887C336.115 45.848 336.5 44.9938 336.5 43.9225C336.46 42.8361 336.07 41.9371 335.34 41.246L335.345 41.2455ZM284.94 40.209C283.646 40.209 282.273 40.3866 280.841 40.6879C271.978 43.0087 266.985 51.5022 267.326 60.2425C267.326 67.5508 268.743 71.175 272.273 75.0066C279.508 80.9473 286.051 81.4259 294.924 78.2364C296.425 77.5947 298.06 76.8642 298.06 76.8642L298.06 70.919L294.919 72.5578C287.76 75.659 282.377 75.659 278.081 71.9952C275.316 69.2003 274.116 65.8819 273.558 62.0054L300.252 62.0054L300.252 56.9193C300.252 46.5994 294.01 40.0464 284.925 40.2195L284.94 40.209ZM187.279 40.3007L187.284 40.3007C196.367 40.1355 202.606 46.6827 202.606 57.0502L202.606 62.137L175.867 62.137C176.425 65.9684 177.635 69.3262 180.385 72.1261C184.696 75.7901 190.079 75.7901 197.224 72.6794L200.37 71.0499L200.37 76.9851C200.37 76.9851 198.73 77.7259 197.224 78.3678C188.395 81.5522 181.853 81.0784 174.618 75.1432C171.087 71.3061 169.665 67.6475 169.665 60.3292C169.359 51.5889 174.361 43.0956 183.235 40.7753C184.605 40.4742 185.981 40.3012 187.279 40.3007ZM315.149 45.1667C317.09 42.1097 320.057 40.5547 323.889 40.5547L326.95 40.5549L326.95 47.1072L324.58 46.4161C321.049 45.424 317.395 47.4927 315.272 51.6256C313.726 54.6377 313.593 55.9316 313.593 66.9533L313.593 79.0113L306.966 79.0113L306.966 41.2954L313.598 41.2954L313.598 47.5763L315.149 45.1667ZM332.629 47.27C333.577 47.27 334.357 46.9738 334.999 46.3321C335.69 45.6802 335.987 44.9101 335.987 43.9122C335.987 42.9739 335.641 42.1942 334.999 41.5423C334.348 40.9008 333.567 40.6039 332.629 40.6039C331.637 40.6039 330.861 40.9008 330.219 41.5423C329.567 42.1942 329.271 42.9739 329.271 43.9122C329.271 44.8654 329.617 45.6802 330.259 46.3321C330.911 46.9738 331.691 47.27 332.629 47.27ZM226.231 40.6435C222.399 40.6435 219.466 42.1944 217.491 45.2502L215.94 47.6701L215.94 41.379L209.309 41.379L209.309 79.1051L215.936 79.1051L215.936 67.0466C215.936 56.0201 216.073 54.7313 217.614 51.7139C219.738 47.576 223.391 45.5125 226.923 46.5001L229.293 47.1914L229.293 40.6535L226.231 40.6535L226.231 40.6435ZM248.926 71.7326L254.437 57.3927L254.432 57.3978C257.443 48.9145 260.333 41.3396 260.333 41.3396L266.875 41.3396L259.295 60.4101L251.853 79.0953C251.151 79.0953 250.448 79.1008 249.745 79.1062L249.744 79.1063C248.336 79.1172 246.929 79.1281 245.523 79.0953C240.659 66.696 235.836 53.907 231.401 41.3348L238.245 41.3348L243.627 57.3137L248.926 71.7326ZM333.967 43.6606C333.757 43.8704 333.456 44.0416 333.077 44.1313C333.33 44.2225 333.579 44.4807 333.795 45.0278L334.437 46.3219L333.617 46.3219L333.104 45.1615C332.837 44.5983 332.541 44.3023 332.244 44.3023L331.815 44.3023L331.815 46.3269L331.124 46.3269L331.124 41.5077L332.497 41.5077C333.104 41.5077 333.582 41.6411 333.879 41.8882C334.14 42.1004 334.264 42.4067 334.264 42.7919C334.264 43.1367 334.184 43.4382 333.967 43.6606ZM331.849 43.7002L332.589 43.7002C333.228 43.6995 333.572 43.4423 333.572 42.8857C333.572 42.5795 333.533 42.4114 333.36 42.2832C333.187 42.1495 332.886 42.071 332.456 42.071L331.849 42.071L331.849 43.7002ZM278.765 47.7045C275.285 50.1663 274.212 56.132 274.116 56.7064L274.115 56.7064L274.109 56.7511C274.109 56.7511 274.111 56.7358 274.116 56.7064L294.049 56.7064C294.049 56.7064 293.486 50.3315 290.128 47.7489C288.493 46.4947 286.503 45.8528 284.528 45.8528C282.548 45.8528 280.524 46.4555 278.765 47.7045ZM196.396 56.7909L176.464 56.7909C176.564 56.1911 177.631 50.2421 181.108 47.8331C182.871 46.5885 184.896 45.9864 186.875 45.9864C188.861 45.9864 190.841 46.6281 192.475 47.8778C195.833 50.4602 196.396 56.7909 196.396 56.7909ZM176.464 56.7909L176.457 56.7909L176.456 56.8399C176.456 56.8399 176.459 56.8231 176.464 56.7909Z" transform="translate(0 179.7316)" id="Shape" fill="#FFFFFF" fill-rule="evenodd" stroke="none" />
  </g>
</svg>