<?xml version="1.0" encoding="utf-8"?>
<svg width="321px" height="321px" viewBox="0 0 321 321" version="1.1" xmlns:xlink="http://www.w3.org/1999/xlink" xmlns="http://www.w3.org/2000/svg">
  <desc>Created with Lunacy</desc>
  <g id="Microsoft-Dotnet-01">
    <g id="XMLID_1_">
      <path d="M29.999 0L291.001 0C307.569 0 321 13.431 321 29.999L321 291.001C321 307.569 307.569 321 291.001 321L29.999 321C13.431 321 0 307.569 0 291.001L0 29.999C0 13.431 13.431 0 29.999 0Z" id="XMLID_5_" fill="#FFFFFF" stroke="none" />
      <g id="XMLID_3_" transform="translate(27.96658 84.07565)">
        <path d="M13.8954 25.7679C15.5663 24.2729 16.3578 22.514 16.3578 20.3153C16.3578 18.2926 15.6543 16.7096 14.423 15.3904C13.4556 14.3351 11.7847 13.3677 9.4981 12.4003C7.47537 11.5208 6.06824 10.8172 5.45262 10.2016C4.74906 9.49807 4.39726 8.61862 4.39726 7.38739C4.39726 6.2441 4.83699 5.36465 5.71644 4.66108C6.59589 3.95752 7.73917 3.60574 9.1463 3.60574C11.4329 3.60574 13.4556 4.22136 15.2145 5.54054L15.2145 1.23123C13.5436 0.351775 11.6088 0 9.49808 0C6.68382 0 4.48519 0.703564 2.63836 2.19863C0.879453 3.6937 0 5.54055 0 7.73918C0 9.76192 0.527677 11.3449 1.67095 12.5762C2.63836 13.6315 4.22136 14.5989 6.50794 15.6542C8.70657 16.6216 10.2017 17.4132 10.9052 18.1167C11.6967 18.8203 12.0485 19.6997 12.0485 20.6671C12.0485 23.1296 10.3775 24.4488 6.94767 24.4488C4.39726 24.4488 2.11068 23.5693 0 21.8984L0 26.5595C1.93481 27.6148 4.13344 28.1425 6.68384 28.1425C9.58608 28.1424 12.0485 27.3509 13.8954 25.7679L13.8954 25.7679Z" transform="translate(164.7213 12.84001)" id="XMLID_4_" fill="#000000" stroke="none" />
        <path d="M4.57315 40.2789L8.88246 40.2789L8.88246 17.0614L15.2145 17.0614L15.2145 13.4556L8.88246 13.4556L8.88246 9.32218C8.88246 5.54054 10.3775 3.60575 13.3677 3.60575C14.423 3.60575 15.3904 3.86958 16.1819 4.30931L16.1819 0.439726C15.3904 0.0879506 14.423 0 13.1038 0C10.8173 0 8.88249 0.703564 7.29946 2.19863C5.45261 3.86958 4.57315 6.15616 4.57315 9.1463L4.57315 13.5436L0 13.5436L0 17.1493L4.57315 17.1493L4.57315 40.2789L4.57315 40.2789Z" transform="translate(214.4983 0)" id="XMLID_29_" fill="#000000" stroke="none" />
        <path d="M2.81425 5.54053C3.60575 5.54053 4.30931 5.2767 4.83699 4.74903C5.36467 4.22136 5.62849 3.51781 5.62849 2.72629C5.62849 1.93479 5.36466 1.31916 4.83699 0.791501C4.30931 0.263825 3.60576 0 2.81425 0C2.02274 0 1.40712 0.263838 0.791502 0.791501C0.263825 1.31918 0 2.02273 0 2.72629C0 3.51779 0.263839 4.22136 0.791502 4.74903C1.40712 5.2767 2.11068 5.54053 2.81425 5.54053L2.81425 5.54053Z" transform="translate(79.15067 1.055353)" id="XMLID_30_" fill="#000000" stroke="none" />
        <path d="M12.7521 28.1425C15.5663 28.1425 18.0288 27.5269 20.1395 26.2956L20.1395 22.2501C18.1167 23.8332 15.9181 24.5367 13.5436 24.5367C10.7293 24.5367 8.5307 23.6573 6.85973 21.8104C5.18878 19.9636 4.39726 17.5011 4.39726 14.423C4.39726 11.1691 5.27672 8.5307 7.12357 6.5959C8.88248 4.66111 11.0811 3.69371 13.8074 3.69371C16.094 3.69371 18.2047 4.39727 20.2274 5.80439L20.2274 1.40713C18.3806 0.527677 16.3578 0 13.9833 0C9.76193 0 6.33207 1.31918 3.78165 4.04549C1.23124 6.77179 0 10.2896 0 14.6869C0 18.6444 1.14329 21.8104 3.42986 24.2729C5.80441 26.8233 8.88249 28.1425 12.7521 28.1425L12.7521 28.1425Z" transform="translate(90.75942 12.83998)" id="XMLID_31_" fill="#000000" stroke="none" />
        <path d="M2.02273 5.27671L1.31918 5.27671L1.31918 9.14628L0 9.14628L0 0L2.55041 0C3.69369 0 4.48519 0.263825 5.10082 0.7915C5.54054 1.31918 5.80437 1.84684 5.80437 2.5504C5.80437 3.16602 5.62847 3.69369 5.18874 4.13342C4.83696 4.57314 4.22134 4.83698 3.51779 5.01287C4.04546 5.1008 4.48519 5.71642 5.01287 6.68382L6.24409 9.14628L4.66109 9.14628L3.69369 6.94766C3.16601 5.80438 2.63836 5.27671 2.02273 5.27671ZM2.37451 1.14329L1.2312 1.14329L1.2312 4.30932L2.63833 4.30932C3.86956 4.30932 4.48519 3.78164 4.48519 2.7263C4.48519 2.19863 4.30929 1.84685 4.04546 1.58301C3.69369 1.31918 3.16601 1.14329 2.37451 1.14329Z" transform="translate(255.129 10.28958)" id="XMLID_34_" fill="#000000" fill-rule="evenodd" stroke="none" />
        <path d="M4.57316 27.4389C4.57316 32.7156 6.94769 35.354 11.6088 35.354C13.2797 35.354 14.5989 35.0901 15.6543 34.4745L15.6543 30.7808C14.8628 31.3964 13.9833 31.6603 12.84 31.6603C11.4329 31.6603 10.3776 31.3085 9.76192 30.517C9.1463 29.8134 8.88247 28.4942 8.88247 26.6474L8.88247 11.5208L15.6543 11.5208L15.6543 7.91507L8.88247 7.91507L8.88247 0C7.38739 0.527677 5.98029 0.967403 4.57316 1.40713L4.57316 8.00302L0 8.00302L0 11.6088L4.57316 11.6088L4.57316 27.4389L4.57316 27.4389Z" transform="translate(231.9994 5.540548)" id="XMLID_35_" fill="#000000" stroke="none" />
        <path d="M12.1364 12.1364C10.7293 13.4556 9.05835 14.1592 7.03562 14.1592C5.01289 14.1592 3.34191 13.5436 2.02273 12.1364C0.703551 10.7293 0 9.05836 0 7.03562C0 5.10082 0.615601 3.42987 2.02273 2.02274C3.34191 0.703564 5.10081 0 7.12354 0C9.05835 0 10.8173 0.615614 12.1364 1.93479C13.5436 3.25397 14.2471 5.01287 14.2471 7.03562C14.2471 9.05836 13.5436 10.8173 12.1364 12.1364ZM7.03562 0.791502C5.27671 0.791502 3.78163 1.40713 2.55041 2.63836C1.40713 3.86958 0.791501 5.36466 0.703551 7.03563C0.703551 8.88247 1.31918 10.3776 2.55041 11.6088C3.78163 12.7521 5.27671 13.3677 7.03562 13.3677C8.79453 13.3677 10.2896 12.7521 11.5208 11.5208C12.7521 10.3775 13.3677 8.79452 13.3677 7.03562C13.3677 5.27671 12.7521 3.78163 11.5208 2.55041C10.2896 1.40712 8.79453 0.791502 7.03562 0.791502Z" transform="translate(250.8197 7.827115)" id="XMLID_40_" fill="#000000" fill-rule="evenodd" stroke="none" />
        <path d="M0 0L4.30932 0L4.30932 26.8233L0 26.8233L0 0Z" transform="translate(79.7663 13.4556)" id="XMLID_41_" fill="#000000" stroke="none" />
        <path d="M22.8658 24.2729C20.4033 26.8233 17.1493 28.1425 13.1038 28.1425C9.05837 28.1425 5.80439 26.8233 3.42986 24.2729C1.14329 21.8104 0 18.5564 0 14.423C0 9.76192 1.31918 6.15616 3.95753 3.60576C6.42002 1.23123 9.67397 0 13.7195 0C17.7649 0 20.843 1.23123 23.1296 3.6937C25.3282 6.2441 26.4715 9.67397 26.4715 13.9833C26.4715 18.2926 25.2403 21.7225 22.8658 24.2729ZM13.3677 3.60575C10.7293 3.60575 8.53067 4.4852 6.94767 6.2441C5.27671 8.09094 4.39726 10.7293 4.30932 14.0712C4.30932 17.3252 5.10084 19.8756 6.77179 21.6345C8.3548 23.4814 10.5534 24.3608 13.2797 24.3608C16.1819 24.3608 18.2926 23.4814 19.7877 21.6345C21.2828 19.7877 21.9863 17.2372 21.9863 13.9833C21.9863 10.5534 21.2827 7.91506 19.6997 6.15615C18.2046 4.4852 16.094 3.60575 13.3677 3.60575Z" transform="translate(133.3249 12.84001)" id="XMLID_44_" fill="#000000" fill-rule="evenodd" stroke="none" />
        <path d="M26.4715 13.9833C26.4715 18.2926 25.2403 21.7225 22.8657 24.2729C20.4033 26.9112 17.1493 28.2304 13.0159 28.1425C8.97039 28.1425 5.80439 26.8233 3.42986 24.2729C1.14328 21.8104 0 18.5564 0 14.423Q0 7.43137 3.95753 3.60576C6.42001 1.23123 9.67397 0 13.7194 0C17.7649 0 20.843 1.23123 23.1296 3.6937C25.3282 6.2441 26.4715 9.67397 26.4715 13.9833ZM6.94766 6.33205C5.27671 8.17891 4.39726 10.8173 4.39726 14.2471C4.39726 17.5011 5.27671 20.0515 6.85974 21.7224C8.44274 23.5693 10.6414 24.4488 13.3677 24.4488C16.2699 24.4488 18.3805 23.5693 19.8756 21.7224C21.3707 19.8756 22.0742 17.3252 22.0742 14.0712C22.0742 10.6414 21.2827 8.003 19.6997 6.2441C18.2046 4.57315 16.094 3.6937 13.3676 3.6937C10.7293 3.6937 8.53066 4.57315 6.94766 6.33205Z" transform="translate(185.3005 12.75206)" id="XMLID_47_" fill="#000000" fill-rule="evenodd" stroke="none" />
        <path d="M11.5208 53.7345L47.1386 53.7345L47.1386 43.2691L11.5208 43.2691L11.5208 10.4655L49.9529 10.4655L49.9529 0L0 0L0 98.5866L52.2395 98.5866L52.2395 88.1211L11.5208 88.1211L11.5208 53.7345Z" transform="translate(133.4128 52.67918)" id="XMLID_48_" fill="#000000" stroke="none" />
        <path d="M0 10.4655L28.4942 10.4655L28.4942 98.5866L40.0151 98.5866L40.0151 10.4655L68.4214 10.4655L68.4214 0L0 0L0 10.4655Z" transform="translate(196.4696 52.67918)" id="XMLID_49_" fill="#000000" stroke="none" />
        <path d="M7.56329 0C5.4526 0 3.6937 0.791501 2.19863 2.28658C0.703564 3.78166 0 5.62848 0 7.82711C0 9.93779 0.703564 11.7846 2.19863 13.2797C3.6937 14.7748 5.4526 15.5663 7.56329 15.5663C9.76192 15.5663 11.5208 14.7748 13.1038 13.2797C14.5989 11.7846 15.3904 9.93782 15.3904 7.82711C15.3904 5.71643 14.5989 3.86958 13.1038 2.3745C11.5208 0.703577 9.67397 0 7.56329 0L7.56329 0Z" transform="translate(0 137.3704)" id="XMLID_50_" fill="#000000" stroke="none" />
        <path d="M7.29946 1.49508C5.98028 2.55042 5.01288 4.04548 4.39726 6.06823L4.30931 6.06823L4.30931 0.527677L0 0.527677L0 27.351L4.30931 27.351L4.30931 13.6315C4.30931 10.5534 5.01288 8.09096 6.33205 6.33205C7.56328 4.74904 8.97041 3.95753 10.7293 3.95753C12.1364 3.95753 13.2797 4.22137 13.9833 4.83699L13.9833 0.351775C13.3677 0.0879371 12.5762 0 11.4329 0C9.93781 0.0879506 8.53068 0.527677 7.29946 1.49508L7.29946 1.49508Z" transform="translate(117.4068 12.92793)" id="XMLID_51_" fill="#000000" stroke="none" />
        <path d="M4.04549 5.01287L4.13344 5.01287L18.1167 37.5526L20.2274 37.5526L34.2107 5.01287L34.2986 5.01287L33.9469 37.5526L38.3441 37.5526L38.3441 0L32.8036 0L19.26 30.6929L18.9962 30.6929L5.80439 0L0 0L0 37.5526L4.22137 37.5526L4.04549 5.01287Z" transform="translate(32.18793 2.726292)" id="XMLID_52_" fill="#000000" stroke="none" />
        <path d="M67.9817 83.2841L15.0386 0L0 0L0 98.5866L11.6088 98.5866L11.6088 14.0712L65.4312 98.5866L79.4145 98.5866L79.4145 0L67.9817 0L67.9817 83.2841Z" transform="translate(32.1 52.67918)" id="XMLID_53_" fill="#000000" stroke="none" />
      </g>
    </g>
  </g>
</svg>