<?xml version="1.0" encoding="utf-8"?>
<svg width="1920px" height="1080px" viewBox="0 0 1920 1080" version="1.1" xmlns:xlink="http://www.w3.org/1999/xlink" xmlns="http://www.w3.org/2000/svg">
  <desc>Created with Lunacy</desc>
  <defs>
    <rect width="1920" height="1080" id="artboard_1" />
    <clipPath id="clip_1">
      <use xlink:href="#artboard_1" clip-rule="evenodd" />
    </clipPath>
  </defs>
  <g id="Full-HD" clip-path="url(#clip_1)">
    <use xlink:href="#artboard_1" stroke="none" fill="#000000" />
    <g id="icons8-ok" transform="translate(648.0001 228)">
      <path d="M312 0C139.787 0 0 139.787 0 312C0 484.213 139.787 624 312 624C484.213 624 624 484.213 624 312C624 139.787 484.213 0 312 0ZM605.091 312C605.091 150.017 473.983 18.9091 312 18.9091C150.017 18.9091 18.9091 150.017 18.9091 312C18.9091 473.983 150.017 605.091 312 605.091C473.983 605.091 605.091 473.983 605.091 312ZM312 47.2728C306.793 47.2728 302.546 51.5199 302.546 56.7272C302.546 61.9345 306.793 66.1816 312 66.1816C317.207 66.1816 321.454 61.9345 321.454 56.7272C321.454 51.5199 317.207 47.2728 312 47.2728ZM352.691 59.7953C353.614 55.2528 357.603 52.0397 362.219 52.1505C362.773 52.1875 363.29 52.2613 363.844 52.3352C368.941 53.3693 372.265 58.355 371.267 63.4885C370.233 68.585 365.248 71.9088 360.151 70.9117C355.018 69.8776 351.694 64.8919 352.691 59.7953ZM262.441 52.1847C261.813 52.1847 261.186 52.2216 260.558 52.3324C255.424 53.3665 252.101 58.3522 253.135 63.4856C253.615 65.9231 255.055 68.102 257.16 69.5054C259.228 70.8719 261.776 71.3889 264.251 70.9088C269.384 69.8747 272.708 64.9259 271.674 59.7925C270.788 55.3977 266.947 52.2216 262.441 52.1847ZM410.626 66.7007C406.712 66.6268 403.166 68.9165 401.652 72.5358C399.658 77.3737 401.948 82.8765 406.786 84.9077C411.624 86.902 417.126 84.6122 419.121 79.7743C421.152 74.9363 418.862 69.4336 414.024 67.4024C412.953 66.9592 411.771 66.7376 410.626 66.7007ZM211.437 67.4006C212.619 66.9205 213.875 66.699 215.13 66.699C218.934 66.7359 222.332 69.0256 223.809 72.534C225.803 77.372 223.514 82.8747 218.676 84.9059C213.838 86.9002 208.335 84.6105 206.341 79.7725C204.309 74.9345 206.599 69.4318 211.437 67.4006ZM166.504 91.8864C168.092 90.8154 169.976 90.2614 171.896 90.2614C174.998 90.2983 177.916 91.8864 179.651 94.5085C182.532 98.8295 181.387 104.702 177.029 107.582C172.672 110.5 166.799 109.318 163.919 104.997C161.001 100.639 162.183 94.767 166.504 91.8864ZM455.57 90.262C452.357 90.2251 449.328 91.8132 447.556 94.5092C444.638 98.8302 445.82 104.702 450.141 107.583C454.499 110.501 460.371 109.319 463.251 104.998C464.655 102.93 465.172 100.344 464.692 97.9069C464.212 95.4325 462.771 93.2535 460.666 91.887C459.152 90.853 457.416 90.299 455.57 90.262ZM127.599 124.83C129.372 123.02 131.846 122.023 134.395 122.023C136.869 122.06 139.196 123.057 140.931 124.83C144.625 128.486 144.625 134.506 140.931 138.162C137.275 141.855 131.256 141.855 127.599 138.162C123.906 134.506 123.906 128.486 127.599 124.83ZM495.404 122.023C492.855 122.023 490.381 123.02 488.608 124.83C484.915 128.486 484.915 134.506 488.608 138.162C492.265 141.855 498.284 141.855 501.94 138.162C505.634 134.506 505.634 128.486 501.94 124.83C500.205 123.057 497.878 122.06 495.404 122.023ZM520.607 162.317C522.195 161.246 524.041 160.692 525.962 160.729C529.064 160.729 531.982 162.317 533.717 164.902C536.635 169.26 535.453 175.095 531.095 178.013C526.774 180.931 520.902 179.749 518.022 175.391C515.104 171.07 516.286 165.198 520.607 162.317ZM101.486 160.73C98.2728 160.656 95.2445 162.244 93.4718 164.903C90.5912 169.261 91.7361 175.133 96.0939 178.014C100.452 180.931 106.287 179.749 109.204 175.428C112.085 171.07 110.94 165.198 106.582 162.318C105.068 161.321 103.332 160.767 101.486 160.73ZM414.227 209.44L420.912 202.756L467.187 249.031L285.852 430.329L175.832 331.906L218.784 282.344L282.898 340.807L414.227 209.44ZM68.158 210.698C69.6353 207.078 73.1806 204.789 77.0953 204.862C78.2771 204.899 79.422 205.121 80.493 205.601C85.3309 207.595 87.6206 213.098 85.6264 217.936C83.6321 222.774 78.0925 225.064 73.2545 223.07C68.4535 221.038 66.1637 215.536 68.158 210.698ZM548.64 204.864C547.385 204.827 546.129 205.086 544.947 205.566C540.109 207.56 537.819 213.1 539.814 217.901C541.845 222.739 547.348 225.029 552.186 223.034C557.024 221.04 559.313 215.5 557.319 210.662C555.842 207.191 552.444 204.864 548.64 204.864ZM420.912 229.495L440.449 249.031L285.151 404.329L202.349 330.207L220.372 309.378L283.489 366.917L420.912 229.495ZM560.691 252.919C561.319 252.808 561.947 252.734 562.575 252.771C567.08 252.771 570.958 255.947 571.845 260.342C572.842 265.475 569.518 270.461 564.384 271.495C559.288 272.492 554.302 269.169 553.268 264.035C552.271 258.939 555.595 253.953 560.691 252.919ZM62.0784 252.764C57.4619 252.654 53.4733 255.83 52.55 260.335C52.0699 262.81 52.55 265.395 53.9534 267.463C55.3568 269.568 57.5358 271.008 60.0102 271.488C62.4477 271.969 64.9959 271.452 67.1011 270.085C69.1692 268.682 70.6096 266.503 71.0897 264.028C72.1237 258.932 68.7999 253.946 63.7033 252.912C63.1494 252.838 62.6323 252.764 62.0784 252.764ZM47.2727 312C47.2727 306.793 51.5198 302.546 56.7272 302.546C61.9345 302.546 66.1816 306.793 66.1816 312C66.1816 317.207 61.9345 321.454 56.7272 321.454C51.5198 321.454 47.2727 317.207 47.2727 312ZM567.273 302.546C562.065 302.546 557.818 306.793 557.818 312C557.818 317.207 562.065 321.454 567.273 321.454C572.48 321.454 576.727 317.207 576.727 312C576.727 306.793 572.48 302.546 567.273 302.546ZM59.9811 352.514C60.6089 352.404 61.2368 352.33 61.8646 352.33C66.3702 352.367 70.2111 355.543 71.0974 359.974C72.1315 365.071 68.8077 370.057 63.6742 371.091C58.5408 372.088 53.592 368.764 52.5579 363.668C51.5238 358.534 54.8476 353.548 59.9811 352.514ZM562.796 352.332C558.18 352.222 554.191 355.435 553.268 359.977C552.271 365.073 555.595 370.059 560.691 371.093C565.825 372.09 570.81 368.767 571.845 363.67C572.842 358.537 569.518 353.551 564.384 352.517C563.867 352.443 563.35 352.369 562.796 352.332ZM539.814 406.067C541.328 402.448 544.873 400.121 548.788 400.195C549.933 400.232 551.115 400.49 552.186 400.933C557.024 402.928 559.313 408.468 557.319 413.306C555.288 418.107 549.785 420.397 544.947 418.402C540.109 416.408 537.819 410.868 539.814 406.067ZM76.9149 400.23C75.6593 400.23 74.4036 400.452 73.2218 400.932C70.9321 401.892 69.0856 403.739 68.1254 406.065C67.1652 408.392 67.1652 410.977 68.0884 413.304C70.1196 418.142 75.6223 420.431 80.4603 418.4C82.7869 417.477 84.6334 415.63 85.5936 413.304C86.5538 410.977 86.5538 408.392 85.5936 406.065C84.1533 402.557 80.7188 400.267 76.9149 400.23ZM518.022 448.54C519.794 445.881 522.823 444.293 526.036 444.366C527.845 444.366 529.618 444.92 531.095 445.954C535.453 448.835 536.635 454.707 533.717 459.028C532.351 461.133 530.172 462.573 527.698 463.053C525.26 463.57 522.675 463.053 520.607 461.65C516.286 458.732 515.104 452.897 518.022 448.54ZM101.439 444.366C99.519 444.329 97.6724 444.883 96.0844 445.954C91.7634 448.871 90.5816 454.706 93.4622 459.064C96.3798 463.385 102.252 464.567 106.61 461.65C110.931 458.769 112.113 452.897 109.195 448.539C107.459 445.954 104.542 444.403 101.439 444.366ZM127.599 485.839C129.372 484.029 131.846 483.032 134.395 483.069C136.869 483.069 139.196 484.066 140.931 485.839C144.625 489.495 144.625 495.515 140.931 499.171C137.275 502.865 131.256 502.865 127.599 499.171C123.906 495.515 123.906 489.495 127.599 485.839ZM495.404 483.069C492.855 483.032 490.381 484.029 488.608 485.839C484.915 489.495 484.915 495.515 488.608 499.171C492.265 502.865 498.284 502.865 501.94 499.171C505.634 495.515 505.634 489.495 501.94 485.839C500.205 484.066 497.878 483.069 495.404 483.069ZM163.954 518.969C165.727 516.31 168.755 514.721 171.968 514.795C173.778 514.795 175.55 515.386 177.065 516.383C181.386 519.301 182.567 525.136 179.65 529.494C176.769 533.815 170.897 534.997 166.576 532.116C162.218 529.198 161.036 523.326 163.954 518.969ZM454.104 514.795C452.184 514.758 450.337 515.312 448.749 516.346C446.644 517.749 445.204 519.928 444.723 522.402C444.243 524.84 444.76 527.425 446.164 529.493C449.044 533.814 454.917 534.996 459.274 532.115C463.595 529.198 464.777 523.326 461.86 518.968C460.161 516.383 457.243 514.795 454.104 514.795ZM206.32 544.229C207.797 540.61 211.343 538.283 215.257 538.357C216.439 538.394 217.584 538.652 218.655 539.096C223.493 541.09 225.783 546.63 223.788 551.468C221.794 556.269 216.254 558.559 211.417 556.564C206.615 554.57 204.326 549.03 206.32 544.229ZM410.447 538.355C409.191 538.355 407.935 538.614 406.79 539.094C404.464 540.054 402.617 541.901 401.657 544.19C400.697 546.517 400.697 549.139 401.62 551.466C403.651 556.267 409.154 558.557 413.992 556.562C416.319 555.602 418.165 553.756 419.125 551.466C420.085 549.139 420.085 546.517 419.125 544.227C417.685 540.682 414.25 538.392 410.447 538.355ZM253.135 560.517C254.021 556.011 258.046 552.798 262.663 552.909C263.18 552.909 263.734 552.983 264.251 553.094C269.384 554.128 272.708 559.077 271.674 564.21C270.64 569.344 265.691 572.668 260.558 571.634C255.424 570.599 252.101 565.651 253.135 560.517ZM361.998 552.953C361.37 552.916 360.742 552.99 360.151 553.101C355.018 554.135 351.694 559.084 352.691 564.217C353.208 566.691 354.648 568.833 356.717 570.237C358.822 571.64 361.37 572.157 363.844 571.677C366.282 571.16 368.461 569.72 369.864 567.652C371.231 565.547 371.748 562.998 371.268 560.524C370.381 556.129 366.504 552.953 361.998 552.953ZM302.546 567.273C302.546 562.065 306.793 557.818 312 557.818C317.207 557.818 321.454 562.065 321.454 567.273C321.454 572.48 317.207 576.727 312 576.727C306.793 576.727 302.546 572.48 302.546 567.273Z" id="Shape" fill="#FFFFFF" fill-rule="evenodd" stroke="none" />
    </g>
  </g>
</svg>