<?xml version="1.0" encoding="utf-8"?>
<svg width="350px" height="322px" viewBox="0 0 350 322" version="1.1" xmlns:xlink="http://www.w3.org/1999/xlink" xmlns="http://www.w3.org/2000/svg">
  <desc>Created with Lunacy</desc>
  <g id="Group">
    <path d="M49.999 0L300.001 0C327.615 0 350 22.3853 350 49.999L350 272.001C350 299.615 327.615 322 300.001 322L49.999 322C22.3853 322 0 299.615 0 272.001L0 49.999C0 22.3853 22.3853 0 49.999 0Z" id="Rectangle" fill="#FFFFFF" stroke="none" />
    <g id="mssql" transform="translate(15 29)">
      <g id="Group">
        <path d="M311.062 76.3798C278.244 81.3255 240.25 93.5751 240.25 93.5751C240.25 93.5751 255.48 133.468 223.088 187.609C222.629 188.373 214.405 188.088 203.231 186.491C205.54 183.056 210.372 169.431 210.372 169.431C196.528 175.238 180.366 178.993 174.229 180.306C173.42 180.068 172.615 179.824 171.814 179.574C185.662 176.167 209.488 167.073 209.488 167.073C194.749 166.843 180.338 160.62 180.338 160.62C180.462 161.588 171.468 172.688 167.101 178.013C166.203 177.697 165.315 177.373 164.437 177.04L175.425 160.588L147.283 168.151C146.751 167.752 146.237 167.347 145.741 166.935L172.804 157.148C164.125 152.399 156.1 144.866 156.1 144.866L141.852 163.061C141.379 162.482 140.944 161.891 140.548 161.289C145.126 155.187 151.726 146.109 152.425 143.589C152.425 143.589 145.816 145.444 138.839 147.019C139.234 145.902 139.748 144.758 140.388 143.588C147.122 141.662 153.48 139.691 153.48 139.691C152.167 136.657 151.249 133.933 150.609 131.58C152.048 130.31 153.622 129.015 155.337 127.695C156.312 133.736 157.836 135.597 157.836 135.597C161.978 131.477 166.119 122.413 168.465 116.705C173.179 112.227 177.222 107.684 180.617 103.129C185.968 100.667 190.163 98.7828 190.163 98.7828C190.41 95.053 189.145 92.6146 188.035 91.221C189.002 89.2977 189.857 87.3807 190.601 85.4738C192.55 88.1809 194.028 97.7019 194.028 97.7019C195.928 94.8852 213.811 72.2857 213.811 72.2857C202.031 79.1189 193.443 83.3974 190.924 84.6263C192.924 79.268 194.045 73.9955 194.328 68.8988C193.037 72.8646 190.96 77.9774 187.969 81.7513C187.969 81.7513 182.663 77.2314 180.337 75.7247C180.337 75.7247 190.221 67.5802 194.347 64.1592C194.422 65.7199 194.416 67.3007 194.328 68.8988C195.467 65.3956 195.993 62.7873 195.993 62.7873C195.746 62.9971 195.157 63.487 194.347 64.1592C194.267 62.5167 194.098 60.8963 193.84 59.3015C193.942 59.2036 193.995 59.1518 193.995 59.1518C193.93 59.1087 193.862 59.0658 193.794 59.023C193.395 56.6553 192.8 54.3443 192.014 52.1006C195.203 53.2339 197.729 54.1733 197.729 54.1733C198.581 39.9586 194.913 35.8644 194.913 35.8644L187.19 42.4765C186.647 41.6661 186.075 40.8692 185.473 40.0864L192.554 34.8164L178.522 32.7865C176.786 31.2968 174.915 29.8857 172.91 28.5605C168.84 25.8636 167.901 23.088 168.994 20.3746C166.376 17.6085 164.074 15.0763 163.896 14.5423C163.896 14.5423 167.421 15.3344 172.071 16.324C170.62 17.6462 169.547 19.0024 168.994 20.3746C172.64 24.2245 176.898 28.5278 176.898 28.5278L180.305 28.5278L193.963 20.143C191.896 20.4145 180.246 18.064 172.071 16.324C172.677 15.7722 173.348 15.2263 174.075 14.6877C181.627 15.9661 192.467 17.3263 193.683 17.3263C194.984 17.3484 192.659 10.5027 191.003 6.03275C184.85 8.46041 178.455 11.4421 174.075 14.6877C169.618 13.9334 166.306 13.2075 166.792 12.8064C168.07 11.7255 189.556 2.25996 189.556 2.25996C189.556 2.25996 190.201 3.86768 191.003 6.03275C199.046 2.8591 206.674 0.632243 208.84 0C208.779 0.0166482 217.293 31.4431 225.577 32.5891C292.327 41.9237 315.287 75.7247 311.062 76.3798ZM178.522 32.7865L171.723 31.8031C171.735 31.798 176.931 43.8591 176.931 46.4436L185.473 40.0864C183.477 37.4888 181.156 35.0471 178.522 32.7865ZM187.19 42.4765L180.337 48.3433C182.647 48.8422 187.886 50.6338 192.014 52.1006C190.833 48.7283 189.219 45.5082 187.19 42.4765ZM193.794 59.023C189.081 56.0652 178.929 53.551 178.929 53.551C180.108 54.2061 180.305 72.0564 180.305 72.0564C185.098 67.7154 192.666 60.4332 193.84 59.3015C193.825 59.2086 193.81 59.1157 193.794 59.023ZM190.924 84.6263C190.424 84.87 190.163 84.9938 190.163 84.9938C190.311 85.1127 190.457 85.2748 190.601 85.4738C190.711 85.1911 190.819 84.9086 190.924 84.6263ZM188.035 91.221C187.224 90.2036 186.495 89.743 186.495 89.743C184.988 92.3304 158.721 113.882 158.721 113.882C161.211 112.168 172.307 106.952 180.617 103.129C183.577 99.1568 186.045 95.1758 188.035 91.221ZM168.465 116.705C169.68 113.745 170.413 111.687 170.413 111.687C167.793 112.539 154.594 119.45 154.594 119.45C154.706 122.811 154.986 125.523 155.337 127.695C155.644 127.458 155.956 127.221 156.272 126.983C160.747 123.612 164.808 120.178 168.465 116.705ZM150.609 131.58C148.934 125.425 149.157 121.808 149.157 121.808C127.9 131.929 125.28 147.224 125.28 147.224C127.184 147.224 133.957 145.427 140.388 143.588C142.428 139.861 145.755 135.863 150.609 131.58ZM138.839 147.019C133.695 148.181 128.35 149.189 125.305 149.189C125.305 149.189 124.224 158.884 136.147 167.073C136.147 167.073 138.045 164.626 140.548 161.289C137.795 157.105 136.952 152.363 138.839 147.019ZM141.852 163.061L137.89 168.121L138.84 169.431L145.741 166.935C144.263 165.705 142.956 164.414 141.852 163.061ZM147.283 168.151L140.936 169.857C148.927 177.193 163.044 179.126 163.044 179.126L164.437 177.04C157.871 174.555 151.899 171.606 147.283 168.151ZM167.101 178.013C165.704 179.716 164.78 180.829 164.78 180.829C166.492 180.744 168.938 180.282 171.814 179.574C170.223 179.078 168.649 178.558 167.101 178.013ZM174.229 180.306C172.612 180.652 171.691 180.829 171.691 180.829C178.798 184.89 202.937 186.888 202.937 186.888C203.029 186.777 203.128 186.644 203.231 186.491C194.586 185.255 184.176 183.234 174.229 180.306ZM170.944 27.1522C170.944 27.1522 155.976 23.8114 154.895 22.534C153.815 21.2239 161.413 16.0489 161.413 16.0489L170.944 27.1522ZM196.223 22.534L184.956 29.4121L200.153 31.7703L196.223 22.534ZM172.804 43.2011L169.333 31.7703L159.801 28.5278C163.699 31.3445 172.804 43.2011 172.804 43.2011ZM197.86 35.8644L222.916 41.0394C221.822 41.5049 210.77 47.6279 204.466 51.1202L204.461 51.1229L204.46 51.1235L204.459 51.1239L204.455 51.1262L204.453 51.1275C201.896 52.5437 200.124 53.5255 200.12 53.5183C203.363 43.6269 197.86 35.8644 197.86 35.8644ZM204.64 56.5643C208.505 57.6451 219.215 63.9009 219.215 63.9009C227.469 49.9154 227.469 41.9237 227.469 41.9237L204.64 56.5643ZM224.423 63.9009C224.423 63.9009 230.515 45.1663 230.286 41.9237C230.286 41.9237 253.704 48.3761 258.682 51.8479C258.682 51.8479 235.264 58.3002 224.423 63.9009ZM224.423 66.8814C231.498 70.9756 238.965 82.8321 238.965 82.8321C252.623 69.4689 260.877 54.1733 260.877 54.1733C257.602 54.4026 224.423 66.8814 224.423 66.8814ZM244.795 81.7513C244.828 81.7185 261.303 62.7873 264.545 54.1733C264.545 54.1733 286.457 68.6173 289.699 75.2989C289.699 75.2989 253.245 78.3122 244.795 81.7513ZM195.142 78.0829L213.811 67.9623L200.12 60.6584C200.35 63.8682 195.142 78.0829 195.142 78.0829ZM219.215 72.0892C219.215 72.0892 231.137 77.8864 235.264 84.1422C235.264 84.1422 204.083 93.8043 199.039 95.8023C199.039 95.8023 218.134 74.6766 219.215 72.0892ZM171.723 93.8043C176.931 90.529 183.22 84.9938 183.22 84.9938C181.484 82.8321 177.783 81.7513 177.783 81.7513C177.554 83.7164 171.723 93.8043 171.723 93.8043ZM156.1 113.849L164.78 102.549C164.78 102.549 172.739 95.2127 182.139 91.2169L156.1 113.849ZM220.722 109.1C220.722 109.1 221.148 99.5688 219.641 93.7716L202.937 99.4051C202.937 99.4051 215.973 107.168 220.722 109.1ZM197.893 123.118C200.612 116.666 199.924 100.289 199.924 100.289L219.248 111.687C216.431 114.504 197.893 123.118 197.893 123.118ZM195.142 101.796L180.337 107.823C185.021 118.795 192.522 123.118 192.522 123.118C197.304 111.917 195.142 101.796 195.142 101.796ZM163.044 137.104C182.139 131.274 190.196 125.902 190.196 125.902C179.158 116.011 177.488 109.1 177.488 109.1C178.012 111.917 163.044 137.104 163.044 137.104ZM220.787 114.701C220.787 114.701 202.544 125.476 197.86 126.754C197.86 126.754 208.341 134.713 218.134 137.104C218.134 137.104 222.163 126.361 220.787 114.701ZM184.301 152.629L195.142 129.8C195.142 129.8 211.191 138.185 217.152 139.495C217.152 139.495 189.738 152.858 184.301 152.629ZM160.882 141.231C160.882 141.231 186.331 132.813 189.115 130.881C189.115 130.881 186.135 144.604 178.962 155.347C178.962 155.347 168.481 151.122 160.882 141.231ZM210.405 165.992C210.405 165.992 186.037 161.668 182.139 157.148C182.139 157.148 215.973 143.589 217.185 141.231C217.185 141.231 214.466 160.915 210.405 165.992ZM120.334 180.567C122.922 180.567 124.952 182.597 124.952 185.218C124.952 187.805 122.889 189.869 120.301 189.869C117.714 189.869 115.618 187.805 115.618 185.218C115.618 182.597 117.681 180.567 120.334 180.567ZM109.526 196.681C109.722 197.009 110.115 197.172 110.639 197.172C110.836 197.172 111 197.172 111.131 197.14L111.524 197.041L111.818 196.943C111.884 196.91 111.982 196.91 112.048 196.91C112.113 196.91 112.146 196.91 112.211 196.943C112.244 196.976 112.31 197.041 112.342 197.14C112.375 197.238 112.408 197.369 112.408 197.533C112.441 197.697 112.441 197.893 112.441 198.155C112.441 198.548 112.408 198.876 112.375 199.072C112.342 199.301 112.244 199.432 112.179 199.531C112.08 199.629 111.982 199.694 111.818 199.76C111.655 199.826 111.491 199.891 111.262 199.924C111.065 199.989 110.836 200.022 110.574 200.055C110.345 200.088 110.083 200.088 109.821 200.088C109.133 200.088 108.543 199.989 108.019 199.826C107.495 199.662 107.102 199.4 106.774 199.039C106.447 198.679 106.218 198.221 106.054 197.697C105.89 197.14 105.825 196.517 105.825 195.764L105.825 189.541L101.239 189.541L101.239 199.4C101.239 199.498 101.206 199.563 101.174 199.629C101.108 199.694 101.01 199.76 100.912 199.793C100.781 199.825 100.617 199.858 100.388 199.891C100.158 199.924 99.8964 199.924 99.5688 199.924C99.2413 199.924 98.9793 199.924 98.75 199.891C98.5207 199.858 98.357 199.825 98.226 199.793C98.095 199.76 97.9967 199.694 97.9639 199.629C97.8984 199.563 97.8984 199.498 97.8984 199.4L97.8984 189.541L96.359 189.541C96.1953 189.541 96.0643 189.443 95.966 189.214C95.8677 188.984 95.835 188.624 95.835 188.133C95.835 187.871 95.835 187.641 95.8677 187.478C95.9005 187.314 95.9333 187.15 95.966 187.052C95.9988 186.954 96.0643 186.888 96.1298 186.823C96.1953 186.79 96.2935 186.757 96.359 186.757L97.8657 186.757L97.8657 185.742C97.8657 184.923 97.9312 184.202 98.095 183.58C98.2587 182.958 98.5207 182.434 98.8483 182.041C99.2085 181.615 99.6343 181.32 100.191 181.091C100.715 180.894 101.37 180.763 102.124 180.763C102.484 180.763 102.811 180.796 103.172 180.862C103.532 180.927 103.761 180.993 103.925 181.058C104.089 181.124 104.187 181.189 104.253 181.255C104.318 181.32 104.351 181.418 104.416 181.517C104.449 181.615 104.482 181.779 104.482 181.942C104.482 182.106 104.515 182.335 104.515 182.597C104.515 182.859 104.515 183.089 104.482 183.22C104.482 183.384 104.449 183.515 104.416 183.58C104.384 183.678 104.351 183.711 104.285 183.744C104.253 183.777 104.187 183.777 104.121 183.777C104.056 183.777 103.99 183.777 103.925 183.744C103.859 183.711 103.761 183.678 103.63 183.646L103.237 183.547C103.073 183.515 102.91 183.515 102.68 183.515C102.451 183.515 102.222 183.547 102.058 183.646C101.894 183.711 101.731 183.842 101.632 184.006C101.534 184.17 101.436 184.399 101.37 184.661C101.305 184.923 101.272 185.25 101.272 185.643L101.272 186.757L105.89 186.757L105.89 184.039C105.89 183.94 105.923 183.875 105.956 183.809C106.021 183.744 106.119 183.678 106.218 183.613C106.349 183.58 106.512 183.515 106.742 183.515C106.971 183.482 107.233 183.482 107.561 183.482C107.888 183.482 108.183 183.482 108.379 183.515C108.609 183.547 108.772 183.58 108.903 183.613C109.034 183.646 109.133 183.711 109.165 183.809C109.231 183.875 109.264 183.973 109.264 184.039L109.264 186.757L111.917 186.757C112.015 186.757 112.08 186.79 112.146 186.823C112.211 186.855 112.277 186.954 112.31 187.052C112.342 187.15 112.375 187.314 112.408 187.478C112.441 187.674 112.441 187.871 112.441 188.133C112.441 188.624 112.408 188.984 112.31 189.214C112.211 189.41 112.08 189.541 111.917 189.541L109.264 189.541L109.264 195.24C109.231 195.862 109.329 196.354 109.526 196.681ZM27.3487 184.497C27.6107 184.759 28.1347 184.89 28.9208 184.89C29.6741 184.89 30.1982 184.759 30.5257 184.497C30.8205 184.235 30.9515 183.744 30.9515 183.056C30.9515 182.401 30.7877 181.942 30.5257 181.68C30.2309 181.418 29.7069 181.287 28.9536 181.287C28.1675 181.287 27.6435 181.418 27.3814 181.68C27.0867 181.942 26.9556 182.434 26.9556 183.122C26.9556 183.777 27.0867 184.235 27.3487 184.497ZM120.334 188.886C118.336 188.886 116.797 187.248 116.797 185.185C116.797 183.154 118.304 181.484 120.269 181.484L120.301 181.484C122.299 181.484 123.806 183.154 123.806 185.218C123.806 187.248 122.299 188.919 120.334 188.886ZM22.665 199.825C22.8943 199.825 23.0581 199.76 23.1891 199.727C23.3201 199.694 23.4183 199.629 23.5821 199.564C23.6149 199.498 23.6476 199.432 23.6476 199.334L23.6476 183.613C23.6476 183.416 23.6149 183.187 23.5494 183.023C23.4838 182.827 23.3856 182.696 23.2873 182.565C23.1891 182.434 23.0253 182.335 22.8615 182.27C22.6978 182.204 22.5013 182.172 22.2392 182.172L19.8155 182.172C19.488 182.172 19.1932 182.204 18.9312 182.27C18.7019 182.368 18.4726 182.466 18.2761 182.63C18.0796 182.794 17.9158 183.023 17.7848 183.285C17.6538 183.58 17.5228 183.875 17.3918 184.268L13.4287 194.749L13.3632 194.749L9.5311 184.235C9.40009 183.875 9.30183 183.547 9.13806 183.285C8.9743 183.023 8.81053 182.827 8.58126 182.663C8.35199 182.499 8.08997 182.401 7.79519 182.335C7.50042 182.27 7.14013 182.237 6.71435 182.237L4.35614 182.237C3.9631 182.237 3.63557 182.368 3.37355 182.597C3.14428 182.827 3.01327 183.187 3.01327 183.646L3.01327 199.367C3.01327 199.432 3.01327 199.531 3.07877 199.596C3.11152 199.662 3.20978 199.727 3.3408 199.76C3.47181 199.793 3.63557 199.826 3.86484 199.858C4.09411 199.891 4.35614 199.891 4.68367 199.891C5.01119 199.891 5.30597 199.891 5.50249 199.858C5.69901 199.858 5.89552 199.793 6.02654 199.76C6.15755 199.727 6.25581 199.662 6.28856 199.596C6.32131 199.531 6.35406 199.465 6.35406 199.367L6.35406 185.021L6.38682 185.021L11.3325 199.367C11.3653 199.465 11.4308 199.563 11.4963 199.629C11.5618 199.727 11.6928 199.793 11.8238 199.825C11.9876 199.858 12.1513 199.891 12.3806 199.924C12.5771 199.956 12.8391 199.956 13.1667 199.956C13.4615 199.956 13.7235 199.924 13.9527 199.924C14.182 199.891 14.3785 199.858 14.5095 199.825C14.6406 199.76 14.7388 199.694 14.8371 199.629C14.9026 199.563 14.9681 199.465 15.0008 199.334L20.143 184.988L20.1758 184.988L20.1758 199.334C20.1758 199.4 20.1758 199.498 20.2413 199.563C20.2741 199.629 20.3723 199.694 20.5033 199.727C20.6343 199.76 20.7981 199.793 21.0274 199.825C21.2566 199.858 21.5187 199.858 21.8462 199.858C22.1737 199.858 22.4358 199.858 22.665 199.825ZM122.299 184.17C122.299 184.726 121.874 185.087 121.35 185.283L121.35 185.349C121.808 185.48 122.005 185.873 122.168 186.495C122.299 187.216 122.43 187.445 122.496 187.641L121.382 187.641C121.251 187.478 121.153 187.085 121.022 186.495C120.956 186.004 120.662 185.774 120.072 185.774L119.581 185.774L119.581 187.609L118.533 187.609L118.533 182.958C118.959 182.892 119.548 182.827 120.269 182.827C121.12 182.827 121.513 182.958 121.808 183.187C122.103 183.384 122.299 183.711 122.299 184.17ZM119.614 183.678C119.745 183.646 119.941 183.613 120.203 183.613C120.858 183.613 121.153 183.908 121.153 184.333C121.153 184.825 120.694 185.021 120.105 185.021L119.614 185.021L119.614 183.678ZM77.9519 199.039C77.4934 199.4 76.9038 199.662 76.2815 199.826C75.6265 200.022 74.9386 200.088 74.1853 200.088C73.7268 200.088 73.301 200.055 72.8752 199.989C72.4494 199.924 72.0891 199.826 71.7616 199.727C71.4341 199.629 71.1393 199.531 70.9428 199.4C70.7135 199.301 70.5498 199.17 70.4515 199.105C70.3532 199.007 70.255 198.876 70.2222 198.646C70.1567 198.45 70.124 198.155 70.124 197.729C70.124 197.467 70.124 197.271 70.1567 197.107C70.1895 196.943 70.1895 196.812 70.2222 196.714C70.255 196.616 70.3205 196.55 70.3532 196.517C70.4187 196.485 70.4843 196.485 70.5498 196.485C70.648 196.485 70.8118 196.55 71.0083 196.648C71.2048 196.747 71.4341 196.878 71.7289 197.042C72.0236 197.173 72.3512 197.304 72.7442 197.435C73.1372 197.566 73.563 197.598 74.0543 197.598C74.3491 197.598 74.6439 197.566 74.8731 197.5C75.1024 197.435 75.3317 197.336 75.4955 197.238C75.692 197.107 75.823 196.976 75.8885 196.779C75.9867 196.583 76.0195 196.386 76.0195 196.157C76.0195 195.895 75.9212 195.633 75.7575 195.469C75.5937 195.273 75.3644 195.109 75.1024 194.945C74.8404 194.814 74.5129 194.651 74.1526 194.52C73.7923 194.389 73.432 194.258 73.0717 194.094C72.7114 193.93 72.3512 193.766 71.9909 193.57C71.6306 193.373 71.3358 193.111 71.0411 192.849C70.779 192.554 70.5498 192.194 70.386 191.801C70.2222 191.408 70.124 190.917 70.124 190.327C70.124 189.738 70.255 189.214 70.4515 188.722C70.6808 188.231 71.0083 187.805 71.4341 187.478C71.8599 187.117 72.3839 186.855 73.0062 186.659C73.6285 186.462 74.3163 186.364 75.0697 186.364C75.4627 186.364 75.823 186.397 76.1833 186.43Q76.7237 186.528 77.1658 186.626C77.4606 186.724 77.6899 186.79 77.9192 186.888C78.1157 186.986 78.2794 187.052 78.345 187.117C78.4432 187.183 78.5087 187.248 78.5415 187.314C78.5742 187.379 78.607 187.478 78.607 187.543C78.6397 187.641 78.6397 187.772 78.6397 187.903C78.6397 188.034 78.6725 188.231 78.6725 188.427C78.6725 188.657 78.6725 188.886 78.6397 189.017C78.6397 189.181 78.607 189.279 78.5742 189.377C78.5415 189.476 78.5087 189.541 78.4432 189.574C78.3777 189.607 78.3122 189.607 78.2467 189.607C78.1484 189.607 78.0502 189.574 77.8537 189.476C77.6899 189.377 77.4606 189.279 77.1986 189.181C76.9366 189.082 76.6418 188.984 76.2815 188.886C75.954 188.788 75.561 188.755 75.1024 188.755C74.7749 188.755 74.5129 188.788 74.2836 188.853C74.0543 188.919 73.8578 189.017 73.7268 189.115C73.563 189.246 73.4648 189.377 73.3993 189.541C73.3338 189.705 73.301 189.869 73.301 190.065C73.301 190.36 73.3993 190.589 73.563 190.786C73.7268 190.982 73.9561 191.146 74.2508 191.277C74.5456 191.408 74.8404 191.572 75.2007 191.703C75.561 191.834 75.9212 191.965 76.2815 192.128C76.6418 192.292 77.0021 192.456 77.3624 192.653C77.7227 192.849 78.0502 193.111 78.3122 193.373C78.607 193.668 78.8363 193.995 79 194.421C79.1638 194.814 79.262 195.306 79.262 195.862C79.262 196.55 79.131 197.172 78.869 197.696C78.7707 198.253 78.4105 198.679 77.9519 199.039ZM64.3595 199.596C65.211 199.236 65.8988 198.777 66.4557 198.155C67.0125 197.566 67.4382 196.812 67.733 196.059C68.0278 195.207 68.1588 194.257 68.1588 193.209C68.1588 192.129 68.0278 191.146 67.7658 190.327C67.5037 189.476 67.1107 188.788 66.5867 188.198C66.0626 187.609 65.4075 187.183 64.5887 186.888C63.7699 186.593 62.8201 186.43 61.7392 186.43C60.5929 186.43 59.6103 186.593 58.7915 186.921C57.9399 187.248 57.2521 187.707 56.6953 188.329C56.1385 188.919 55.7127 189.672 55.4507 190.524C55.1559 191.375 55.0249 192.325 55.0249 193.373C55.0249 194.421 55.1559 195.371 55.4179 196.223C55.6799 197.041 56.073 197.729 56.597 198.319C57.1211 198.876 57.7761 199.334 58.595 199.629C59.381 199.924 60.3309 200.088 61.4117 200.088C62.5253 200.088 63.5079 199.924 64.3595 199.596ZM92.6907 198.155C92.1339 198.777 91.4461 199.236 90.5945 199.596C89.743 199.924 88.7604 200.088 87.6468 200.088C86.5659 200.088 85.6161 199.924 84.83 199.629C84.044 199.334 83.3561 198.876 82.8321 198.319C82.3081 197.729 81.915 197.041 81.653 196.223C81.391 195.371 81.26 194.421 81.26 193.373C81.26 192.325 81.391 191.375 81.6857 190.524C81.9478 189.672 82.3736 188.919 82.9303 188.329C83.4871 187.707 84.1749 187.248 85.0265 186.921C85.8454 186.593 86.8279 186.43 87.9743 186.43C89.0551 186.43 90.005 186.593 90.8238 186.888C91.6426 187.183 92.2977 187.609 92.8217 188.198C93.3458 188.788 93.7388 189.476 94.0008 190.327C94.2628 191.146 94.3939 192.129 94.3939 193.209C94.3939 194.257 94.2628 195.207 93.9681 196.059C93.6733 196.812 93.2475 197.566 92.6907 198.155ZM43.2338 198.384C43.2011 198.483 43.1683 198.581 43.1356 198.646C43.1028 198.712 43.0373 198.81 42.939 198.908C42.8408 199.007 42.6443 199.138 42.3822 199.301C42.1202 199.465 41.8254 199.596 41.4652 199.694C41.1376 199.826 40.7446 199.924 40.3516 199.989C39.9585 200.055 39.5327 200.088 39.1397 200.088C38.1899 200.088 37.3711 199.956 36.6505 199.662C35.9299 199.367 35.3076 198.941 34.8163 198.384C34.325 197.828 33.9648 197.14 33.7027 196.321C33.4407 195.502 33.3425 194.552 33.3425 193.504C33.3425 192.292 33.5062 191.244 33.801 190.36C34.0958 189.476 34.5216 188.755 35.0784 188.165C35.6352 187.576 36.2575 187.15 37.0108 186.855C37.7641 186.561 38.5829 186.43 39.4672 186.43C39.8275 186.43 40.1878 186.462 40.5481 186.528C40.9084 186.593 41.2359 186.692 41.5307 186.79C41.8254 186.888 42.1202 187.019 42.3495 187.15C42.5788 187.281 42.7753 187.412 42.8735 187.51C42.9718 187.609 43.0373 187.707 43.0701 187.772C43.1028 187.838 43.1356 187.936 43.1683 188.034C43.2011 188.133 43.2011 188.264 43.2338 188.427C43.2338 188.591 43.2666 188.788 43.2666 189.017C43.2666 189.541 43.2338 189.901 43.1356 190.131C43.0373 190.36 42.939 190.458 42.7753 190.458C42.6115 190.458 42.4478 190.393 42.284 190.262C42.1202 190.131 41.891 190 41.6617 189.836C41.4324 189.672 41.1376 189.541 40.8101 189.41C40.4826 189.279 40.0895 189.214 39.631 189.214C38.7467 189.214 38.0589 189.541 37.5676 190.229C37.109 190.917 36.847 191.932 36.847 193.242C36.847 193.897 36.9125 194.487 37.0435 194.978C37.1745 195.469 37.3383 195.895 37.5676 196.223C37.7968 196.55 38.0916 196.812 38.4519 196.976C38.8122 197.14 39.2052 197.238 39.6638 197.238C40.1223 197.238 40.5481 197.173 40.8756 197.042C41.2031 196.911 41.4979 196.747 41.7599 196.583C42.022 196.419 42.2185 196.255 42.415 196.124C42.5788 195.993 42.7425 195.928 42.8408 195.928C42.9063 195.928 43.0045 195.961 43.0373 195.993C43.1028 196.026 43.1356 196.124 43.1683 196.255C43.2011 196.386 43.2338 196.517 43.2338 196.714C43.2338 196.91 43.2666 197.14 43.2666 197.435C43.2666 197.664 43.2666 197.86 43.2338 198.024C43.2666 198.155 43.2666 198.286 43.2338 198.384ZM53.42 189.836C53.4528 189.803 53.5183 189.738 53.551 189.607C53.5838 189.476 53.6165 189.312 53.5838 189.214C53.6165 188.984 53.6165 188.722 53.6165 188.395L53.6165 187.609C53.6165 187.412 53.5838 187.281 53.5838 187.183C53.551 187.085 53.551 187.019 53.5183 186.954C53.5183 186.888 53.4855 186.823 53.42 186.79C53.3872 186.757 53.289 186.692 53.1907 186.659L52.7977 186.561C52.6667 186.528 52.5029 186.495 52.3719 186.495C52.2081 186.462 52.1099 186.462 51.9789 186.462C51.7496 186.462 51.4876 186.495 51.2256 186.561C50.9963 186.626 50.7343 186.757 50.4722 186.921C50.2102 187.085 49.9482 187.314 49.6534 187.609C49.3586 187.903 49.0639 188.264 48.7363 188.722L48.7363 187.216C48.7363 187.15 48.7036 187.052 48.6708 186.986C48.6381 186.921 48.5398 186.855 48.4416 186.823C48.3105 186.79 48.1795 186.757 47.983 186.724C47.7865 186.692 47.5572 186.692 47.2624 186.692C46.9677 186.692 46.7384 186.692 46.5419 186.724C46.3454 186.757 46.2144 186.79 46.0833 186.823C45.9851 186.855 45.8868 186.921 45.8541 186.986C45.8213 187.052 45.7886 187.117 45.7886 187.216L45.7886 199.367C45.7886 199.465 45.8213 199.531 45.8868 199.596C45.9523 199.662 46.0506 199.727 46.1816 199.76C46.3126 199.793 46.4764 199.826 46.7057 199.858C46.9022 199.891 47.1969 199.891 47.5245 199.891C47.852 199.891 48.114 199.891 48.3433 199.858C48.5726 199.826 48.7363 199.793 48.8673 199.76C48.9984 199.727 49.0966 199.662 49.1621 199.596C49.2276 199.531 49.2604 199.465 49.2604 199.367L49.2604 191.801C49.5224 191.408 49.7517 191.048 49.9809 190.786C50.2102 190.524 50.4395 190.294 50.636 190.131C50.8325 189.967 51.029 189.836 51.2256 189.77C51.4221 189.672 51.6186 189.639 51.8151 189.639C51.9789 189.639 52.1426 189.639 52.2737 189.672C52.4374 189.705 52.5684 189.738 52.6667 189.77L52.9615 189.869C53.027 189.901 53.1252 189.901 53.1907 189.901C53.289 189.901 53.3545 189.869 53.42 189.836ZM29.7724 199.826C29.5431 199.858 29.2811 199.858 28.9536 199.858C28.626 199.858 28.3313 199.858 28.1348 199.826C27.9055 199.793 27.7417 199.76 27.6107 199.727C27.4797 199.695 27.3814 199.629 27.3159 199.563C27.2504 199.498 27.2177 199.432 27.2177 199.334L27.2177 187.183C27.2177 187.085 27.2504 187.019 27.3159 186.954C27.3814 186.888 27.4797 186.823 27.6107 186.79C27.7417 186.724 27.9055 186.692 28.1348 186.659C28.364 186.626 28.626 186.626 28.9536 186.626C29.2811 186.626 29.5759 186.626 29.7724 186.659C30.0017 186.692 30.1654 186.724 30.2964 186.79C30.4275 186.823 30.5257 186.888 30.5912 186.954C30.6567 187.019 30.6895 187.117 30.6895 187.183L30.6895 199.334C30.6895 199.432 30.6567 199.498 30.5912 199.563C30.5257 199.629 30.4275 199.695 30.2964 199.727C30.1654 199.793 29.9689 199.826 29.7724 199.826ZM64.4249 191.605C64.3267 191.113 64.1629 190.655 63.9337 190.294C63.7044 189.934 63.4096 189.639 63.0166 189.41C62.6236 189.214 62.165 189.083 61.5755 189.083C61.0514 189.083 60.6256 189.181 60.2326 189.377C59.8396 189.574 59.5448 189.836 59.2828 190.196C59.0535 190.556 58.857 190.982 58.726 191.506C58.595 191.998 58.5294 192.587 58.5294 193.242C58.5294 193.832 58.595 194.389 58.6932 194.88C58.7915 195.371 58.9552 195.83 59.1845 196.19C59.4138 196.55 59.7086 196.845 60.1016 197.041C60.4946 197.238 60.9532 197.336 61.51 197.336C62.034 197.336 62.4925 197.238 62.8528 197.041C63.2459 196.845 63.5406 196.583 63.8027 196.223C64.0647 195.862 64.2284 195.437 64.3595 194.945C64.4905 194.454 64.5232 193.864 64.5232 193.209C64.556 192.653 64.5232 192.129 64.4249 191.605ZM90.1688 190.294C90.398 190.655 90.5618 191.113 90.6601 191.605C90.7583 192.129 90.8238 192.653 90.7583 193.209C90.7583 193.864 90.7256 194.454 90.5946 194.945C90.4635 195.437 90.2998 195.862 90.0377 196.223C89.7757 196.583 89.4809 196.845 89.0879 197.041C88.7276 197.238 88.2691 197.336 87.745 197.336C87.1882 197.336 86.7297 197.238 86.3367 197.041C85.9436 196.845 85.6489 196.55 85.4196 196.19C85.1903 195.83 85.0265 195.371 84.9283 194.88C84.83 194.389 84.7645 193.832 84.7645 193.242C84.7645 192.587 84.83 191.998 84.961 191.506C85.0921 190.982 85.2886 190.556 85.5179 190.196C85.7799 189.836 86.0746 189.574 86.4677 189.377C86.8607 189.181 87.2865 189.083 87.8106 189.083C88.4001 189.083 88.8587 189.214 89.2517 189.41C89.6447 189.639 89.9395 189.934 90.1688 190.294ZM133.239 248.562C133.075 248.66 132.944 248.824 132.846 249.053C132.748 249.282 132.682 249.61 132.649 249.938C132.617 250.331 132.584 250.789 132.584 251.346C132.584 252.132 132.649 252.787 132.78 253.246C132.911 253.737 133.141 254.13 133.435 254.425C133.73 254.719 134.254 255.112 135.007 255.538C135.761 255.964 136.678 256.357 137.791 256.783C138.905 257.176 140.182 257.503 141.591 257.798C142.999 258.093 144.539 258.224 146.209 258.224C148.6 258.224 150.794 257.896 152.858 257.274C154.921 256.619 156.723 255.669 158.229 254.425C159.769 253.147 160.948 251.608 161.799 249.806C162.651 248.005 163.077 245.942 163.077 243.616C163.077 241.651 162.749 239.948 162.094 238.507C161.472 237.066 160.588 235.821 159.539 234.773C158.491 233.725 157.279 232.808 155.937 232.022C154.594 231.268 153.218 230.548 151.81 229.893C150.434 229.238 149.026 228.583 147.683 227.96C146.307 227.338 145.095 226.617 144.047 225.864C142.966 225.111 142.115 224.226 141.493 223.244C140.87 222.261 140.543 221.082 140.543 219.707C140.543 218.757 140.706 217.872 141.034 217.021C141.362 216.169 141.886 215.449 142.541 214.826C143.196 214.204 144.047 213.713 145.063 213.352C146.078 212.992 147.29 212.796 148.665 212.796C150.139 212.796 151.482 212.992 152.661 213.352C153.84 213.713 154.889 214.139 155.74 214.564C156.592 215.023 157.345 215.416 157.935 215.776C158.524 216.136 158.95 216.3 159.245 216.3C159.441 216.3 159.605 216.235 159.736 216.136C159.867 216.038 159.998 215.842 160.063 215.612C160.129 215.383 160.194 215.088 160.227 214.728C160.26 214.368 160.293 213.975 160.293 213.516C160.293 213.025 160.293 212.632 160.26 212.337C160.227 212.042 160.194 211.78 160.129 211.551C160.063 211.355 159.998 211.158 159.932 211.027C159.834 210.863 159.67 210.667 159.441 210.437C159.212 210.208 158.688 209.881 157.935 209.488C157.181 209.095 156.297 208.734 155.314 208.407C154.332 208.112 153.284 207.85 152.17 207.653C151.056 207.457 149.976 207.359 148.862 207.359C146.7 207.359 144.702 207.653 142.868 208.21C141.034 208.767 139.429 209.619 138.086 210.699C136.743 211.78 135.695 213.156 134.942 214.761C134.189 216.366 133.796 218.2 133.796 220.263C133.796 222.261 134.123 223.997 134.778 225.438C135.433 226.879 136.285 228.124 137.333 229.205C138.381 230.286 139.56 231.203 140.903 231.989C142.213 232.775 143.589 233.495 144.997 234.151C146.406 234.806 147.781 235.428 149.124 236.05C150.467 236.673 151.646 237.36 152.694 238.114C153.742 238.867 154.594 239.751 155.216 240.734C155.838 241.749 156.166 242.928 156.166 244.337C156.166 245.647 155.937 246.793 155.478 247.809C155.02 248.824 154.364 249.708 153.513 250.396C152.629 251.084 151.613 251.608 150.434 252.001Q148.665 252.59 146.504 252.59C144.604 252.59 142.934 252.394 141.493 251.935C140.051 251.477 138.807 251.018 137.791 250.494C136.743 250.003 135.925 249.512 135.27 249.086C134.614 248.66 134.123 248.431 133.763 248.431C133.566 248.431 133.403 248.464 133.239 248.562ZM27.578 211.551C27.6107 211.78 27.6762 212.042 27.6762 212.337C27.709 212.632 27.709 213.025 27.709 213.516C27.709 213.975 27.6762 214.368 27.6435 214.728C27.6107 215.088 27.5452 215.383 27.4797 215.612C27.4142 215.842 27.2832 216.038 27.1522 216.136C27.0212 216.235 26.8574 216.3 26.6609 216.3C26.3661 216.3 25.9403 216.136 25.3508 215.776C24.7612 215.416 24.0079 215.023 23.1563 214.564C22.272 214.139 21.2566 213.713 20.0775 213.352C18.8984 212.992 17.5556 212.796 16.0817 212.796C14.7061 212.796 13.4942 212.992 12.4789 213.352C11.4635 213.713 10.6119 214.204 9.95689 214.826C9.30183 215.449 8.81054 216.169 8.45026 217.021C8.12273 217.872 7.95896 218.757 7.95896 219.707C7.95896 221.082 8.28649 222.261 8.9088 223.244C9.5311 224.226 10.3827 225.111 11.4635 225.864C12.5116 226.617 13.7235 227.338 15.0991 227.96C16.442 228.583 17.8176 229.238 19.226 229.893C20.6343 230.548 22.01 231.268 23.3528 232.022C24.6957 232.808 25.9076 233.725 26.9884 234.773C28.0365 235.821 28.8881 237.066 29.5431 238.507C30.1982 239.948 30.5257 241.651 30.5257 243.616C30.5257 245.942 30.0999 248.005 29.2484 249.806C28.3968 251.608 27.2177 253.147 25.6783 254.425C24.1717 255.669 22.3702 256.619 20.3068 257.274C18.2434 257.896 16.0489 258.224 13.658 258.224C11.9876 258.224 10.4482 258.093 9.03981 257.798C7.63143 257.503 6.35407 257.176 5.24047 256.783C4.12687 256.357 3.20979 255.964 2.42372 255.538C1.6704 255.112 1.14635 254.719 0.851576 254.425C0.5568 254.13 0.327529 253.737 0.196518 253.246C0.0655061 252.787 0 252.132 0 251.346C0 250.789 0.032753 250.331 0.0655058 249.938C0.131012 249.577 0.196517 249.282 0.294776 249.053C0.393035 248.824 0.524047 248.66 0.687811 248.562C0.851576 248.464 1.01534 248.431 1.21186 248.431C1.57214 248.431 2.06343 248.66 2.71849 249.086C3.37355 249.512 4.19237 250.003 5.24047 250.494C6.25581 251.018 7.50042 251.477 8.94155 251.935C10.3827 252.394 12.0531 252.59 13.9527 252.59C15.3939 252.59 16.704 252.394 17.8831 252.001C19.0622 251.608 20.0775 251.084 20.9619 250.396C21.8134 249.708 22.4685 248.824 22.927 247.809C23.3856 246.793 23.6149 245.647 23.6149 244.337C23.6149 242.928 23.2873 241.749 22.665 240.734C22.0427 239.751 21.1911 238.867 20.143 238.114C19.095 237.36 17.9158 236.673 16.573 236.05C15.2301 235.428 13.8545 234.806 12.4461 234.151C11.0377 233.496 9.66211 232.775 8.352 231.989C7.00913 231.203 5.83002 230.286 4.78193 229.205C3.73383 228.124 2.88226 226.879 2.2272 225.438C1.57214 223.997 1.24461 222.261 1.24461 220.263C1.24461 218.2 1.60489 216.366 2.35821 214.761C3.11153 213.156 4.15962 211.78 5.50249 210.7C6.84536 209.619 8.45026 208.767 10.2844 208.21C12.1186 207.654 14.1493 207.359 16.2782 207.359C17.3918 207.359 18.4727 207.457 19.5863 207.654C20.6999 207.85 21.7479 208.112 22.7305 208.407C23.7131 208.734 24.5974 209.095 25.3508 209.488C26.1041 209.881 26.6281 210.208 26.8574 210.438C27.0867 210.667 27.2504 210.863 27.3487 211.027C27.4797 211.158 27.5452 211.355 27.578 211.551ZM81.129 238.114C80.8997 240.013 80.5066 241.782 79.9826 243.452C79.4585 245.123 78.8035 246.695 78.0174 248.103C77.2314 249.512 76.2815 250.822 75.2334 251.968C77.1003 253.508 78.738 254.687 80.1464 255.538C81.5547 256.39 82.7011 257.045 83.6182 257.471C84.5352 257.896 85.2558 258.224 85.7799 258.42C86.3039 258.617 86.6642 258.846 86.9262 259.076C87.1882 259.305 87.352 259.665 87.4503 260.091C87.5485 260.549 87.614 261.139 87.614 261.859C87.614 262.449 87.5813 262.94 87.5158 263.333C87.4503 263.726 87.352 264.021 87.221 264.25C87.09 264.48 86.959 264.611 86.7952 264.676C86.6315 264.742 86.5004 264.775 86.3367 264.775C85.8126 264.775 84.9938 264.578 83.8802 264.152C82.7339 263.726 81.4237 263.137 79.9499 262.318C78.476 261.499 76.8711 260.549 75.2007 259.403C73.4975 258.257 71.8926 256.914 70.2878 255.407C69.0431 256.16 67.471 256.848 65.5386 257.405C63.6389 257.962 61.4117 258.257 58.8897 258.257C55.1559 258.257 51.9461 257.7 49.2276 256.619C46.5091 255.538 44.2492 253.933 42.4805 251.804C40.7119 249.708 39.369 247.055 38.5174 243.911C37.6331 240.767 37.2073 237.164 37.2073 233.102C37.2073 229.172 37.6659 225.635 38.6157 222.458C39.5655 219.281 40.9739 216.595 42.8736 214.368C44.7732 212.141 47.1315 210.437 49.9482 209.226C52.765 208.014 56.1057 207.424 59.8723 207.424C63.4096 207.424 66.5539 207.981 69.2397 209.062C71.9254 210.143 74.1854 211.748 76.0195 213.844C77.8537 215.94 79.2293 218.527 80.1464 221.606C81.0635 224.685 81.522 228.222 81.522 232.218C81.4892 234.249 81.3582 236.214 81.129 238.114ZM98.6518 208.21C98.3897 208.112 98.0622 208.046 97.6364 207.981C97.2106 207.915 96.6866 207.883 96.0643 207.883C95.442 207.883 94.9179 207.915 94.4921 207.981C94.0336 208.046 93.7061 208.112 93.4441 208.21C93.2148 208.309 93.0183 208.407 92.92 208.571C92.8217 208.702 92.7562 208.898 92.7562 209.095L92.7562 254.818C92.7562 255.8 93.0183 256.488 93.5423 256.881C94.0664 257.274 94.6232 257.471 95.2127 257.471L117.124 257.471C117.354 257.471 117.55 257.405 117.714 257.307C117.878 257.209 118.009 257.012 118.14 256.783C118.271 256.521 118.336 256.226 118.402 255.898C118.435 255.571 118.467 255.145 118.467 254.621C118.467 254.097 118.435 253.671 118.402 253.311C118.336 252.951 118.238 252.689 118.14 252.459C118.009 252.263 117.878 252.066 117.714 251.968C117.55 251.87 117.354 251.804 117.124 251.804L99.3396 251.804L99.3396 209.095C99.3396 208.898 99.2741 208.734 99.1758 208.571C99.0775 208.407 98.9138 208.308 98.6518 208.21ZM71.3358 218.626C72.4822 220.394 73.3338 222.458 73.8251 224.849C74.3163 227.272 74.5456 229.86 74.5456 232.644C74.5456 235.33 74.3164 237.884 73.7923 240.275C73.301 242.666 72.4494 244.762 71.2376 246.597C70.0257 248.398 68.4536 249.839 66.4884 250.92C64.5232 252.001 62.0995 252.525 59.2173 252.525C56.3023 252.525 53.8785 252.034 51.9461 251.051C50.0137 250.101 48.4743 248.693 47.328 246.924C46.1816 245.156 45.3628 243.027 44.8715 240.603C44.3802 238.179 44.1509 235.526 44.1509 232.611C44.1509 229.958 44.4129 227.436 44.937 225.078C45.461 222.72 46.3454 220.656 47.5572 218.855C48.7691 217.053 50.3412 215.612 52.2736 214.564C54.2061 213.516 56.6298 212.992 59.4793 212.992C62.3288 212.992 64.7525 213.483 66.6849 214.466C68.6173 215.481 70.1567 216.857 71.3358 218.626ZM171.56 225.569C173.001 223.932 174.737 222.654 176.8 221.803C178.831 220.918 181.124 220.493 183.646 220.493C186.364 220.493 188.657 220.918 190.556 221.803C192.456 222.654 194.028 223.833 195.24 225.307C196.452 226.781 197.369 228.484 197.926 230.449C198.515 232.415 198.777 234.511 198.777 236.771L198.777 237.917C198.777 238.9 198.515 239.62 198.024 240.046C197.533 240.472 196.943 240.668 196.321 240.668L173.623 240.668C173.623 242.568 173.82 244.304 174.213 245.811C174.606 247.35 175.228 248.66 176.145 249.741C177.029 250.822 178.209 251.673 179.65 252.263C181.091 252.852 182.859 253.147 184.923 253.147C186.561 253.147 188.034 253.016 189.312 252.754C190.589 252.492 191.703 252.197 192.653 251.87C193.602 251.542 194.356 251.248 194.978 250.986C195.568 250.724 196.026 250.592 196.354 250.592C196.55 250.592 196.681 250.625 196.845 250.724C196.976 250.822 197.107 250.953 197.173 251.117C197.238 251.28 197.304 251.542 197.336 251.87C197.369 252.197 197.402 252.59 197.402 253.049C197.402 253.376 197.402 253.671 197.369 253.901C197.336 254.13 197.304 254.359 197.271 254.556C197.238 254.752 197.173 254.916 197.074 255.08C196.976 255.243 196.878 255.374 196.714 255.505C196.583 255.636 196.157 255.866 195.469 256.193C194.782 256.521 193.897 256.816 192.784 257.143C191.703 257.438 190.425 257.733 188.984 257.962C187.543 258.191 186.004 258.322 184.366 258.322C181.517 258.322 179.06 257.929 176.899 257.143C174.77 256.357 172.968 255.178 171.527 253.638C170.086 252.099 168.972 250.134 168.219 247.808C167.466 245.483 167.105 242.732 167.105 239.653C167.105 236.705 167.498 234.052 168.252 231.694C169.005 229.205 170.119 227.207 171.56 225.569ZM206.638 221.279C206.867 221.148 207.162 221.082 207.522 221.049C207.883 221.017 208.341 220.984 208.931 220.984C209.488 220.984 209.946 221.017 210.339 221.049C210.699 221.082 210.994 221.148 211.191 221.279C211.387 221.377 211.551 221.508 211.617 221.672C211.715 221.803 211.748 221.999 211.748 222.196L211.748 227.207C212.697 225.831 213.582 224.718 214.4 223.833C215.219 222.982 216.005 222.294 216.759 221.803C217.512 221.311 218.233 220.951 218.953 220.787C219.674 220.591 220.427 220.493 221.148 220.493C221.475 220.493 221.868 220.525 222.294 220.558C222.72 220.591 223.146 220.656 223.604 220.755C224.063 220.853 224.488 220.984 224.849 221.082C225.209 221.213 225.471 221.344 225.635 221.475C225.799 221.606 225.897 221.737 225.93 221.835C225.962 221.934 226.028 222.097 226.061 222.261C226.093 222.458 226.126 222.687 226.126 223.047C226.126 223.408 226.159 223.866 226.159 224.456C226.159 225.012 226.159 225.471 226.126 225.864C226.093 226.257 226.061 226.552 225.962 226.748C225.897 226.978 225.799 227.141 225.668 227.24C225.536 227.371 225.406 227.403 225.176 227.403C224.98 227.403 224.718 227.338 224.423 227.24C224.128 227.109 223.801 227.01 223.44 226.879C223.08 226.781 222.654 226.65 222.196 226.552C221.737 226.454 221.246 226.388 220.689 226.388C220.067 226.388 219.412 226.519 218.822 226.781C218.2 227.043 217.578 227.469 216.89 228.026C216.202 228.615 215.514 229.401 214.761 230.351C214.007 231.334 213.189 232.513 212.304 233.889L212.304 256.488C212.304 256.685 212.239 256.881 212.141 257.012C212.042 257.143 211.879 257.274 211.649 257.372C211.42 257.471 211.092 257.536 210.699 257.602C210.274 257.634 209.75 257.667 209.127 257.667C208.505 257.667 208.014 257.634 207.588 257.602C207.162 257.536 206.867 257.471 206.605 257.372C206.376 257.274 206.18 257.143 206.114 257.012C206.016 256.881 205.983 256.717 205.983 256.488L205.983 222.196C205.983 221.999 206.016 221.835 206.114 221.672C206.212 221.508 206.409 221.41 206.638 221.279ZM320.815 226.748C320.913 226.552 320.946 226.257 320.978 225.864C321.011 225.471 321.011 225.012 320.946 224.456C320.946 223.866 320.913 223.408 320.913 223.047C320.913 222.687 320.88 222.458 320.848 222.261C320.815 222.097 320.749 221.934 320.716 221.835C320.684 221.737 320.585 221.606 320.422 221.475C320.258 221.344 319.996 221.213 319.636 221.082C319.275 220.984 318.85 220.853 318.391 220.755C317.932 220.656 317.507 220.591 317.081 220.558C316.655 220.525 316.262 220.493 315.935 220.493C315.214 220.493 314.461 220.591 313.74 220.787C313.02 220.951 312.299 221.311 311.546 221.803C310.792 222.294 310.006 222.982 309.187 223.833C308.369 224.718 307.484 225.831 306.534 227.207L306.534 222.196C306.534 221.999 306.502 221.803 306.403 221.672C306.338 221.508 306.174 221.377 305.978 221.279C305.781 221.148 305.486 221.082 305.126 221.049C304.733 221.017 304.275 220.984 303.718 220.984C303.128 220.984 302.67 221.017 302.309 221.049C301.949 221.082 301.654 221.148 301.425 221.279C301.196 221.41 301.065 221.508 300.966 221.672C300.868 221.835 300.835 221.999 300.835 222.196L300.835 256.488C300.835 256.717 300.868 256.881 300.966 257.012C301.032 257.143 301.228 257.274 301.458 257.372C301.72 257.471 302.015 257.536 302.44 257.602C302.866 257.634 303.357 257.667 303.98 257.667C304.602 257.667 305.126 257.634 305.552 257.602C305.945 257.536 306.272 257.471 306.502 257.372C306.731 257.274 306.895 257.143 306.993 257.012C307.091 256.881 307.157 256.685 307.157 256.488L307.157 233.889C308.041 232.513 308.86 231.334 309.613 230.351C310.367 229.401 311.054 228.615 311.742 228.026C312.43 227.469 313.052 227.043 313.675 226.781C314.264 226.519 314.919 226.388 315.542 226.388C316.098 226.388 316.59 226.454 317.048 226.552C317.507 226.65 317.932 226.781 318.293 226.879C318.653 227.01 318.981 227.109 319.275 227.24C319.57 227.338 319.799 227.403 320.029 227.403C320.258 227.403 320.389 227.371 320.52 227.24C320.651 227.141 320.749 226.978 320.815 226.748ZM291.141 240.636L268.443 240.636C268.443 242.535 268.639 244.271 269.032 245.778C269.425 247.317 270.048 248.627 270.965 249.708C271.849 250.789 273.028 251.641 274.469 252.23C275.91 252.82 277.679 253.114 279.743 253.114C281.38 253.114 282.854 252.983 284.131 252.721C285.409 252.459 286.522 252.165 287.472 251.837C288.422 251.51 289.175 251.215 289.798 250.953C290.387 250.691 290.846 250.56 291.173 250.56C291.37 250.56 291.501 250.592 291.665 250.691C291.796 250.789 291.927 250.92 291.992 251.084C292.058 251.248 292.123 251.51 292.156 251.837C292.189 252.165 292.221 252.558 292.221 253.016C292.221 253.344 292.221 253.639 292.189 253.868C292.156 254.097 292.123 254.326 292.09 254.523C292.058 254.719 291.992 254.883 291.894 255.047C291.796 255.211 291.697 255.342 291.534 255.473C291.403 255.604 290.977 255.833 290.289 256.16C289.601 256.488 288.717 256.783 287.603 257.11C286.522 257.405 285.245 257.7 283.804 257.929C282.363 258.158 280.823 258.289 279.186 258.289C276.336 258.289 273.88 257.896 271.718 257.11C269.589 256.324 267.788 255.145 266.347 253.606C264.906 252.066 263.792 250.101 263.039 247.776C262.285 245.45 261.925 242.699 261.925 239.62C261.925 236.672 262.318 234.02 263.071 231.661C263.825 229.303 264.938 227.305 266.379 225.668C267.821 224.03 269.556 222.752 271.62 221.901C273.651 221.017 275.943 220.591 278.465 220.591C281.184 220.591 283.476 221.017 285.376 221.901C287.276 222.752 288.848 223.932 290.06 225.405C291.304 226.879 292.189 228.583 292.746 230.548C293.335 232.513 293.597 234.609 293.597 236.869L293.597 238.015C293.597 238.998 293.335 239.719 292.844 240.144C292.352 240.406 291.763 240.636 291.141 240.636ZM228.157 221.049C227.764 221.049 227.436 221.115 227.207 221.213C226.945 221.311 226.781 221.442 226.585 221.573C226.486 221.704 226.421 221.901 226.421 222.097C226.421 222.163 226.454 222.261 226.454 222.392C226.486 222.523 226.519 222.687 226.585 222.916C226.65 223.146 226.748 223.44 226.847 223.735L238.572 256.39C238.67 256.652 238.801 256.881 238.998 257.045C239.194 257.241 239.424 257.372 239.751 257.471C240.079 257.569 240.472 257.634 240.996 257.7C241.52 257.733 242.175 257.765 242.928 257.765C243.682 257.765 244.304 257.733 244.828 257.7C245.352 257.667 245.778 257.602 246.105 257.503C246.433 257.405 246.695 257.274 246.859 257.078C247.022 256.914 247.153 256.685 247.252 256.39L259.01 223.735C259.043 223.571 259.108 223.408 259.141 223.244C259.174 223.08 259.207 222.949 259.239 222.818C259.272 222.687 259.305 222.589 259.305 222.458C259.338 222.327 259.338 222.228 259.338 222.13C259.338 221.934 259.305 221.737 259.207 221.606C259.108 221.475 258.977 221.344 258.748 221.246C258.519 221.148 258.224 221.082 257.831 221.049C257.471 221.017 256.979 221.017 256.39 221.017C255.702 221.017 255.145 221.049 254.719 221.082C254.326 221.115 253.966 221.18 253.737 221.279C253.507 221.377 253.311 221.508 253.18 221.672C253.049 221.835 252.983 222.032 252.918 222.261L243.289 250.593L243.158 251.051L242.994 250.593L233.266 222.261C233.168 222.032 233.07 221.835 232.939 221.672C232.84 221.508 232.644 221.377 232.415 221.279C232.185 221.18 231.858 221.115 231.399 221.082C230.973 221.049 230.384 221.017 229.631 221.017C229.041 221.017 228.55 221.017 228.157 221.049ZM278.105 225.406C281.151 225.406 283.444 226.323 285.016 228.222C286.588 230.122 287.309 232.709 287.243 236.017L268.443 236.017C268.476 234.609 268.738 233.266 269.163 231.989C269.589 230.711 270.211 229.598 270.998 228.615C271.816 227.665 272.799 226.879 273.978 226.29C275.157 225.7 276.533 225.406 278.105 225.406ZM190.229 228.222C191.801 230.122 192.522 232.709 192.456 236.017L173.656 236.017C173.689 234.609 173.951 233.266 174.377 231.989C174.802 230.712 175.425 229.598 176.211 228.615C177.029 227.665 178.012 226.879 179.191 226.29C180.37 225.7 181.746 225.406 183.318 225.406C186.364 225.406 188.657 226.323 190.229 228.222Z" id="Shape" fill="#000000" fill-rule="evenodd" stroke="none" />
      </g>
    </g>
  </g>
</svg>