<?xml version="1.0" encoding="utf-8"?>
<svg width="320px" height="320px" viewBox="0 0 320 320" version="1.1" xmlns:xlink="http://www.w3.org/1999/xlink" xmlns="http://www.w3.org/2000/svg">
  <desc>Created with Lunacy</desc>
  <g id="NET_Core_Logo">
    <path d="M0 158.295C0 70.8709 70.8709 0 158.295 0C245.718 0 316.589 70.8709 316.589 158.295C316.589 245.718 245.718 316.589 158.295 316.589C70.8709 316.589 0 245.718 0 158.295Z" transform="translate(2.769714 0)" id="Circle" fill="#EAEAEA" stroke="none" />
    <path d="M52.9875 0C9.14252 39.0707 -9.46837 99.2041 4.64111 156.211C18.7506 213.219 63.2612 257.729 120.268 271.839C177.276 285.948 237.409 267.337 276.48 223.492L52.9875 0Z" transform="translate(0 43.52036)" id="Shape" fill="#FFFFFF" stroke="none" />
    <path d="M6.97545 14.0986C5.10862 14.128 3.31472 13.3746 2.02875 12.021C0.708268 10.7164 -0.0240147 8.93037 0.000601487 7.0743C-0.0127185 5.22038 0.717845 3.43854 2.02877 2.12758C3.30245 0.75058 5.09989 -0.0223234 6.97547 0.000490625C8.84738 -0.00409483 10.6378 0.76579 11.9222 2.12758C13.256 3.42711 14.0057 5.21208 13.9998 7.07428C14.0173 8.93875 13.2658 10.7281 11.9222 12.021C10.626 13.3596 8.83883 14.1102 6.97545 14.0986L6.97545 14.0986Z" transform="translate(32.40048 170.1667)" id="Shape" fill="#000000" stroke="none" />
    <path d="M72.6176 90.1784L59.6573 90.1784L13.3066 18.2533C12.1521 16.4812 11.1903 14.5907 10.4376 12.6141L10.0418 12.6141C10.4823 16.7207 10.6476 20.8522 10.5365 24.9809L10.5365 90.1784L0 90.1784L0 0L13.7024 0L58.8163 70.6389C60.6961 73.574 61.9163 75.5856 62.4769 76.6739C62.4769 76.6739 62.7242 76.6739 62.7242 76.6739C62.2023 72.2752 61.9874 67.8454 62.0812 63.4168L62.0812 0L72.6176 0L72.6176 90.1784Z" transform="translate(65.04874 92.84967)" id="Shape" fill="#000000" stroke="none" />
    <path d="M47.9336 90.1784L0 90.1784L0 0L45.7075 0L45.7075 9.54714L10.7838 9.54714L10.7838 39.5242L43.3331 39.5242L43.3331 49.0219L10.7838 49.0219L10.7838 80.285L47.983 80.285L47.9336 90.1784Z" transform="translate(161.0643 92.84967)" id="Shape" fill="#000000" stroke="none" />
    <path d="M62.6748 9.54714L36.4572 9.54714L36.4572 90.1784L25.9207 90.1784L25.9207 9.54714L0 9.54714L0 0L62.6748 0L62.6748 9.54714Z" transform="translate(217.1105 92.84967)" id="Shape" fill="#000000" stroke="none" />
    <path d="M31.0383 40.3794C27.467 42.109 23.5276 42.941 19.5619 42.8033C14.2306 43.0434 9.05521 40.9697 5.36485 37.1145C1.73015 33.0459 -0.184947 27.7262 0.0224083 22.2744C-0.246416 16.3106 1.9131 10.4924 6.00792 6.14817C10.0014 2.05704 15.5296 -0.168605 21.2438 0.0142281C24.626 -0.101352 27.9952 0.488266 31.1372 1.74557L31.1372 6.69227C28.1121 5.01756 24.701 4.1648 21.2438 4.21892C16.8331 4.0947 12.5877 5.90122 9.61901 9.16563C6.53397 12.6802 4.93735 17.2573 5.16699 21.9281C4.936 26.3528 6.42489 30.6954 9.32222 34.0476C12.1346 37.0717 16.128 38.7161 20.2545 38.5491C24.0526 38.6485 27.8035 37.6893 31.0877 35.7789L31.0383 40.3794Z" transform="translate(100.9618 204.0021)" id="Shape" fill="#000000" stroke="none" />
    <path d="M3.93505 26.9289C6.6431 29.8542 10.4873 31.4604 14.4715 31.3315C18.5322 31.4536 22.4469 29.812 25.2059 26.83C27.9814 23.7094 29.4203 19.6237 29.2127 15.4526C29.4581 11.3426 28.1318 7.29312 25.5027 4.12462C22.8213 1.31212 19.0445 -0.187777 15.1641 0.0188513C11.0638 -0.165378 7.07028 1.3568 4.13291 4.22354C1.25658 7.40834 -0.222385 11.6136 0.0271448 15.8977C-0.174276 19.946 1.23009 23.9102 3.93505 26.9289ZM7.59038 7.38249C9.39709 5.29739 12.0561 4.15002 14.8126 4.26604C17.5207 4.12395 20.139 5.25916 21.8864 7.33305C23.6807 9.81132 24.5553 12.8374 24.3597 15.8908C24.5605 18.9294 23.6848 21.9417 21.8864 24.3992C20.1149 26.43 17.5028 27.526 14.8126 27.3672C12.0668 27.4811 9.41517 26.3551 7.59038 24.3002C5.69863 21.9581 4.7464 18.9956 4.91916 15.9898C4.73779 12.8919 5.68697 9.83342 7.59038 7.38249Z" transform="translate(137.7653 215.4785)" id="Shape" fill="#000000" fill-rule="evenodd" stroke="none" />
    <path d="M15.5327 5.3008C14.4642 4.60083 13.1957 4.27068 11.9216 4.36092C9.89799 4.43455 8.04362 5.51009 6.97487 7.23002C5.50254 9.56101 4.79361 12.2931 4.9467 15.0458L4.9467 30.1827L0 30.1827L0 0.502513L4.9467 0.502513L4.9467 6.68587L4.9467 6.68587C5.49052 4.77263 6.57218 3.05572 8.06315 1.73917C9.35325 0.619565 11.0049 0.00458545 12.713 0.00783113C13.6693 -0.0351363 14.6252 0.0990307 15.5327 0.403577L15.5327 5.3008Z" transform="translate(174.5193 215.9237)" id="Shape" fill="#000000" stroke="none" />
    <path d="M5.12603 16.8363L26.0506 16.8363L26.0012 14.264C26.2364 10.5019 25.113 6.78045 22.8353 3.77702C20.5683 1.21139 17.2506 -0.173983 13.8323 0.0175304C10.0484 -0.0894258 6.41643 1.50861 3.93887 4.37064C1.25045 7.49699 -0.146829 11.5296 0.0309471 15.6491C-0.220479 19.7585 1.06681 23.8143 3.64202 27.0266C6.17125 29.7845 9.79814 31.2715 13.5354 31.0829C17.1939 31.2669 20.8156 30.2791 23.8741 28.2632L23.8741 23.8112C21.2697 25.9238 18.0265 27.092 14.6732 27.1255C12.0583 27.2755 9.50337 26.3039 7.64886 24.4543C5.88565 22.3193 4.98564 19.6017 5.12603 16.8363ZM19.0943 6.44064C20.4738 8.27395 21.1733 10.5297 21.0729 12.8219L5.04562 12.8713C5.31175 10.5162 6.33604 8.31139 7.96416 6.58904C9.43609 5.01836 11.5005 4.13876 13.6529 4.16516C15.7189 4.05322 17.7229 4.89127 19.0943 6.44064Z" transform="translate(193.0201 215.6764)" id="Shape" fill="#000000" fill-rule="evenodd" stroke="none" />
  </g>
</svg>