<?xml version="1.0" encoding="utf-8"?>
<svg width="1280px" height="720px" viewBox="0 0 1280 720" version="1.1" xmlns:xlink="http://www.w3.org/1999/xlink" xmlns="http://www.w3.org/2000/svg">
  <desc>Created with Lunacy</desc>
  <defs>
    <rect width="1280" height="720" id="artboard_1" />
    <clipPath id="clip_1">
      <use xlink:href="#artboard_1" clip-rule="evenodd" />
    </clipPath>
  </defs>
  <g id="HD" clip-path="url(#clip_1)">
    <use xlink:href="#artboard_1" stroke="none" fill="#FFFFFF" />
    <path d="M0 0L1280 0L1280 240L0 240L0 0Z" id="Rectangle" fill="#404040" stroke="none" />
    <path d="M0 0L1280 0L1280 240L0 240L0 0Z" transform="translate(0 480)" id="Rectangle-2" fill="#FBB03B" stroke="none" />
    <path d="M0 0L1280 0L1280 240L0 240L0 0Z" transform="translate(0 240)" id="Rectangle-3" fill="#BDBDBD" stroke="none" />
    <g id="NetStalker" fill="#FFFFFF" transform="translate(293.5839 288)">
      <path d="M390.72 34.848L390.72 105.888L381.984 105.888L381.984 34.848L390.72 34.848ZM423.072 82.176L443.232 105.888L454.176 105.888L429.984 79.392L453.6 53.184L442.944 53.184L423.072 76.128L423.072 34.848L414.336 34.848L414.336 105.888L423.072 105.888L423.072 82.176ZM238.656 97.248Q240.96 93.12 240.96 88.32Q240.96 81.888 238.176 78Q235.392 74.112 231.408 72.192Q227.424 70.272 220.896 68.16Q215.52 66.432 212.448 65.04Q209.376 63.648 207.312 61.2Q205.248 58.752 205.248 54.816Q205.248 49.824 208.416 47.088Q211.584 44.352 216.864 44.352Q222.624 44.352 225.984 47.424Q229.344 50.496 230.112 54.528L239.52 54.528Q238.56 47.04 232.704 42.192Q226.848 37.344 216.864 37.344Q210.432 37.344 205.68 39.552Q200.928 41.76 198.384 45.792Q195.84 49.824 195.84 55.104Q195.84 61.248 198.576 64.992Q201.312 68.736 205.2 70.608Q209.088 72.48 215.52 74.592Q220.992 76.32 224.16 77.808Q227.328 79.296 229.488 81.888Q231.648 84.48 231.648 88.608Q231.648 93.408 228.576 96.48Q225.504 99.552 219.744 99.552Q215.328 99.552 212.208 97.776Q209.088 96 207.408 93.264Q205.728 90.528 205.44 87.648L196.128 87.648Q196.608 93.12 199.728 97.392Q202.848 101.664 208.08 104.112Q213.312 106.56 220.032 106.56Q226.944 106.56 231.648 103.968Q236.352 101.376 238.656 97.248ZM50.88 105.888L59.616 105.888L59.616 38.208L50.88 38.208L50.88 91.776L15.744 38.208L7.008 38.208L7.008 105.888L15.744 105.888L15.744 52.416L50.88 105.888ZM177.888 105.888L171.36 105.888C165.984 105.888 161.968 104.608 159.312 102.048Q155.328 98.208 155.328 89.184L155.328 60.768L147.456 60.768L147.456 53.184L155.328 53.184L155.328 40.032L164.16 40.032L164.16 53.184L177.792 53.184L177.792 60.768L164.16 60.768L164.16 89.376Q164.16 94.464 166.032 96.336Q167.904 98.208 172.512 98.208L177.888 98.208L177.888 105.888ZM287.424 105.888L280.896 105.888C275.52 105.888 271.504 104.608 268.848 102.048Q264.864 98.208 264.864 89.184L264.864 60.768L256.992 60.768L256.992 53.184L264.864 53.184L264.864 40.032L273.696 40.032L273.696 53.184L287.328 53.184L287.328 60.768L273.696 60.768L273.696 89.376Q273.696 94.464 275.568 96.336Q277.44 98.208 282.048 98.208L287.424 98.208L287.424 105.888ZM557.28 55.344Q552.288 58.368 549.696 63.84L549.696 53.184L540.96 53.184L540.96 105.888L549.696 105.888L549.696 78.144Q549.696 69.408 554.4 65.616Q559.104 61.824 566.496 61.824L569.184 61.824L569.184 52.32Q562.272 52.32 557.28 55.344ZM131.328 81.408Q131.712 79.392 131.712 76.608Q131.712 69.984 128.688 64.512Q125.664 59.04 119.952 55.776Q114.24 52.512 106.56 52.512Q98.976 52.512 93.12 55.776Q87.264 59.04 83.952 65.184Q80.64 71.328 80.64 79.584Q80.64 87.84 83.952 93.936Q87.264 100.032 93.12 103.296Q98.976 106.56 106.56 106.56Q113.184 106.56 118.464 104.16Q123.744 101.76 127.056 97.44Q130.368 93.12 131.328 87.648L122.016 87.648Q121.056 93.024 116.784 96.24Q112.512 99.456 106.176 99.456Q99.168 99.456 94.32 94.944Q89.472 90.432 89.184 81.408L131.328 81.408ZM342.288 56.352Q336.96 52.512 329.28 52.512Q322.272 52.512 316.8 55.776Q311.328 59.04 308.208 65.184Q305.088 71.328 305.088 79.584Q305.088 87.84 308.208 93.936Q311.328 100.032 316.8 103.296Q322.272 106.56 329.28 106.56Q336.96 106.56 342.288 102.72Q347.616 98.88 349.728 92.448L349.728 105.888L358.464 105.888L358.464 53.184L349.728 53.184L349.728 66.624Q347.616 60.192 342.288 56.352ZM519.936 76.608Q519.936 79.392 519.552 81.408L477.408 81.408Q477.696 90.432 482.544 94.944Q487.392 99.456 494.4 99.456Q500.736 99.456 505.008 96.24Q509.28 93.024 510.24 87.648L519.552 87.648Q518.592 93.12 515.28 97.44Q511.968 101.76 506.688 104.16Q501.408 106.56 494.784 106.56Q487.2 106.56 481.344 103.296Q475.488 100.032 472.176 93.936Q468.864 87.84 468.864 79.584Q468.864 71.328 472.176 65.184Q475.488 59.04 481.344 55.776Q487.2 52.512 494.784 52.512Q502.464 52.512 508.176 55.776Q513.888 59.04 516.912 64.512Q519.936 69.984 519.936 76.608ZM120.96 67.392Q123.168 71.328 122.88 77.184L89.184 77.184Q89.568 68.544 94.464 64.08Q99.36 59.616 106.56 59.616Q111.072 59.616 114.912 61.536Q118.752 63.456 120.96 67.392ZM511.104 77.184Q511.392 71.328 509.184 67.392Q506.976 63.456 503.136 61.536Q499.296 59.616 494.784 59.616Q487.584 59.616 482.688 64.08Q477.792 68.544 477.408 77.184L511.104 77.184ZM318.864 65.424Q323.712 60.288 331.776 60.288Q336.96 60.288 341.04 62.64Q345.12 64.992 347.424 69.408Q349.728 73.824 349.728 79.584Q349.728 85.344 347.424 89.712Q345.12 94.08 341.04 96.48Q336.96 98.88 331.776 98.88Q323.712 98.88 318.864 93.744Q314.016 88.608 314.016 79.584Q314.016 70.56 318.864 65.424Z" />
    </g>
    <g id="icons8_search_1" transform="translate(893 288)">
      <path d="M0 54.9969C0 24.6085 24.6085 0 54.9969 0C85.3852 0 109.994 24.6085 109.994 54.9969C109.994 67.8922 105.506 79.7805 98.0835 89.1509L102.988 94.0551C106.863 91.9533 111.789 92.5226 115.073 95.8066L140.995 121.554C145.002 125.56 145.002 132.084 140.995 136.091L136.091 140.995C132.084 145.002 125.56 145.002 121.554 140.995L95.8066 115.073C92.5445 111.811 91.822 106.863 93.88 102.988L88.9758 98.0835C79.6272 105.462 67.8265 109.994 54.9969 109.994C24.6085 109.994 0 85.3852 0 54.9969ZM54.9968 10.1587C79.7585 10.1587 99.835 30.2351 99.835 54.9969C99.835 79.7586 79.7585 99.835 54.9968 99.835C30.2351 99.835 10.1586 79.7586 10.1586 54.9969C10.1586 30.2351 30.2351 10.1587 54.9968 10.1587ZM22.0688 56.9235C22.0688 51.0122 23.7327 45.495 26.6227 40.8098C26.6081 41.2031 26.6129 41.5866 26.6178 41.9734C26.6202 42.168 26.6227 42.3634 26.6227 42.5613C26.6227 64.4987 44.269 82.145 66.2064 82.145C67.5857 82.145 69.0745 82.1231 70.41 81.9698C65.4182 85.4509 59.2661 87.5746 52.7199 87.5746C35.7523 87.5746 22.0688 73.8911 22.0688 56.9235Z" id="Shape" fill="#FFFFFF" fill-rule="evenodd" stroke="none" />
    </g>
  </g>
</svg>