<?xml version="1.0" encoding="utf-8"?>
<svg width="368px" height="374px" viewBox="0 0 368 374" version="1.1" xmlns:xlink="http://www.w3.org/1999/xlink" xmlns="http://www.w3.org/2000/svg">
  <desc>Created with Lunacy</desc>
  <g id="Group">
    <path d="M59.999 0L308.001 0C341.138 0 368 26.8625 368 59.999L368 314.001C368 347.138 341.138 374 308.001 374L59.999 374C26.8625 374 0 347.138 0 314.001L0 59.999C0 26.8625 26.8625 0 59.999 0Z" id="Rectangle" fill="#FFFFFF" stroke="none" />
    <g id="PostgreSQL-01" transform="translate(29 27)">
      <g id="XMLID_1_">
        <path d="M310.563 192.163C308.717 186.535 303.792 182.577 297.46 181.61C294.47 181.17 291.04 181.346 286.995 182.225C279.959 183.72 274.682 184.248 270.901 184.336C285.324 159.976 297.108 132.186 303.792 106.066C314.697 63.7656 308.892 44.506 302.033 35.7996C284.004 12.7585 257.621 0.358451 225.874 0.00666929C208.901 -0.169215 194.038 3.17263 186.299 5.5471C179.088 4.3159 171.261 3.5244 163.17 3.43646C147.868 3.17263 134.413 6.51448 122.804 13.3741C116.384 11.1755 106.183 8.18541 94.3106 6.25065C66.4326 1.6776 44.007 5.28328 27.5616 16.8039C7.68643 30.8748 -1.54762 55.2351 0.211243 89.3571C0.738902 100.174 6.807 133.065 16.3049 164.285C21.7574 182.225 27.6496 197.088 33.6297 208.608C42.1602 224.878 51.3943 234.376 61.6837 237.806C67.4879 239.74 77.9532 241.059 88.9461 231.913C90.3532 233.584 92.2 235.255 94.6624 236.838C97.8284 238.861 101.61 240.444 105.479 241.411C119.287 244.841 132.214 243.962 143.295 239.125C143.383 241.059 143.383 242.994 143.471 244.577C143.559 247.215 143.647 249.766 143.735 252.228C144.35 268.498 145.494 281.25 148.748 290.044C148.923 290.572 149.187 291.275 149.451 292.067C151.122 297.079 153.848 305.522 160.796 312.118C168.007 318.977 176.714 321 184.716 321C188.762 321 192.543 320.472 195.885 319.769C207.846 317.218 221.477 313.261 231.326 299.278C240.648 285.999 245.134 266.123 245.925 234.64C246.013 233.76 246.101 232.881 246.189 232.089C246.277 231.562 246.277 230.946 246.365 230.418L248.563 230.594L249.091 230.594C261.315 231.122 276.178 228.572 285.324 224.35C292.799 221.008 316.016 208.696 310.563 192.163" id="XMLID_3_" fill="#000000" stroke="none" />
        <path d="M276.152 181.996C239.919 189.471 237.369 177.159 237.369 177.159C275.624 120.348 291.63 48.2339 277.823 30.6453C240.183 -17.4598 174.929 5.31757 173.874 5.84524L173.522 5.93318C166.399 4.43814 158.308 3.55871 149.338 3.38282C132.892 3.11899 120.492 7.69205 111.082 14.8155C111.082 14.8155 -5.26666 -33.1137 0.185828 75.0567C1.32909 98.0978 33.1646 249.273 71.1561 203.542C85.0512 186.833 98.4186 172.762 98.4186 172.762C105.102 177.159 113.017 179.445 121.46 178.654L122.075 178.126C121.899 180.237 121.987 182.26 122.339 184.634C112.577 195.539 115.392 197.474 95.8682 201.519C76.081 205.565 87.6895 212.864 95.2526 214.799C104.487 217.085 125.769 220.339 140.104 200.2L139.488 202.487C143.358 205.565 145.996 222.45 145.556 237.752C145.116 253.054 144.765 263.607 147.843 271.786C150.833 279.965 153.911 298.521 179.59 292.98C201.048 288.407 212.217 276.447 213.8 256.572C214.856 242.413 217.406 244.524 217.582 231.86L219.605 225.88C221.891 206.708 219.956 200.552 233.236 203.366L236.49 203.63C246.251 204.07 259.003 202.047 266.478 198.617C282.484 191.23 291.982 178.742 276.152 181.996L276.152 181.996" transform="translate(13.54323 16.79716)" id="XMLID_4_" fill="#FFFFFF" stroke="none" />
        <path d="M8.90337 0.169268C5.64947 -0.270448 2.65938 0.169268 1.16435 1.22458C0.284914 1.84018 0.0210814 2.63168 0.0210814 3.0714C-0.154803 4.39055 0.812567 5.88558 1.34023 6.67708C3.01115 8.87566 5.38564 10.3707 7.76011 10.6345C8.11187 10.7225 8.46366 10.7225 8.81542 10.7225C12.7729 10.7225 16.3786 7.64446 16.6424 5.35793C17.0821 2.63168 12.9488 0.696933 8.90337 0.169268" transform="translate(122.3292 98.84834)" id="XMLID_5_" fill="#000000" stroke="none" />
        <path d="M15.2279 2.54156L15.2279 2.54156C14.8761 0.342979 10.9186 -0.360571 7.13706 0.167094C3.3555 0.69476 -0.250186 2.36568 0.0136338 4.65221C0.277453 6.41108 3.35547 9.40115 7.13706 9.40115C7.48882 9.40115 7.75267 9.40115 8.10444 9.3132C10.5668 8.96143 12.4137 7.37845 13.2931 6.49901C14.6122 5.09191 15.3158 3.59688 15.2279 2.54156" transform="translate(224.2555 96.56182)" id="XMLID_6_" fill="#000000" stroke="none" />
        <path d="M293.03 186.01C291.622 181.789 287.225 180.47 279.838 182.052C257.852 186.626 250.025 183.46 247.475 181.525C264.536 155.494 278.607 124.098 286.17 94.8126C289.776 80.9176 291.71 67.9899 291.886 57.5247C292.062 46.0041 290.127 37.4736 286.082 32.3729C269.725 11.5303 245.804 0.273535 216.695 0.00970871C196.732 -0.254124 179.846 4.93454 176.593 6.34163C169.733 4.6707 162.17 3.61539 154.079 3.43949C139.129 3.17566 126.113 6.78134 115.384 14.0806C110.723 12.3218 98.6747 8.18844 83.9882 5.81396C58.5726 1.68063 38.3456 4.84659 23.9229 15.048C6.59802 27.1842 -1.31689 48.9942 0.178147 79.7744C0.705806 90.1517 6.59802 121.987 15.92 152.591C28.1441 192.782 41.5115 215.559 55.5825 220.22C57.2534 220.748 59.1002 221.187 61.2108 221.187C66.3116 221.187 72.6435 218.901 79.1513 211.074C89.9683 198.058 100.082 187.065 103.863 183.108C109.404 186.098 115.472 187.681 121.628 187.857L121.628 188.384C120.397 189.879 119.341 191.111 118.462 192.254C114.153 197.706 113.273 198.85 99.4662 201.664C95.5087 202.455 85.1314 204.654 84.9555 211.953C84.7796 219.956 97.2676 223.298 98.7626 223.65C103.687 224.881 108.524 225.497 113.097 225.497C124.178 225.497 133.94 221.891 141.767 214.767C141.503 243.261 142.734 271.403 146.164 279.934C148.978 286.969 155.838 304.03 177.472 304.03C180.638 304.03 184.156 303.678 188.025 302.799C210.627 297.962 220.388 287.936 224.17 265.951C226.193 254.166 229.71 226.112 231.293 211.074C234.723 212.129 239.208 212.657 244.045 212.657C254.071 212.657 265.679 210.546 272.891 207.116C280.981 203.423 295.668 194.101 293.03 186.01ZM217.572 9.00408C243.603 9.61968 264.182 19.2934 278.693 37.9374C289.861 52.1843 277.549 117.174 241.932 173.194L240.877 171.875C240.701 171.699 240.613 171.523 240.437 171.348C249.626 156.207 247.842 141.241 246.264 128.009L246.241 127.816C246.165 127.141 246.088 126.471 246.011 125.804C245.465 121.085 244.944 116.576 245.098 112.338C245.274 107.149 245.978 102.752 246.593 98.5304C246.629 98.2902 246.665 98.0495 246.702 97.8084C247.462 92.7553 248.252 87.509 248 81.3815C248.176 80.6779 248.264 79.8864 248.176 79.007C247.561 72.851 240.613 54.4708 226.278 37.7616C218.451 28.6155 207.019 18.414 191.453 11.5544C198.136 10.0594 207.283 8.74024 217.572 9.00408ZM185.824 294.092C165.949 298.313 158.914 288.2 154.253 276.591C151.263 269.116 149.768 235.346 150.823 198.058C150.823 197.53 150.735 197.091 150.647 196.651C150.559 195.771 150.383 194.892 150.119 194.013C148.536 188.56 144.755 184.075 140.27 182.14C140.164 182.1 140.054 182.057 139.939 182.013C138.048 181.284 134.943 180.085 131.212 180.997C132.091 177.479 133.498 173.522 135.169 169.301L135.872 167.542C136.664 165.519 137.543 163.408 138.599 161.21L138.697 160.988C144.054 148.96 151.389 132.489 143.348 95.604C140.358 81.709 130.332 74.9373 115.03 76.4324C105.884 77.3997 97.5292 81.0934 93.3959 83.204C92.5164 83.6437 91.637 84.0834 90.9334 84.5231C92.0767 70.5402 96.4739 44.333 112.919 27.7117C123.033 17.2465 136.84 12.0578 153.637 12.3217C186.704 12.8493 207.898 29.8224 219.946 43.9813C230.236 56.2054 235.864 68.4295 238.063 75.1132C221.265 73.4423 209.921 76.6962 204.117 84.9629C191.541 102.903 210.976 137.817 220.386 154.614C222.057 157.692 223.552 160.33 224.08 161.474C227.158 168.861 231.027 173.786 233.929 177.391C234.809 178.535 235.688 179.59 236.304 180.469C231.203 181.964 222.145 185.306 222.936 202.191C222.233 210.634 217.484 250.384 215.109 264.455C211.856 283.011 204.996 289.959 185.824 294.092ZM58.4543 219.348C60.1738 219.892 65.0714 221.442 72.2093 212.912C82.4107 200.688 91.9086 190.222 96.2178 185.473C95.1625 184.594 94.1072 183.539 93.0518 182.483C83.2022 172.194 78.7171 157.947 80.7398 143.349C82.9384 127.607 82.1469 113.8 81.7072 106.324C81.6192 104.302 81.5313 102.807 81.5313 101.751C81.4433 99.1131 80.8277 54.8776 106.507 28.9343C106.771 28.7584 106.947 28.5826 107.211 28.3187C91.5568 23.218 52.6858 13.1925 29.0291 29.9897C14.4305 40.279 7.74678 59.4507 9.15388 86.977C9.59359 95.6833 15.134 126.727 24.544 157.595C35.4489 193.3 47.761 215.814 58.4022 219.332L58.4543 219.348ZM240.305 97.5271C240.921 93.3058 241.537 89.3483 241.624 84.8632C223.948 82.6646 216.824 86.798 214.01 90.5795C204.688 103.947 222.893 136.75 230.719 150.733C232.742 154.338 234.149 156.977 234.853 158.56C235.556 160.407 236.436 161.99 237.227 163.485C242.547 152.148 241.208 140.724 239.899 129.557L239.866 129.275C239.814 128.805 239.762 128.335 239.71 127.865C239.139 122.694 238.561 117.468 238.722 112.389C238.898 106.761 239.602 102.1 240.305 97.5271ZM99.8587 169.228C91.9438 160.961 88.2502 149.352 89.9211 137.568C92.2076 121.035 91.4161 106.524 90.8885 98.7849C90.8005 97.7296 90.8005 96.7622 90.7126 95.9707C94.4942 92.6288 111.819 83.3069 124.219 86.209C129.847 87.5281 133.277 91.3097 134.772 97.9934C142.159 132.291 135.74 146.538 130.551 157.971C129.496 160.345 128.44 162.544 127.649 164.918L126.945 166.677C125.274 171.162 123.691 175.384 122.724 179.429C114.281 179.341 106.103 175.735 99.8587 169.228ZM246.729 203.589C254.995 203.237 263.702 201.39 268.89 199.016C274.958 196.202 279.18 193.124 281.642 190.661L281.466 190.661C262.998 194.443 249.895 193.915 242.595 189.078C242.156 188.814 241.716 188.551 241.364 188.199C240.748 188.463 240.045 188.639 239.429 188.814L239.29 188.856C235.207 190.071 231.344 191.22 231.866 201.654C233.009 202.534 237.582 204.029 246.729 203.589ZM94.715 213.034C96.0342 213.913 98.2327 214.969 100.695 215.584C112.743 218.574 129.365 218.838 140.797 202.657C142.204 200.722 141.765 198.347 141.413 197.028C140.621 194.302 138.687 191.84 136.752 191.048C134.377 190.081 132.97 189.553 130.068 192.807C128.133 195.006 126.638 196.852 125.407 198.435C119.867 205.383 117.404 207.757 101.135 211.099C97.7051 211.803 95.7703 212.506 94.715 213.034Z" transform="translate(8.706352 8.530491)" id="XMLID_15_" fill="#000000" fill-rule="evenodd" stroke="none" />
      </g>
    </g>
  </g>
</svg>