<?xml version="1.0" encoding="UTF-8"?>
<svg xmlns="http://www.w3.org/2000/svg" xmlns:xlink="http://www.w3.org/1999/xlink" width="100pt" height="100pt" viewBox="0 0 100 100" version="1.1">
<g id="surface1257565">
<path style=" stroke:none;fill-rule:nonzero;fill:rgb(100%,100%,100%);fill-opacity:1;" d="M 98.648438 14.679688 C 96.769531 12.339844 93.429688 12.039062 90.726562 12.019531 C 82.871094 12 33.15625 12 25.957031 12.019531 C 17.957031 12.039062 14.796875 14.558594 12.996094 22.359375 C 8.816406 40.378906 4.660156 58.421875 0.539062 76.460938 C -0.078125 79.199219 -0.558594 82.679688 1.378906 85.121094 C 3.359375 87.601562 6.960938 87.941406 9.878906 87.941406 C 20.195312 87.980469 63.191406 87.980469 74.628906 87.941406 C 81.730469 87.921875 85.566406 84.921875 87.109375 78.179688 C 91.667969 58.21875 95.726562 40.140625 99.507812 22.898438 C 100.089844 20.300781 100.507812 17 98.648438 14.679688 Z M 29.515625 76.558594 C 27.117188 78.320312 24.835938 78.78125 22.914062 76.160156 C 20.777344 73.261719 22.757812 71.539062 24.957031 69.921875 C 32.875 64.140625 40.773438 58.320312 48.632812 52.480469 C 49.734375 51.660156 51.175781 50.539062 52.113281 49.839844 C 50.894531 48.460938 49.875 47.320312 49.054688 46.378906 C 44.195312 40.921875 39.734375 35.839844 34.914062 30.640625 C 32.714844 28.261719 32.015625 25.960938 34.65625 23.601562 C 37.277344 21.28125 39.855469 21.480469 42.234375 24.160156 C 48.914062 31.601562 55.59375 39.039062 62.371094 46.359375 C 64.910156 49.101562 64.332031 50.960938 61.53125 53 C 50.8125 60.78125 40.152344 68.660156 29.515625 76.558594 Z M 64.492188 76 L 45.492188 76 C 43.234375 76 41.992188 74 41.992188 72 C 41.992188 70 43.234375 68 45.492188 68 L 64.492188 68 C 66.753906 68 67.992188 70 67.992188 72 C 67.992188 74 66.753906 76 64.492188 76 Z M 64.492188 76 "/>
</g>
</svg>
