<?xml version="1.0" encoding="utf-8"?>
<svg width="350px" height="350px" viewBox="0 0 350 350" version="1.1" xmlns:xlink="http://www.w3.org/1999/xlink" xmlns="http://www.w3.org/2000/svg">
  <desc>Created with Lunacy</desc>
  <g id="Group">
    <path d="M43.999 0L306.001 0C330.301 0 350 19.699 350 43.999L350 306.001C350 330.301 330.301 350 306.001 350L43.999 350C19.699 350 0 330.301 0 306.001L0 43.999C0 19.699 19.699 0 43.999 0Z" id="Rectangle" fill="#FFFFFF" stroke="none" />
    <g id="React-01" transform="translate(15 32)">
      <g id="XMLID_1_">
        <path d="M253.546 89.2969C257.064 90.3522 260.494 91.4076 263.836 92.5509C298.486 104.511 320.912 123.156 321 142.416C321 162.555 296.991 182.255 260.23 194.479C258.295 195.095 256.272 195.711 254.25 196.326C254.953 199.316 255.657 202.131 256.184 204.945C263.396 241.706 257.855 271.871 240.618 281.809C223.996 291.483 196.997 281.985 169.734 258.503C166.832 256.041 163.93 253.403 161.028 250.588C158.829 252.699 156.542 254.81 154.344 256.745C126.201 281.369 97.2674 291.571 80.0301 281.633C63.3205 271.959 58.1318 243.905 64.8156 208.551C65.5192 204.857 66.3986 200.987 67.366 197.118C64.3759 196.238 61.4737 195.359 58.6595 194.391C23.3055 182.255 0 162.291 0 142.416C0 123.156 21.7225 104.599 55.6693 92.7267Q61.3418 90.748 67.5419 89.033C66.6625 85.4273 65.871 81.9095 65.1674 78.3917C58.1318 42.4221 63.1447 13.664 79.8542 3.99004C97.2674 -6.12366 126.289 4.69361 155.311 30.4615C157.07 32.0446 158.829 33.7155 160.588 35.3865C163.226 32.8361 165.953 30.3736 168.591 28.087C196.206 4.07799 223.645 -6.03571 240.354 3.63826C257.855 13.664 262.956 44.2689 255.129 82.2613C254.689 84.5479 254.162 86.9224 253.546 89.2969ZM233.495 13.7024C244.224 19.8586 248.445 44.923 241.673 77.7266C241.234 79.8372 240.794 81.9479 240.266 84.1466C226.987 81.0685 212.476 78.7819 197.349 77.3748C188.555 64.7986 179.408 53.3657 170.174 43.5159C172.636 41.1414 175.099 38.8548 177.561 36.7441C201.219 15.989 223.381 7.89806 233.495 13.7024ZM81.3862 74.1519C75.318 43.2831 79.3635 20.0656 89.4772 14.2612C100.206 8.0171 123.952 16.8996 149.016 39.1497C150.599 40.5568 152.182 42.0519 153.853 43.6349C144.531 53.6607 135.297 65.0935 126.502 77.4938C111.376 78.9009 96.9525 81.0996 83.6728 84.1777C82.7934 80.6599 82.0898 77.3179 81.3862 74.1519ZM160.588 51.36C166.92 58.2197 173.252 65.871 179.496 74.1378C173.252 73.874 166.832 73.6981 160.412 73.6981C154.08 73.6981 147.748 73.874 141.504 74.1378C147.748 65.9589 154.168 58.3077 160.588 51.36ZM189.786 189.874C194.975 181.959 200.163 173.692 205.176 164.985C210.189 156.279 214.85 147.572 218.984 139.217C214.85 130.775 210.189 122.156 205.176 113.449C200.163 104.831 194.975 96.5639 189.698 88.7367C180.112 87.9452 170.35 87.5934 160.412 87.5934C150.562 87.5934 140.8 87.9452 131.214 88.6488C125.85 96.5639 120.573 104.831 115.648 113.449C110.723 121.98 106.15 130.687 102.016 139.305C106.15 147.924 110.723 156.542 115.736 165.161C120.661 173.78 125.938 182.135 131.39 190.05C140.712 190.577 150.386 190.929 160.412 190.929C170.438 190.929 180.288 190.577 189.786 189.874ZM207.287 90.2318C210.629 95.5085 213.883 100.873 217.049 106.326C220.303 111.954 223.381 117.583 226.283 122.947C230.328 113.449 233.846 104.215 236.573 95.3326C227.338 93.2219 217.489 91.5509 207.287 90.2318ZM94.717 123.123C97.6192 117.583 100.609 112.042 103.775 106.502C106.941 100.961 110.195 95.5085 113.625 90.3197C103.424 91.6389 93.6617 93.3098 84.5154 95.3326C87.3296 104.303 90.7595 113.625 94.717 123.123ZM25.5921 157.95C34.4745 165.513 47.4025 172.461 63.0568 177.825C65.6072 178.705 68.2455 179.496 71.0598 180.288C75.1053 167.008 80.4699 153.113 86.8899 139.129C80.5579 125.322 75.2811 111.69 71.2357 98.5866C67.3661 99.7299 63.6724 100.873 60.1546 102.104C31.0447 112.306 13.6315 127.169 13.6315 138.865C13.6315 144.406 17.5891 151.09 25.5921 157.95ZM255.833 177.913C254.074 178.529 252.315 179.056 250.468 179.584C246.422 166.744 240.882 153.025 234.198 138.953C240.618 125.146 245.895 111.69 249.852 98.8504C253.106 99.8178 256.36 100.785 259.438 101.841C289.164 112.042 307.281 127.169 307.281 138.865C307.193 151.266 287.669 167.36 255.833 177.913ZM189.082 138.865C189.082 123.035 176.242 110.195 160.412 110.195C144.582 110.195 131.742 123.035 131.742 138.865C131.742 154.696 144.582 167.536 160.412 167.536C176.242 167.536 189.082 154.696 189.082 138.865ZM226.371 154.784C230.68 164.545 234.286 174.044 237.188 183.014C227.866 185.125 217.84 186.884 207.287 188.115C210.629 182.838 213.883 177.385 217.137 171.757C220.391 166.129 223.469 160.5 226.371 154.784ZM113.889 188.379C103.336 187.235 93.4858 185.652 84.3395 183.63C87.1537 174.483 90.6715 164.985 94.717 155.311C97.6192 160.852 100.609 166.392 103.775 171.933C107.029 177.561 110.371 183.014 113.889 188.379ZM244.224 246.422C246.335 234.902 245.895 220.303 242.641 204.033C242.201 201.482 241.585 198.932 240.882 196.382C227.602 199.46 212.915 201.658 197.437 203.066C188.642 215.818 179.584 227.338 170.526 237.188C173.252 239.827 175.978 242.289 178.617 244.576C201.922 264.627 223.557 272.278 233.67 266.386C238.507 263.572 242.289 256.712 244.224 246.422ZM111.888 265.331C102.038 268.848 94.123 268.936 89.3739 266.21C79.2602 260.406 75.0389 237.804 80.7553 207.551C81.3709 204.121 82.1624 200.515 83.1298 196.909C96.3216 199.811 110.833 201.922 126.399 203.153C135.281 215.642 144.604 227.162 153.926 237.188C151.903 239.123 149.88 241.058 147.77 242.817C135.369 253.722 122.881 261.461 111.888 265.331ZM141.592 204.209C147.924 212.564 154.432 220.303 160.94 227.338C167.184 220.391 173.516 212.652 179.76 204.121C173.428 204.385 166.92 204.561 160.412 204.561C153.992 204.561 147.748 204.473 141.592 204.209Z" id="XMLID_2_" fill="#000000" fill-rule="evenodd" stroke="none" />
      </g>
    </g>
  </g>
</svg>