<?xml version="1.0" encoding="utf-8"?>
<svg width="1280px" height="1280px" viewBox="0 0 1280 1280" version="1.1" xmlns:xlink="http://www.w3.org/1999/xlink" xmlns="http://www.w3.org/2000/svg">
  <desc>Created with Lunacy</desc>
  <defs>
    <rect width="1280" height="1280" id="artboard_1" />
    <clipPath id="clip_1">
      <use xlink:href="#artboard_1" clip-rule="evenodd" />
    </clipPath>
  </defs>
  <g id="HD" clip-path="url(#clip_1)">
    <use xlink:href="#artboard_1" stroke="none" fill="#000000" />
    <g id="icons8_contacts" transform="matrix(-1 8.742278E-08 -8.742278E-08 -1 1341 327.4074)">
      <path d="M0 17.7778C0 8.03241 8.03241 0 17.7778 0L302.222 0C311.968 0 320 8.03241 320 17.7778L320 349.63C320 359.375 311.968 367.407 302.222 367.407L17.7778 367.407C8.03241 367.407 0 359.375 0 349.63L0 17.7778ZM17.7779 11.8519L41.4816 11.8519L41.4816 355.556L17.7779 355.556C14.4214 355.556 11.8519 352.986 11.8519 349.63L11.8519 17.7778C11.8519 14.4213 14.4214 11.8519 17.7779 11.8519ZM302.222 11.8519L53.3333 11.8519L53.3333 23.7037C56.5971 23.7037 59.2592 26.3658 59.2592 29.6296C59.2592 32.8935 56.5971 35.5556 53.3333 35.5556L53.3333 331.852C56.5971 331.852 59.2592 334.514 59.2592 337.778C59.2592 341.042 56.5971 343.704 53.3333 343.704L53.3333 355.556L302.222 355.556C305.579 355.556 308.148 352.986 308.148 349.63L308.148 17.7778C308.148 14.4213 305.579 11.8519 302.222 11.8519ZM219.259 23.7025C215.995 23.7025 213.333 26.3645 213.333 29.6284C213.333 32.8923 215.995 35.5544 219.259 35.5544C222.523 35.5544 225.185 32.8923 225.185 29.6284C225.185 26.3645 222.523 23.7025 219.259 23.7025ZM189.63 29.6286C189.63 26.3647 192.292 23.7026 195.556 23.7026C198.82 23.7026 201.482 26.3647 201.482 29.6286C201.482 32.8925 198.82 35.5545 195.556 35.5545C192.292 35.5545 189.63 32.8925 189.63 29.6286ZM266.666 23.7027C263.403 23.7027 260.74 26.3647 260.74 29.6286C260.74 32.8925 263.403 35.5546 266.666 35.5546C269.93 35.5546 272.592 32.8925 272.592 29.6286C272.592 26.3647 269.93 23.7027 266.666 23.7027ZM237.037 29.629C237.037 26.3651 239.699 23.7031 242.963 23.7031C246.227 23.7031 248.889 26.3651 248.889 29.629C248.889 32.8929 246.227 35.555 242.963 35.555C239.699 35.555 237.037 32.8929 237.037 29.629ZM171.852 23.7037C168.588 23.7037 165.926 26.3657 165.926 29.6296C165.926 32.8935 168.588 35.5556 171.852 35.5556C175.116 35.5556 177.778 32.8935 177.778 29.6296C177.778 26.3657 175.116 23.7037 171.852 23.7037ZM142.222 29.6297C142.222 26.3658 144.884 23.7037 148.148 23.7037C151.412 23.7037 154.074 26.3658 154.074 29.6297C154.074 32.8936 151.412 35.5556 148.148 35.5556C144.884 35.5556 142.222 32.8936 142.222 29.6297ZM94.8148 29.6297C94.8148 26.3658 97.4769 23.7037 100.741 23.7037C104.005 23.7037 106.667 26.3658 106.667 29.6297C106.667 32.8936 104.005 35.5556 100.741 35.5556C97.4769 35.5556 94.8148 32.8936 94.8148 29.6297ZM124.445 23.7038C121.181 23.7038 118.519 26.3659 118.519 29.6298C118.519 32.8937 121.181 35.5557 124.445 35.5557C127.708 35.5557 130.37 32.8937 130.37 29.6298C130.37 26.3659 127.708 23.7038 124.445 23.7038ZM284.444 29.6298C284.444 26.3659 287.106 23.7038 290.37 23.7038C293.634 23.7038 296.296 26.3659 296.296 29.6298C296.296 32.8937 293.634 35.5557 290.37 35.5557C287.106 35.5557 284.444 32.8937 284.444 29.6298ZM77.037 23.7041C73.7731 23.7041 71.1111 26.3662 71.1111 29.6301C71.1111 32.894 73.7731 35.556 77.037 35.556C80.3009 35.556 82.963 32.894 82.963 29.6301C82.963 26.3662 80.3009 23.7041 77.037 23.7041ZM290.37 47.4074C287.106 47.4074 284.444 50.0695 284.444 53.3334C284.444 56.5973 287.106 59.2593 290.37 59.2593C293.634 59.2593 296.296 56.5973 296.296 53.3334C296.296 50.0695 293.634 47.4074 290.37 47.4074ZM284.444 77.0374C284.444 73.7735 287.106 71.1115 290.37 71.1115C293.634 71.1115 296.296 73.7735 296.296 77.0374C296.296 80.3013 293.634 82.9633 290.37 82.9633C287.106 82.9633 284.444 80.3013 284.444 77.0374ZM290.37 94.815C287.106 94.815 284.444 97.477 284.444 100.741C284.444 104.005 287.106 106.667 290.37 106.667C293.634 106.667 296.296 104.005 296.296 100.741C296.296 97.477 293.634 94.815 290.37 94.815ZM207.407 201.482C207.407 224.329 188.773 242.963 165.926 242.963C143.078 242.963 124.444 224.329 124.444 201.482C124.444 187.222 131.736 174.583 142.754 167.13C121.574 158.079 106.666 137.037 106.666 112.593L118.518 112.593C118.518 138.843 139.676 160 165.926 160C192.176 160 213.333 138.843 213.333 112.593L225.185 112.593C225.185 137.037 210.277 158.079 189.097 167.13C200.115 174.583 207.407 187.222 207.407 201.482ZM290.37 118.519C287.106 118.519 284.444 121.181 284.444 124.444C284.444 127.708 287.106 130.37 290.37 130.37C293.634 130.37 296.296 127.708 296.296 124.444C296.296 121.181 293.634 118.519 290.37 118.519ZM290.37 142.222C287.106 142.222 284.444 144.884 284.444 148.148C284.444 151.412 287.106 154.074 290.37 154.074C293.634 154.074 296.296 151.412 296.296 148.148C296.296 144.884 293.634 142.222 290.37 142.222ZM284.442 171.852C284.442 168.588 287.104 165.926 290.368 165.926C293.632 165.926 296.294 168.588 296.294 171.852C296.294 175.116 293.632 177.778 290.368 177.778C287.104 177.778 284.442 175.116 284.442 171.852ZM135.741 200.778C135.741 217.213 148.935 230.407 165.37 230.407C181.806 230.407 195 217.213 195 200.778C195 184.343 181.806 171.148 165.37 171.148C148.935 171.148 135.741 184.343 135.741 200.778ZM290.37 189.63C287.107 189.63 284.444 192.292 284.444 195.556C284.444 198.819 287.107 201.482 290.37 201.482C293.634 201.482 296.296 198.819 296.296 195.556C296.296 192.292 293.634 189.63 290.37 189.63ZM284.444 219.259C284.444 215.995 287.107 213.333 290.37 213.333C293.634 213.333 296.296 215.995 296.296 219.259C296.296 222.523 293.634 225.185 290.37 225.185C287.107 225.185 284.444 222.523 284.444 219.259ZM290.37 237.037C287.107 237.037 284.444 239.699 284.444 242.963C284.444 246.227 287.107 248.889 290.37 248.889C293.634 248.889 296.296 246.227 296.296 242.963C296.296 239.699 293.634 237.037 290.37 237.037ZM284.444 266.667C284.444 263.403 287.107 260.741 290.37 260.741C293.634 260.741 296.296 263.403 296.296 266.667C296.296 269.931 293.634 272.593 290.37 272.593C287.107 272.593 284.444 269.931 284.444 266.667ZM290.37 284.444C287.107 284.444 284.444 287.107 284.444 290.37C284.444 293.634 287.107 296.296 290.37 296.296C293.634 296.296 296.296 293.634 296.296 290.37C296.296 287.107 293.634 284.444 290.37 284.444ZM284.444 314.074C284.444 310.81 287.107 308.148 290.37 308.148C293.634 308.148 296.296 310.81 296.296 314.074C296.296 317.338 293.634 320 290.37 320C287.107 320 284.444 317.338 284.444 314.074ZM77.0369 331.852C73.773 331.852 71.111 334.514 71.111 337.778C71.111 341.042 73.773 343.704 77.0369 343.704C80.3008 343.704 82.9629 341.042 82.9629 337.778C82.9629 334.514 80.3008 331.852 77.0369 331.852ZM94.8148 337.778C94.8148 334.514 97.4769 331.852 100.741 331.852C104.005 331.852 106.667 334.514 106.667 337.778C106.667 341.042 104.005 343.704 100.741 343.704C97.4769 343.704 94.8148 341.042 94.8148 337.778ZM124.445 331.852C121.181 331.852 118.519 334.514 118.519 337.778C118.519 341.042 121.181 343.704 124.445 343.704C127.708 343.704 130.37 341.042 130.37 337.778C130.37 334.514 127.708 331.852 124.445 331.852ZM142.222 337.778C142.222 334.514 144.884 331.852 148.148 331.852C151.412 331.852 154.074 334.514 154.074 337.778C154.074 341.042 151.412 343.704 148.148 343.704C144.884 343.704 142.222 341.042 142.222 337.778ZM171.852 331.852C168.588 331.852 165.926 334.514 165.926 337.778C165.926 341.042 168.588 343.704 171.852 343.704C175.116 343.704 177.778 341.042 177.778 337.778C177.778 334.514 175.116 331.852 171.852 331.852ZM189.63 337.778C189.63 334.514 192.292 331.852 195.556 331.852C198.82 331.852 201.482 334.514 201.482 337.778C201.482 341.042 198.82 343.704 195.556 343.704C192.292 343.704 189.63 341.042 189.63 337.778ZM219.259 331.852C215.995 331.852 213.333 334.514 213.333 337.778C213.333 341.042 215.995 343.704 219.259 343.704C222.523 343.704 225.185 341.042 225.185 337.778C225.185 334.514 222.523 331.852 219.259 331.852ZM237.037 337.778C237.037 334.514 239.699 331.852 242.963 331.852C246.227 331.852 248.889 334.514 248.889 337.778C248.889 341.042 246.227 343.704 242.963 343.704C239.699 343.704 237.037 341.042 237.037 337.778ZM266.667 331.852C263.403 331.852 260.741 334.514 260.741 337.778C260.741 341.042 263.403 343.704 266.667 343.704C269.931 343.704 272.593 341.042 272.593 337.778C272.593 334.514 269.931 331.852 266.667 331.852ZM284.444 337.778C284.444 334.514 287.107 331.852 290.37 331.852C293.634 331.852 296.296 334.514 296.296 337.778C296.296 341.042 293.634 343.704 290.37 343.704C287.107 343.704 284.444 341.042 284.444 337.778Z" id="Shape" fill="#FFFFFF" fill-rule="evenodd" stroke="none" />
    </g>
  </g>
</svg>