<?xml version="1.0" encoding="utf-8"?>
<svg width="1280px" height="720px" viewBox="0 0 1280 720" version="1.1" xmlns:xlink="http://www.w3.org/1999/xlink" xmlns="http://www.w3.org/2000/svg">
  <desc>Created with Lunacy</desc>
  <defs>
    <rect width="1280" height="720" id="artboard_1" />
    <clipPath id="clip_1">
      <use xlink:href="#artboard_1" clip-rule="evenodd" />
    </clipPath>
  </defs>
  <g id="Custom-size" clip-path="url(#clip_1)">
    <use xlink:href="#artboard_1" stroke="none" fill="#000000" />
    <g id="icons8_settings" transform="translate(-169 0)">
      <path d="M151.175 0L139.841 28.2954C121.984 32.0344 105.373 39.0255 90.5921 48.6845L62.6083 36.6886L36.6886 62.6083L48.6845 90.5921C39.006 105.373 32.0344 121.984 28.2954 139.841L0 151.175L0 187.825L28.2954 199.159C32.0344 217.016 39.0255 233.627 48.6845 248.408L36.6886 276.392L62.6083 302.311L90.5921 290.315C105.373 299.994 121.984 306.966 139.841 310.705L151.175 339L187.825 339L199.159 310.705C217.016 306.966 233.627 299.975 248.408 290.315L276.392 302.311L302.311 276.392L290.315 248.408C299.994 233.627 306.966 217.016 310.705 199.159L339 187.825L339 151.175L310.705 139.841C306.966 121.984 299.975 105.373 290.315 90.5921L302.311 62.6083L276.392 36.6886L248.408 48.6845C233.627 39.006 217.016 32.0344 199.159 28.2954L187.825 0L151.175 0ZM181.087 9.97059L157.913 9.97059L147.222 36.7471L144.515 37.2534C125.918 40.7392 108.683 48.0224 93.6301 58.324L91.3711 59.8625L64.8867 48.5092L48.5092 64.8867L59.843 91.3711L58.324 93.6301C48.0224 108.683 40.7392 125.937 37.2339 144.515L36.7471 147.222L9.97059 157.913L9.97059 181.087L36.7471 191.778L37.2534 194.485C40.7392 213.082 48.0224 230.317 58.324 245.37L59.8625 247.629L48.5092 274.113L64.8867 290.491L91.3711 279.157L93.6301 280.676C108.683 290.978 125.937 298.261 144.515 301.766L147.222 302.253L157.913 329.029L181.087 329.029L191.778 302.253L194.485 301.747C213.082 298.261 230.317 290.978 245.37 280.676L247.629 279.138L274.113 290.491L290.491 274.113L279.157 247.629L280.676 245.37C290.978 230.317 298.261 213.063 301.766 194.485L302.253 191.778L329.029 181.087L329.029 157.913L302.253 147.222L301.747 144.515C298.261 125.918 290.978 108.683 280.676 93.6301L279.138 91.3711L290.491 64.8867L274.113 48.5092L247.629 59.843L245.37 58.324C230.317 48.0224 213.063 40.7392 194.485 37.2339L191.778 36.7471L181.087 9.97059ZM169.5 74.7794C166.754 74.7794 164.515 77.0189 164.515 79.7647C164.515 82.5105 166.754 84.75 169.5 84.75C172.246 84.75 174.485 82.5105 174.485 79.7647C174.485 77.0189 172.246 74.7794 169.5 74.7794ZM146.15 77.8368L146.481 77.8368C148.74 77.8563 150.687 79.3753 151.272 81.5368C151.973 84.2048 150.395 86.9311 147.727 87.6321C145.079 88.3527 142.353 86.7753 141.632 84.1269C140.912 81.4589 142.489 78.7326 145.157 78.0121C145.488 77.9147 145.8 77.8758 146.15 77.8368ZM192.86 77.8368C190.62 77.8563 188.653 79.3753 188.069 81.5368C187.368 84.2048 188.945 86.9311 191.613 87.6321C194.262 88.3527 196.988 86.7753 197.709 84.1269C198.429 81.4589 196.852 78.7326 194.184 78.0121C193.755 77.8952 193.308 77.8368 192.86 77.8368ZM122.303 87.4775C123.023 87.0491 123.841 86.8154 124.679 86.7959C126.509 86.757 128.203 87.7112 129.099 89.2886C130.482 91.6838 129.664 94.7218 127.288 96.1044C126.139 96.7665 124.776 96.9418 123.51 96.6107C122.225 96.2602 121.134 95.4228 120.472 94.2739C119.81 93.1444 119.635 91.7812 119.966 90.4959C120.316 89.2107 121.154 88.1201 122.303 87.4775ZM214.297 86.8187C212.603 86.8966 211.064 87.8314 210.208 89.2919C209.545 90.4409 209.37 91.804 209.701 93.0893C210.052 94.3746 210.889 95.4651 212.038 96.1272C214.414 97.4904 217.471 96.6725 218.834 94.2772C220.217 91.9014 219.399 88.8635 217.023 87.4808C216.186 86.994 215.251 86.7798 214.297 86.8187ZM103.956 102.51C104.91 101.575 106.215 101.05 107.559 101.05C108.863 101.069 110.09 101.595 111.025 102.51C112.953 104.458 112.953 107.632 111.025 109.579C109.078 111.507 105.903 111.507 103.956 109.579C102.028 107.632 102.028 104.458 103.956 102.51ZM234.484 101.05C233.14 101.031 231.836 101.556 230.881 102.511C228.934 104.458 228.934 107.632 230.881 109.58C232.829 111.508 235.984 111.508 237.931 109.58C239.878 107.632 239.878 104.458 237.931 102.511C237.016 101.595 235.789 101.089 234.484 101.05ZM91.7224 119.651C90.0281 119.749 88.4897 120.683 87.6523 122.144C86.9707 123.293 86.7955 124.656 87.146 125.922C87.4965 127.207 88.3339 128.298 89.4634 128.96C91.8587 130.342 94.8966 129.505 96.2792 127.129C97.6619 124.753 96.844 121.696 94.4487 120.333C93.6308 119.846 92.6766 119.612 91.7224 119.651ZM244.885 120.31C245.605 119.901 246.423 119.668 247.26 119.648C249.091 119.609 250.785 120.563 251.7 122.141C253.083 124.517 252.246 127.574 249.87 128.937C247.494 130.32 244.437 129.502 243.054 127.126C242.392 125.977 242.217 124.614 242.567 123.348C242.898 122.063 243.736 120.972 244.885 120.31ZM129.618 169.5C129.618 147.534 147.534 129.618 169.5 129.618C191.466 129.618 209.382 147.534 209.382 169.5C209.382 191.466 191.466 209.382 169.5 209.382C147.534 209.382 129.618 191.466 129.618 169.5ZM169.5 139.588C186.072 139.588 199.412 152.928 199.412 169.5C199.412 186.072 186.072 199.412 169.5 199.412C152.928 199.412 139.588 186.072 139.588 169.5C139.588 152.928 152.928 139.588 169.5 139.588ZM78.159 144.986C78.7432 142.825 80.6906 141.325 82.9495 141.306C83.3974 141.286 83.8453 141.345 84.2737 141.461C86.9416 142.182 88.519 144.908 87.7985 147.576C87.078 150.244 84.3516 151.822 81.7032 151.101C79.0353 150.38 77.4579 147.654 78.159 144.986ZM256.391 141.311C256.314 141.298 256.236 141.302 256.158 141.306C256.119 141.308 256.08 141.311 256.041 141.311C255.71 141.33 255.379 141.389 255.048 141.466C252.399 142.187 250.822 144.913 251.542 147.581C252.243 150.249 254.97 151.826 257.638 151.106C260.306 150.385 261.883 147.659 261.162 144.991C260.578 142.83 258.631 141.33 256.391 141.311ZM74.7794 169.5C74.7794 166.754 77.0189 164.515 79.7647 164.515C82.5105 164.515 84.75 166.754 84.75 169.5C84.75 172.246 82.5105 174.485 79.7647 174.485C77.0189 174.485 74.7794 172.246 74.7794 169.5ZM259.235 164.515C256.489 164.515 254.25 166.754 254.25 169.5C254.25 172.246 256.489 174.485 259.235 174.485C261.981 174.485 264.221 172.246 264.221 169.5C264.221 166.754 261.981 164.515 259.235 164.515ZM81.7032 187.906C82.1706 187.79 82.6769 187.731 83.1832 187.751C85.3643 187.829 87.2337 189.328 87.7985 191.451C88.519 194.099 86.9416 196.825 84.2737 197.546C81.6058 198.267 78.8795 196.689 78.159 194.021C77.4579 191.353 79.0353 188.627 81.7032 187.906ZM256.296 187.747C254.057 187.766 252.109 189.285 251.545 191.447C251.194 192.732 251.369 194.095 252.031 195.225C252.694 196.374 253.784 197.211 255.069 197.542C257.737 198.263 260.464 196.685 261.184 194.037C261.885 191.369 260.308 188.643 257.64 187.922C257.211 187.805 256.764 187.747 256.296 187.747ZM89.9604 210.047C90.7004 209.619 91.5183 209.404 92.3557 209.385C94.1667 209.327 95.861 210.281 96.7762 211.878C97.4383 213.007 97.6136 214.37 97.2825 215.656C96.932 216.941 96.0946 218.031 94.9457 218.674C93.8162 219.356 92.453 219.531 91.1678 219.18C89.8825 218.83 88.792 217.992 88.1493 216.863C86.7667 214.468 87.5846 211.43 89.9604 210.047ZM247.163 209.406C245.449 209.484 243.911 210.419 243.054 211.88C242.392 213.028 242.217 214.392 242.567 215.677C242.918 216.962 243.755 218.053 244.904 218.715C247.28 220.078 250.318 219.26 251.7 216.865C253.083 214.489 252.265 211.451 249.889 210.068C249.052 209.582 248.098 209.367 247.163 209.406ZM103.956 229.421C104.91 228.487 106.215 227.961 107.559 227.98C108.863 227.98 110.09 228.506 111.025 229.421C112.953 231.369 112.953 234.543 111.025 236.49C109.078 238.418 105.903 238.418 103.956 236.49C102.028 234.543 102.028 231.369 103.956 229.421ZM234.484 227.982C233.14 227.943 231.836 228.469 230.881 229.423C228.934 231.37 228.934 234.545 230.881 236.492C232.829 238.42 235.984 238.42 237.931 236.492C239.878 234.545 239.878 231.37 237.931 229.423C237.016 228.508 235.789 228.001 234.484 227.982ZM125.071 242.239C123.357 242.317 121.819 243.252 120.981 244.732C119.599 247.108 120.417 250.165 122.812 251.528C123.941 252.21 125.305 252.385 126.59 252.035C127.875 251.703 128.966 250.866 129.608 249.717C130.29 248.568 130.465 247.205 130.115 245.939C129.764 244.654 128.927 243.563 127.797 242.901C126.96 242.414 126.006 242.2 125.071 242.239ZM212.547 242.88C213.268 242.471 214.086 242.237 214.904 242.237C216.734 242.179 218.448 243.133 219.344 244.71C220.025 245.859 220.201 247.223 219.85 248.488C219.5 249.774 218.662 250.864 217.533 251.526C215.137 252.909 212.099 252.072 210.717 249.696C209.334 247.32 210.152 244.263 212.547 242.88ZM141.632 254.896C142.216 252.735 144.164 251.235 146.403 251.216C146.851 251.196 147.299 251.255 147.727 251.372C149.013 251.722 150.103 252.559 150.765 253.689C151.427 254.838 151.603 256.201 151.272 257.486C150.551 260.154 147.825 261.732 145.157 261.011C142.489 260.291 140.912 257.564 141.632 254.896ZM193.093 251.217C192.587 251.197 192.081 251.236 191.613 251.373C188.945 252.093 187.368 254.819 188.069 257.468C188.79 260.136 191.516 261.713 194.184 261.012C196.852 260.292 198.429 257.565 197.709 254.897C197.144 252.794 195.274 251.295 193.093 251.217ZM164.515 259.235C164.515 256.489 166.754 254.25 169.5 254.25C172.246 254.25 174.485 256.489 174.485 259.235C174.485 261.981 172.246 264.221 169.5 264.221C166.754 264.221 164.515 261.981 164.515 259.235Z" id="Shape" fill="#FFFFFF" fill-rule="evenodd" stroke="none" />
    </g>
  </g>
</svg>