<?xml version="1.0" encoding="utf-8"?>
<svg width="335px" height="337px" viewBox="0 0 335 337" version="1.1" xmlns:xlink="http://www.w3.org/1999/xlink" xmlns="http://www.w3.org/2000/svg">
  <desc>Created with Lunacy</desc>
  <g id="visual-studio-code">
    <g id="visual-studio-code">
      <path d="M3.23614 38.04C3.23614 38.04 -5.04837 32.0682 4.89304 24.0944L28.0551 3.3831C28.0551 3.3831 34.6828 -3.58971 41.6901 2.48561L255.43 164.31L255.43 241.909C255.43 241.909 255.327 254.093 239.691 252.747L3.23614 38.04L3.23614 38.04Z" transform="translate(0.7200928 76.8604)" id="Shape" fill="#FFFFFF" stroke="none" />
      <path d="M57.608 0L2.51604 50.0868C2.51604 50.0868 -3.14505 54.2981 2.51604 61.8232L28.0945 85.089C28.0945 85.089 34.1698 91.613 43.1447 84.1915L101.551 39.9039L57.608 0L57.608 0Z" transform="translate(0 159.9469)" id="Shape" fill="#FFFFFF" stroke="none" />
      <path d="M52.7792 164.94L153.816 87.7904L153.159 10.6063C153.159 10.6063 148.845 -6.23885 134.451 2.52893L0 124.898L52.7792 164.94L52.7792 164.94Z" transform="translate(96.5184 0.4790192)" id="Shape" fill="#FFFFFF" stroke="none" />
      <path d="M2.96865 332.154C8.83685 338.159 15.9477 336.192 15.9477 336.192L94.6851 297.393C104.765 290.523 103.349 281.997 103.349 281.997L103.349 50.3072C103.349 40.1241 92.9247 36.6032 92.9247 36.6032L24.6809 3.70677C9.76883 -5.50974 0 5.36367 0 5.36367C0 5.36367 12.5649 -3.68025 18.7093 13.4411L18.7093 319.796C18.7093 321.902 18.2605 323.973 17.363 325.836C15.568 329.46 11.6674 332.844 2.31277 331.429L2.96865 332.154L2.96865 332.154Z" transform="translate(230.9692 0)" id="Shape" fill="#FFFFFF" stroke="none" />
    </g>
  </g>
</svg>