<?xml version="1.0" encoding="utf-8"?>
<svg width="1280px" height="720px" viewBox="0 0 1280 720" version="1.1" xmlns:xlink="http://www.w3.org/1999/xlink" xmlns="http://www.w3.org/2000/svg">
  <desc>Created with Lunacy</desc>
  <defs>
    <rect width="1280" height="720" id="artboard_1" />
    <clipPath id="clip_1">
      <use xlink:href="#artboard_1" clip-rule="evenodd" />
    </clipPath>
  </defs>
  <g id="HD" clip-path="url(#clip_1)">
    <use xlink:href="#artboard_1" stroke="none" fill="#000000" />
    <g id="icons8_puzzle_2" transform="translate(479.9999 180)">
      <path d="M180.152 0C157.728 0 139.868 17.1935 137.32 38.9517L38.9517 38.9517L38.9517 137.32C17.1935 139.868 0 157.728 0 180.152C0 202.575 17.1935 220.435 38.9517 222.983L38.9517 321.351L137.32 321.351C139.868 343.11 157.728 360.303 180.152 360.303C202.575 360.303 220.435 343.11 222.983 321.351L321.351 321.351L321.351 214.462L317.091 213.93C300.259 211.838 287.269 197.573 287.269 180.152C287.269 162.73 300.259 148.465 317.091 146.373L321.351 145.841L321.351 38.9517L222.983 38.9517C220.435 17.1935 202.575 0 180.152 0ZM214.234 43.8206C214.234 24.9344 199.038 9.73792 180.151 9.73792C161.265 9.73792 146.069 24.9344 146.069 43.8206L146.069 48.6896L48.6896 48.6896L48.6896 146.069L43.8206 146.069C24.9344 146.069 9.73792 161.265 9.73792 180.151C9.73792 199.038 24.9344 214.234 43.8206 214.234L48.6896 214.234L48.6896 311.613L146.069 311.613L146.069 316.482C146.069 335.369 161.265 350.565 180.151 350.565C199.038 350.565 214.234 335.369 214.234 316.482L214.234 311.613L311.613 311.613L311.613 222.241C292.233 217.734 277.531 200.864 277.531 180.151C277.531 159.439 292.233 142.569 311.613 138.062L311.613 48.6896L214.234 48.6896L214.234 43.8206ZM73.0344 68.1654C70.3527 68.1654 68.1654 70.3527 68.1654 73.0344C68.1654 75.7162 70.3527 77.9034 73.0344 77.9034C75.7161 77.9034 77.9034 75.7162 77.9034 73.0344C77.9034 70.3527 75.7161 68.1654 73.0344 68.1654ZM87.6413 73.0344C87.6413 70.3527 89.8285 68.1654 92.5102 68.1654C95.192 68.1654 97.3792 70.3527 97.3792 73.0344C97.3792 75.7162 95.192 77.9034 92.5102 77.9034C89.8285 77.9034 87.6413 75.7162 87.6413 73.0344ZM111.986 68.1654C109.304 68.1654 107.117 70.3527 107.117 73.0344C107.117 75.7162 109.304 77.9034 111.986 77.9034C114.668 77.9034 116.855 75.7162 116.855 73.0344C116.855 70.3527 114.668 68.1654 111.986 68.1654ZM126.593 73.0344C126.593 70.3527 128.78 68.1654 131.462 68.1654C134.144 68.1654 136.331 70.3527 136.331 73.0344C136.331 75.7162 134.144 77.9034 131.462 77.9034C128.78 77.9034 126.593 75.7162 126.593 73.0344ZM228.841 68.1654C226.159 68.1654 223.972 70.3527 223.972 73.0344C223.972 75.7162 226.159 77.9034 228.841 77.9034C231.523 77.9034 233.71 75.7162 233.71 73.0344C233.71 70.3527 231.523 68.1654 228.841 68.1654ZM243.448 73.0344C243.448 70.3527 245.635 68.1654 248.317 68.1654C250.999 68.1654 253.186 70.3527 253.186 73.0344C253.186 75.7162 250.999 77.9034 248.317 77.9034C245.635 77.9034 243.448 75.7162 243.448 73.0344ZM267.793 68.1654C265.111 68.1654 262.924 70.3527 262.924 73.0344C262.924 75.7162 265.111 77.9034 267.793 77.9034C270.474 77.9034 272.662 75.7162 272.662 73.0344C272.662 70.3527 270.474 68.1654 267.793 68.1654ZM282.4 73.0344C282.4 70.3527 284.587 68.1654 287.269 68.1654C289.95 68.1654 292.138 70.3527 292.138 73.0344C292.138 75.7162 289.95 77.9034 287.269 77.9034C284.587 77.9034 282.4 75.7162 282.4 73.0344ZM73.0344 87.6413C70.3527 87.6413 68.1654 89.8285 68.1654 92.5103C68.1654 95.192 70.3527 97.3792 73.0344 97.3792C75.7161 97.3792 77.9034 95.192 77.9034 92.5103C77.9034 89.8285 75.7161 87.6413 73.0344 87.6413ZM282.4 92.5103C282.4 89.8285 284.587 87.6413 287.269 87.6413C289.95 87.6413 292.138 89.8285 292.138 92.5103C292.138 95.192 289.95 97.3792 287.269 97.3792C284.587 97.3792 282.4 95.192 282.4 92.5103ZM73.0344 107.117C70.3527 107.117 68.1654 109.304 68.1654 111.986C68.1654 114.668 70.3527 116.855 73.0344 116.855C75.7161 116.855 77.9034 114.668 77.9034 111.986C77.9034 109.304 75.7161 107.117 73.0344 107.117ZM282.4 111.986C282.4 109.304 284.587 107.117 287.269 107.117C289.95 107.117 292.138 109.304 292.138 111.986C292.138 114.668 289.95 116.855 287.269 116.855C284.587 116.855 282.4 114.668 282.4 111.986ZM73.0344 126.593C70.3527 126.593 68.1654 128.78 68.1654 131.462C68.1654 134.144 70.3527 136.331 73.0344 136.331C75.7161 136.331 77.9034 134.144 77.9034 131.462C77.9034 128.78 75.7161 126.593 73.0344 126.593ZM68.1654 228.841C68.1654 226.159 70.3527 223.972 73.0344 223.972C75.7161 223.972 77.9034 226.159 77.9034 228.841C77.9034 231.523 75.7161 233.71 73.0344 233.71C70.3527 233.71 68.1654 231.523 68.1654 228.841ZM73.0344 243.448C70.3527 243.448 68.1654 245.635 68.1654 248.317C68.1654 250.999 70.3527 253.186 73.0344 253.186C75.7161 253.186 77.9034 250.999 77.9034 248.317C77.9034 245.635 75.7161 243.448 73.0344 243.448ZM282.4 248.317C282.4 245.635 284.587 243.448 287.269 243.448C289.95 243.448 292.138 245.635 292.138 248.317C292.138 250.999 289.95 253.186 287.269 253.186C284.587 253.186 282.4 250.999 282.4 248.317ZM73.0344 262.924C70.3527 262.924 68.1654 265.111 68.1654 267.793C68.1654 270.474 70.3527 272.662 73.0344 272.662C75.7161 272.662 77.9034 270.474 77.9034 267.793C77.9034 265.111 75.7161 262.924 73.0344 262.924ZM282.4 267.793C282.4 265.111 284.587 262.924 287.269 262.924C289.95 262.924 292.138 265.111 292.138 267.793C292.138 270.474 289.95 272.662 287.269 272.662C284.587 272.662 282.4 270.474 282.4 267.793ZM73.0344 282.4C70.3527 282.4 68.1654 284.587 68.1654 287.269C68.1654 289.95 70.3527 292.138 73.0344 292.138C75.7161 292.138 77.9034 289.95 77.9034 287.269C77.9034 284.587 75.7161 282.4 73.0344 282.4ZM87.6413 287.269C87.6413 284.587 89.8285 282.4 92.5102 282.4C95.192 282.4 97.3792 284.587 97.3792 287.269C97.3792 289.95 95.192 292.138 92.5102 292.138C89.8285 292.138 87.6413 289.95 87.6413 287.269ZM111.986 282.4C109.304 282.4 107.117 284.587 107.117 287.269C107.117 289.95 109.304 292.138 111.986 292.138C114.668 292.138 116.855 289.95 116.855 287.269C116.855 284.587 114.668 282.4 111.986 282.4ZM126.593 287.269C126.593 284.587 128.78 282.4 131.462 282.4C134.144 282.4 136.331 284.587 136.331 287.269C136.331 289.95 134.144 292.138 131.462 292.138C128.78 292.138 126.593 289.95 126.593 287.269ZM228.841 282.4C226.159 282.4 223.972 284.587 223.972 287.269C223.972 289.95 226.159 292.138 228.841 292.138C231.523 292.138 233.71 289.95 233.71 287.269C233.71 284.587 231.523 282.4 228.841 282.4ZM243.448 287.269C243.448 284.587 245.635 282.4 248.317 282.4C250.999 282.4 253.186 284.587 253.186 287.269C253.186 289.95 250.999 292.138 248.317 292.138C245.635 292.138 243.448 289.95 243.448 287.269ZM267.793 282.4C265.111 282.4 262.924 284.587 262.924 287.269C262.924 289.95 265.111 292.138 267.793 292.138C270.474 292.138 272.662 289.95 272.662 287.269C272.662 284.587 270.474 282.4 267.793 282.4ZM282.4 287.269C282.4 284.587 284.587 282.4 287.269 282.4C289.95 282.4 292.138 284.587 292.138 287.269C292.138 289.95 289.95 292.138 287.269 292.138C284.587 292.138 282.4 289.95 282.4 287.269Z" id="Shape" fill="#FFFFFF" fill-rule="evenodd" stroke="none" />
    </g>
  </g>
</svg>